<svg viewBox="0 0 332 234" fill="none" xmlns="http://www.w3.org/2000/svg">
<g filter="url(#filter0_d_157_2068)">
<rect x="16" y="12" width="300" height="202" rx="6" fill="#FAFAFA"/>
<rect x="16.5" y="12.5" width="299" height="201" rx="5.5" stroke="#D4D4D8"/>
<path d="M35.204 38.462V36.464H42.908V38.462H35.204ZM32.306 41L37.778 29.354H40.37L45.896 41H43.286L38.498 30.506H39.65L34.898 41H32.306ZM57.7977 37.472C57.7377 38.252 57.4857 38.924 57.0417 39.488C56.6097 40.052 56.0097 40.484 55.2417 40.784C54.4737 41.072 53.5617 41.216 52.5057 41.216C51.4017 41.216 50.4117 41.042 49.5357 40.694C48.6717 40.334 47.9877 39.812 47.4837 39.128C46.9917 38.432 46.7457 37.574 46.7457 36.554C46.7457 35.534 46.9917 34.676 47.4837 33.98C47.9877 33.284 48.6717 32.756 49.5357 32.396C50.4117 32.036 51.4017 31.856 52.5057 31.856C53.5617 31.856 54.4677 32.006 55.2237 32.306C55.9797 32.594 56.5737 33.014 57.0057 33.566C57.4497 34.118 57.7077 34.784 57.7797 35.564H55.6377C55.4337 34.964 55.0557 34.496 54.5037 34.16C53.9517 33.824 53.2857 33.656 52.5057 33.656C51.8817 33.656 51.3117 33.764 50.7957 33.98C50.2917 34.196 49.8837 34.52 49.5717 34.952C49.2717 35.372 49.1217 35.906 49.1217 36.554C49.1217 37.19 49.2717 37.724 49.5717 38.156C49.8717 38.576 50.2797 38.894 50.7957 39.11C51.3117 39.314 51.8817 39.416 52.5057 39.416C53.3457 39.416 54.0297 39.248 54.5577 38.912C55.0977 38.576 55.4637 38.096 55.6557 37.472H57.7977ZM58.8875 32.054H65.8355V33.872H58.8875V32.054ZM61.1915 29.606H63.5315V41H61.1915V29.606ZM70.0042 28.13V30.182H67.2862V28.13H70.0042ZM67.4662 32.054H69.8062V41H67.4662V32.054ZM77.4126 41.216C76.2846 41.216 75.2886 41.036 74.4246 40.676C73.5726 40.316 72.9066 39.794 72.4266 39.11C71.9466 38.414 71.7066 37.562 71.7066 36.554C71.7066 35.546 71.9466 34.694 72.4266 33.998C72.9066 33.29 73.5726 32.756 74.4246 32.396C75.2886 32.036 76.2846 31.856 77.4126 31.856C78.5406 31.856 79.5246 32.036 80.3646 32.396C81.2166 32.756 81.8826 33.29 82.3626 33.998C82.8426 34.694 83.0826 35.546 83.0826 36.554C83.0826 37.562 82.8426 38.414 82.3626 39.11C81.8826 39.794 81.2166 40.316 80.3646 40.676C79.5246 41.036 78.5406 41.216 77.4126 41.216ZM77.4126 39.416C78.0366 39.416 78.5946 39.308 79.0866 39.092C79.5906 38.864 79.9866 38.54 80.2746 38.12C80.5626 37.688 80.7066 37.166 80.7066 36.554C80.7066 35.942 80.5626 35.42 80.2746 34.988C79.9866 34.544 79.5966 34.208 79.1046 33.98C78.6126 33.752 78.0486 33.638 77.4126 33.638C76.7886 33.638 76.2246 33.752 75.7206 33.98C75.2166 34.208 74.8146 34.538 74.5146 34.97C74.2266 35.402 74.0826 35.93 74.0826 36.554C74.0826 37.166 74.2266 37.688 74.5146 38.12C74.8026 38.54 75.1986 38.864 75.7026 39.092C76.2066 39.308 76.7766 39.416 77.4126 39.416ZM84.8124 32.054H87.1524V41H84.8124V32.054ZM91.3104 31.856C91.8624 31.856 92.3724 31.928 92.8404 32.072C93.3084 32.216 93.7164 32.438 94.0644 32.738C94.4124 33.038 94.6824 33.422 94.8744 33.89C95.0664 34.346 95.1624 34.892 95.1624 35.528V41H92.8224V35.942C92.8224 35.186 92.6364 34.634 92.2644 34.286C91.9044 33.926 91.3104 33.746 90.4824 33.746C89.8584 33.746 89.2944 33.866 88.7904 34.106C88.2864 34.346 87.8784 34.652 87.5664 35.024C87.2544 35.384 87.0744 35.762 87.0264 36.158L87.0084 35.24C87.0684 34.82 87.2064 34.412 87.4224 34.016C87.6384 33.62 87.9264 33.26 88.2864 32.936C88.6584 32.6 89.0964 32.336 89.6004 32.144C90.1044 31.952 90.6744 31.856 91.3104 31.856ZM101.005 34.052V32.054H105.883V41H103.543V34.052H101.005Z" fill="#9F7BDC"/>
<rect x="16" y="58" width="300" height="1" fill="#D4D4D8"/>
<path d="M35.204 85.462V83.464H42.908V85.462H35.204ZM32.306 88L37.778 76.354H40.37L45.896 88H43.286L38.498 77.506H39.65L34.898 88H32.306ZM57.7977 84.472C57.7377 85.252 57.4857 85.924 57.0417 86.488C56.6097 87.052 56.0097 87.484 55.2417 87.784C54.4737 88.072 53.5617 88.216 52.5057 88.216C51.4017 88.216 50.4117 88.042 49.5357 87.694C48.6717 87.334 47.9877 86.812 47.4837 86.128C46.9917 85.432 46.7457 84.574 46.7457 83.554C46.7457 82.534 46.9917 81.676 47.4837 80.98C47.9877 80.284 48.6717 79.756 49.5357 79.396C50.4117 79.036 51.4017 78.856 52.5057 78.856C53.5617 78.856 54.4677 79.006 55.2237 79.306C55.9797 79.594 56.5737 80.014 57.0057 80.566C57.4497 81.118 57.7077 81.784 57.7797 82.564H55.6377C55.4337 81.964 55.0557 81.496 54.5037 81.16C53.9517 80.824 53.2857 80.656 52.5057 80.656C51.8817 80.656 51.3117 80.764 50.7957 80.98C50.2917 81.196 49.8837 81.52 49.5717 81.952C49.2717 82.372 49.1217 82.906 49.1217 83.554C49.1217 84.19 49.2717 84.724 49.5717 85.156C49.8717 85.576 50.2797 85.894 50.7957 86.11C51.3117 86.314 51.8817 86.416 52.5057 86.416C53.3457 86.416 54.0297 86.248 54.5577 85.912C55.0977 85.576 55.4637 85.096 55.6557 84.472H57.7977ZM58.8875 79.054H65.8355V80.872H58.8875V79.054ZM61.1915 76.606H63.5315V88H61.1915V76.606ZM70.0042 75.13V77.182H67.2862V75.13H70.0042ZM67.4662 79.054H69.8062V88H67.4662V79.054ZM77.4126 88.216C76.2846 88.216 75.2886 88.036 74.4246 87.676C73.5726 87.316 72.9066 86.794 72.4266 86.11C71.9466 85.414 71.7066 84.562 71.7066 83.554C71.7066 82.546 71.9466 81.694 72.4266 80.998C72.9066 80.29 73.5726 79.756 74.4246 79.396C75.2886 79.036 76.2846 78.856 77.4126 78.856C78.5406 78.856 79.5246 79.036 80.3646 79.396C81.2166 79.756 81.8826 80.29 82.3626 80.998C82.8426 81.694 83.0826 82.546 83.0826 83.554C83.0826 84.562 82.8426 85.414 82.3626 86.11C81.8826 86.794 81.2166 87.316 80.3646 87.676C79.5246 88.036 78.5406 88.216 77.4126 88.216ZM77.4126 86.416C78.0366 86.416 78.5946 86.308 79.0866 86.092C79.5906 85.864 79.9866 85.54 80.2746 85.12C80.5626 84.688 80.7066 84.166 80.7066 83.554C80.7066 82.942 80.5626 82.42 80.2746 81.988C79.9866 81.544 79.5966 81.208 79.1046 80.98C78.6126 80.752 78.0486 80.638 77.4126 80.638C76.7886 80.638 76.2246 80.752 75.7206 80.98C75.2166 81.208 74.8146 81.538 74.5146 81.97C74.2266 82.402 74.0826 82.93 74.0826 83.554C74.0826 84.166 74.2266 84.688 74.5146 85.12C74.8026 85.54 75.1986 85.864 75.7026 86.092C76.2066 86.308 76.7766 86.416 77.4126 86.416ZM84.8124 79.054H87.1524V88H84.8124V79.054ZM91.3104 78.856C91.8624 78.856 92.3724 78.928 92.8404 79.072C93.3084 79.216 93.7164 79.438 94.0644 79.738C94.4124 80.038 94.6824 80.422 94.8744 80.89C95.0664 81.346 95.1624 81.892 95.1624 82.528V88H92.8224V82.942C92.8224 82.186 92.6364 81.634 92.2644 81.286C91.9044 80.926 91.3104 80.746 90.4824 80.746C89.8584 80.746 89.2944 80.866 88.7904 81.106C88.2864 81.346 87.8784 81.652 87.5664 82.024C87.2544 82.384 87.0744 82.762 87.0264 83.158L87.0084 82.24C87.0684 81.82 87.2064 81.412 87.4224 81.016C87.6384 80.62 87.9264 80.26 88.2864 79.936C88.6584 79.6 89.0964 79.336 89.6004 79.144C90.1044 78.952 90.6744 78.856 91.3104 78.856ZM107.359 85.282L104.443 86.65L104.353 86.2H111.067V88H101.473V86.2C102.553 85.708 103.525 85.288 104.389 84.94C105.253 84.592 105.985 84.28 106.585 84.004C107.185 83.716 107.641 83.428 107.953 83.14C108.277 82.84 108.439 82.51 108.439 82.15C108.439 81.862 108.355 81.616 108.187 81.412C108.019 81.196 107.755 81.028 107.395 80.908C107.035 80.788 106.567 80.728 105.991 80.728C105.235 80.728 104.623 80.878 104.155 81.178C103.699 81.466 103.459 81.862 103.435 82.366H101.167C101.131 81.67 101.299 81.058 101.671 80.53C102.055 80.002 102.613 79.588 103.345 79.288C104.077 78.988 104.941 78.838 105.937 78.838C106.669 78.838 107.335 78.91 107.935 79.054C108.535 79.186 109.051 79.384 109.483 79.648C109.927 79.912 110.263 80.23 110.491 80.602C110.731 80.974 110.851 81.394 110.851 81.862C110.851 82.222 110.785 82.552 110.653 82.852C110.521 83.14 110.311 83.416 110.023 83.68C109.747 83.944 109.387 84.208 108.943 84.472C108.499 84.724 107.971 84.994 107.359 85.282Z" fill="#52525B"/>
<rect x="16" y="105" width="300" height="1" fill="#D4D4D8"/>
<path d="M35.204 132.462V130.464H42.908V132.462H35.204ZM32.306 135L37.778 123.354H40.37L45.896 135H43.286L38.498 124.506H39.65L34.898 135H32.306ZM57.7977 131.472C57.7377 132.252 57.4857 132.924 57.0417 133.488C56.6097 134.052 56.0097 134.484 55.2417 134.784C54.4737 135.072 53.5617 135.216 52.5057 135.216C51.4017 135.216 50.4117 135.042 49.5357 134.694C48.6717 134.334 47.9877 133.812 47.4837 133.128C46.9917 132.432 46.7457 131.574 46.7457 130.554C46.7457 129.534 46.9917 128.676 47.4837 127.98C47.9877 127.284 48.6717 126.756 49.5357 126.396C50.4117 126.036 51.4017 125.856 52.5057 125.856C53.5617 125.856 54.4677 126.006 55.2237 126.306C55.9797 126.594 56.5737 127.014 57.0057 127.566C57.4497 128.118 57.7077 128.784 57.7797 129.564H55.6377C55.4337 128.964 55.0557 128.496 54.5037 128.16C53.9517 127.824 53.2857 127.656 52.5057 127.656C51.8817 127.656 51.3117 127.764 50.7957 127.98C50.2917 128.196 49.8837 128.52 49.5717 128.952C49.2717 129.372 49.1217 129.906 49.1217 130.554C49.1217 131.19 49.2717 131.724 49.5717 132.156C49.8717 132.576 50.2797 132.894 50.7957 133.11C51.3117 133.314 51.8817 133.416 52.5057 133.416C53.3457 133.416 54.0297 133.248 54.5577 132.912C55.0977 132.576 55.4637 132.096 55.6557 131.472H57.7977ZM58.8875 126.054H65.8355V127.872H58.8875V126.054ZM61.1915 123.606H63.5315V135H61.1915V123.606ZM70.0042 122.13V124.182H67.2862V122.13H70.0042ZM67.4662 126.054H69.8062V135H67.4662V126.054ZM77.4126 135.216C76.2846 135.216 75.2886 135.036 74.4246 134.676C73.5726 134.316 72.9066 133.794 72.4266 133.11C71.9466 132.414 71.7066 131.562 71.7066 130.554C71.7066 129.546 71.9466 128.694 72.4266 127.998C72.9066 127.29 73.5726 126.756 74.4246 126.396C75.2886 126.036 76.2846 125.856 77.4126 125.856C78.5406 125.856 79.5246 126.036 80.3646 126.396C81.2166 126.756 81.8826 127.29 82.3626 127.998C82.8426 128.694 83.0826 129.546 83.0826 130.554C83.0826 131.562 82.8426 132.414 82.3626 133.11C81.8826 133.794 81.2166 134.316 80.3646 134.676C79.5246 135.036 78.5406 135.216 77.4126 135.216ZM77.4126 133.416C78.0366 133.416 78.5946 133.308 79.0866 133.092C79.5906 132.864 79.9866 132.54 80.2746 132.12C80.5626 131.688 80.7066 131.166 80.7066 130.554C80.7066 129.942 80.5626 129.42 80.2746 128.988C79.9866 128.544 79.5966 128.208 79.1046 127.98C78.6126 127.752 78.0486 127.638 77.4126 127.638C76.7886 127.638 76.2246 127.752 75.7206 127.98C75.2166 128.208 74.8146 128.538 74.5146 128.97C74.2266 129.402 74.0826 129.93 74.0826 130.554C74.0826 131.166 74.2266 131.688 74.5146 132.12C74.8026 132.54 75.1986 132.864 75.7026 133.092C76.2066 133.308 76.7766 133.416 77.4126 133.416ZM84.8124 126.054H87.1524V135H84.8124V126.054ZM91.3104 125.856C91.8624 125.856 92.3724 125.928 92.8404 126.072C93.3084 126.216 93.7164 126.438 94.0644 126.738C94.4124 127.038 94.6824 127.422 94.8744 127.89C95.0664 128.346 95.1624 128.892 95.1624 129.528V135H92.8224V129.942C92.8224 129.186 92.6364 128.634 92.2644 128.286C91.9044 127.926 91.3104 127.746 90.4824 127.746C89.8584 127.746 89.2944 127.866 88.7904 128.106C88.2864 128.346 87.8784 128.652 87.5664 129.024C87.2544 129.384 87.0744 129.762 87.0264 130.158L87.0084 129.24C87.0684 128.82 87.2064 128.412 87.4224 128.016C87.6384 127.62 87.9264 127.26 88.2864 126.936C88.6584 126.6 89.0964 126.336 89.6004 126.144C90.1044 125.952 90.6744 125.856 91.3104 125.856ZM106.585 131.688V131.598C107.293 131.622 107.941 131.682 108.529 131.778C109.129 131.862 109.645 132.012 110.077 132.228C110.509 132.432 110.845 132.72 111.085 133.092C111.325 133.464 111.445 133.938 111.445 134.514C111.445 135.186 111.229 135.78 110.797 136.296C110.377 136.812 109.777 137.214 108.997 137.502C108.217 137.802 107.299 137.952 106.243 137.952C105.211 137.952 104.305 137.79 103.525 137.466C102.757 137.154 102.169 136.716 101.761 136.152C101.353 135.6 101.167 134.958 101.203 134.226H103.471C103.483 134.574 103.597 134.874 103.813 135.126C104.041 135.39 104.359 135.594 104.767 135.738C105.187 135.882 105.679 135.954 106.243 135.954C107.119 135.954 107.791 135.804 108.259 135.504C108.727 135.204 108.961 134.76 108.961 134.172C108.961 133.608 108.691 133.212 108.151 132.984C107.611 132.744 106.849 132.624 105.865 132.624H104.335V130.824H105.865C106.549 130.824 107.101 130.782 107.521 130.698C107.953 130.602 108.265 130.452 108.457 130.248C108.661 130.032 108.763 129.75 108.763 129.402C108.763 128.91 108.565 128.526 108.169 128.25C107.773 127.962 107.131 127.818 106.243 127.818C105.403 127.818 104.755 127.968 104.299 128.268C103.855 128.568 103.621 128.964 103.597 129.456H101.329C101.293 128.892 101.395 128.388 101.635 127.944C101.887 127.5 102.241 127.122 102.697 126.81C103.165 126.486 103.699 126.24 104.299 126.072C104.911 125.904 105.559 125.82 106.243 125.82C107.275 125.82 108.163 125.952 108.907 126.216C109.651 126.48 110.221 126.852 110.617 127.332C111.013 127.812 111.211 128.37 111.211 129.006C111.211 129.534 111.097 129.972 110.869 130.32C110.641 130.656 110.317 130.926 109.897 131.13C109.477 131.322 108.985 131.46 108.421 131.544C107.869 131.628 107.257 131.676 106.585 131.688Z" fill="#D4D4D8"/>
<rect x="16" y="152" width="300" height="1" fill="#D4D4D8"/>
<path d="M35.204 179.462V177.464H42.908V179.462H35.204ZM32.306 182L37.778 170.354H40.37L45.896 182H43.286L38.498 171.506H39.65L34.898 182H32.306ZM57.7977 178.472C57.7377 179.252 57.4857 179.924 57.0417 180.488C56.6097 181.052 56.0097 181.484 55.2417 181.784C54.4737 182.072 53.5617 182.216 52.5057 182.216C51.4017 182.216 50.4117 182.042 49.5357 181.694C48.6717 181.334 47.9877 180.812 47.4837 180.128C46.9917 179.432 46.7457 178.574 46.7457 177.554C46.7457 176.534 46.9917 175.676 47.4837 174.98C47.9877 174.284 48.6717 173.756 49.5357 173.396C50.4117 173.036 51.4017 172.856 52.5057 172.856C53.5617 172.856 54.4677 173.006 55.2237 173.306C55.9797 173.594 56.5737 174.014 57.0057 174.566C57.4497 175.118 57.7077 175.784 57.7797 176.564H55.6377C55.4337 175.964 55.0557 175.496 54.5037 175.16C53.9517 174.824 53.2857 174.656 52.5057 174.656C51.8817 174.656 51.3117 174.764 50.7957 174.98C50.2917 175.196 49.8837 175.52 49.5717 175.952C49.2717 176.372 49.1217 176.906 49.1217 177.554C49.1217 178.19 49.2717 178.724 49.5717 179.156C49.8717 179.576 50.2797 179.894 50.7957 180.11C51.3117 180.314 51.8817 180.416 52.5057 180.416C53.3457 180.416 54.0297 180.248 54.5577 179.912C55.0977 179.576 55.4637 179.096 55.6557 178.472H57.7977ZM58.8875 173.054H65.8355V174.872H58.8875V173.054ZM61.1915 170.606H63.5315V182H61.1915V170.606ZM70.0042 169.13V171.182H67.2862V169.13H70.0042ZM67.4662 173.054H69.8062V182H67.4662V173.054ZM77.4126 182.216C76.2846 182.216 75.2886 182.036 74.4246 181.676C73.5726 181.316 72.9066 180.794 72.4266 180.11C71.9466 179.414 71.7066 178.562 71.7066 177.554C71.7066 176.546 71.9466 175.694 72.4266 174.998C72.9066 174.29 73.5726 173.756 74.4246 173.396C75.2886 173.036 76.2846 172.856 77.4126 172.856C78.5406 172.856 79.5246 173.036 80.3646 173.396C81.2166 173.756 81.8826 174.29 82.3626 174.998C82.8426 175.694 83.0826 176.546 83.0826 177.554C83.0826 178.562 82.8426 179.414 82.3626 180.11C81.8826 180.794 81.2166 181.316 80.3646 181.676C79.5246 182.036 78.5406 182.216 77.4126 182.216ZM77.4126 180.416C78.0366 180.416 78.5946 180.308 79.0866 180.092C79.5906 179.864 79.9866 179.54 80.2746 179.12C80.5626 178.688 80.7066 178.166 80.7066 177.554C80.7066 176.942 80.5626 176.42 80.2746 175.988C79.9866 175.544 79.5966 175.208 79.1046 174.98C78.6126 174.752 78.0486 174.638 77.4126 174.638C76.7886 174.638 76.2246 174.752 75.7206 174.98C75.2166 175.208 74.8146 175.538 74.5146 175.97C74.2266 176.402 74.0826 176.93 74.0826 177.554C74.0826 178.166 74.2266 178.688 74.5146 179.12C74.8026 179.54 75.1986 179.864 75.7026 180.092C76.2066 180.308 76.7766 180.416 77.4126 180.416ZM84.8124 173.054H87.1524V182H84.8124V173.054ZM91.3104 172.856C91.8624 172.856 92.3724 172.928 92.8404 173.072C93.3084 173.216 93.7164 173.438 94.0644 173.738C94.4124 174.038 94.6824 174.422 94.8744 174.89C95.0664 175.346 95.1624 175.892 95.1624 176.528V182H92.8224V176.942C92.8224 176.186 92.6364 175.634 92.2644 175.286C91.9044 174.926 91.3104 174.746 90.4824 174.746C89.8584 174.746 89.2944 174.866 88.7904 175.106C88.2864 175.346 87.8784 175.652 87.5664 176.024C87.2544 176.384 87.0744 176.762 87.0264 177.158L87.0084 176.24C87.0684 175.82 87.2064 175.412 87.4224 175.016C87.6384 174.62 87.9264 174.26 88.2864 173.936C88.6584 173.6 89.0964 173.336 89.6004 173.144C90.1044 172.952 90.6744 172.856 91.3104 172.856ZM110.563 172.982V184.61H108.223V174.872L108.925 175.124L103.525 181.19L103.183 180.398H108.511V182.198H101.401V180.398L108.223 172.982H110.563ZM110.275 182.198V180.398H112.633V182.198H110.275Z" fill="#52525B"/>
<rect x="16" y="199" width="300" height="1" fill="#D4D4D8"/>
</g>
<defs>
<filter id="filter0_d_157_2068" x="0" y="0" width="332" height="234" filterUnits="userSpaceOnUse" color-interpolation-filters="sRGB">
<feFlood flood-opacity="0" result="BackgroundImageFix"/>
<feColorMatrix in="SourceAlpha" type="matrix" values="0 0 0 0 0 0 0 0 0 0 0 0 0 0 0 0 0 0 127 0" result="hardAlpha"/>
<feOffset dy="4"/>
<feGaussianBlur stdDeviation="8"/>
<feComposite in2="hardAlpha" operator="out"/>
<feColorMatrix type="matrix" values="0 0 0 0 0 0 0 0 0 0 0 0 0 0 0 0 0 0 0.1 0"/>
<feBlend mode="normal" in2="BackgroundImageFix" result="effect1_dropShadow_157_2068"/>
<feBlend mode="normal" in="SourceGraphic" in2="effect1_dropShadow_157_2068" result="shape"/>
</filter>
</defs>
</svg>
