<svg viewBox="0 0 756 829" fill="none" xmlns="http://www.w3.org/2000/svg">
<g clip-path="url(#clip0_157_2205)">
<rect width="756" height="829" fill="url(#paint0_linear_157_2205)"/>
<path d="M252.445 795.053C148.274 813.416 121.097 882.051 120.529 914.073H809.043V605.471C799.965 587.051 764.277 550.211 694.149 550.211C606.489 550.211 553.723 671.782 504.361 642.877C454.999 613.972 427.765 653.079 415.85 671.782C403.935 690.485 382.658 772.099 252.445 795.053Z" fill="white" fill-opacity="0.5"/>
<path d="M583.213 314.74C573.728 281.745 609.182 261.713 628.094 255.821C662.085 235.62 707.696 255.821 704.309 278.547C700.921 301.273 724.632 310.531 728.866 358.508C733.101 406.484 665.355 382.917 650.959 367.766C636.563 352.616 595.068 355.983 583.213 314.74Z" fill="white" fill-opacity="0.5"/>
<path d="M195.558 783.031C133.676 794.591 84.2046 875.681 67.2041 914.78V925.83L808.425 936.03C811.258 819.864 815.225 571.043 808.425 505.083C799.924 422.634 670.721 409.034 647.77 414.984C624.82 420.934 572.118 443.884 555.118 533.983C538.117 624.083 479.466 606.233 440.364 628.333C401.263 650.432 392.763 698.882 349.412 739.682C306.061 780.481 272.91 768.581 195.558 783.031Z" fill="white" fill-opacity="0.4"/>
<path d="M186.315 689.81C55.6768 692.529 -8.16808 840.489 -23.7607 914.129L831 964.261L819.093 310.848C794.996 286.207 741.527 232.506 720.434 214.833C694.069 192.741 607.317 179.146 574.147 223.33C540.977 267.514 526.518 309.149 537.575 437.452C548.632 565.755 518.864 553.86 493.349 583.599C467.833 613.338 407.447 589.547 375.978 611.639C344.509 633.731 349.613 686.412 186.315 689.81Z" fill="white" fill-opacity="0.3"/>
<path d="M74.2074 608.796C0.502914 626.314 -86.6411 681.182 -121 706.426L-115.527 804.057C-92.4182 766.951 -39.6332 688.543 -13.3623 671.754C19.4763 650.768 119.817 631.606 193.703 618.832C267.59 606.058 270.327 545.837 290.395 515.727C310.463 485.616 363.37 471.93 404.418 463.718C445.466 455.506 478.305 393.46 460.973 337.802C443.642 282.143 449.524 244.213 460.061 207.323C471.007 169.001 541.246 127.029 597.801 110.605C654.356 94.1809 667.127 108.78 720.946 93.2684C764.001 80.8593 780.846 80.1902 783.887 81.4067C791.792 50.0797 798.664 -4.36237 762.906 28.4854C718.209 69.5451 502.934 88.7062 431.784 145.277C360.633 201.848 392.56 294.917 395.296 362.437C398.033 429.958 303.166 462.806 273.976 472.842C244.786 482.879 227.454 521.202 211.947 553.137C196.44 585.072 166.338 586.897 74.2074 608.796Z" fill="#CCBEF4"/>
<path d="M154.644 473.527C111.402 534.682 3.574 559.388 -44.9346 564.097L-34.9557 -77.3662L684.357 -69.888C683.803 -44.9607 657.248 6.55576 555.463 13.203C428.232 21.5121 448.19 75.5213 372.516 126.207C296.843 176.892 331.769 254.167 341.748 274.109C351.727 294.051 386.653 344.736 310.148 353.045C233.984 361.318 208.919 396.766 155.363 472.509L154.644 473.527Z" fill="white" fill-opacity="0.3"/>
<path d="M148.522 439.621C129.24 510.106 23.0185 540.472 -27.6816 546.845L-26.0193 -63.251H430.282C423.91 -58.5409 410.335 -42.6374 407.01 -16.7042C402.854 15.7123 353.816 48.9601 330.544 59.7656C307.272 70.5711 253.247 102.156 284 178.626C314.752 255.096 289.818 272.551 292.311 293.331C294.805 314.111 247.429 317.435 233.3 323.254C219.17 329.072 172.626 351.514 148.522 439.621Z" fill="white" fill-opacity="0.3"/>
<path d="M67.5299 449.13C41.5931 496.71 -2.99994 504.64 -22.0544 502.657L-23.7607 88.8809C-6.98147 90.2969 26.0652 106.553 24.0175 160.251C21.458 227.373 100.804 199.335 118.721 220.576C136.638 241.817 160.527 229.072 172.471 263.058C184.416 297.044 158.821 306.39 118.721 327.631C78.6213 348.872 99.9509 389.655 67.5299 449.13Z" fill="white" fill-opacity="0.5"/>
<path d="M31.1422 419.363C26.4236 435.362 -6.77491 439.918 -22.7843 440.196C-24.1129 346.586 -25.9729 159.7 -22.7843 161.033C-18.7986 162.7 -12.6731 164.366 -11.8305 191.033C-10.9879 217.699 -4.2471 229.365 0.808514 246.032C5.86413 262.698 42.096 261.865 37.0404 289.364C31.9848 316.864 20.1884 330.197 34.5126 360.197C48.8368 390.196 37.0404 399.363 31.1422 419.363Z" fill="white" fill-opacity="0.75"/>
<path d="M52.6092 34.975C31.9842 2.50166 -5.32951 -6.16894 -21.4082 -6.44507L-20.5765 -56.9775H323.729C325.67 -53.9401 327.222 -39.7468 317.908 -7.27348C306.265 33.3182 222.267 20.0638 233.91 68.9394C245.554 117.815 215.614 123.614 192.328 102.075C169.041 80.537 141.597 87.1642 126.627 87.9926C111.657 88.821 78.3906 75.5666 52.6092 34.975Z" fill="white" fill-opacity="0.5"/>
<path d="M58.7723 -45.4253C75.3633 -32.9454 73.7042 -2.99378 89.4657 16.974C96.3023 25.6351 114.015 36.155 134.222 46.0937C151.283 54.4856 160.168 70.783 175.739 76.8773C184.135 79.9893 203.944 90.1891 213.898 83.5332C223.024 75.2133 183.886 34.9281 203.944 27.7899C229.66 18.638 195.648 -12.9777 229.66 -15.4736C256.869 -17.4704 268.096 -42.3747 270.308 -54.5772L236.296 -55.4092L52.1359 -54.5772C48.8177 -55.6865 45.4994 -55.4092 58.7723 -45.4253Z" fill="white" fill-opacity="0.75"/>
<circle cx="430" cy="357" r="4" fill="#885EC0"/>
<path d="M688 429C688 431.209 686.209 433 684 433C681.791 433 680 431.209 680 429C680 426.791 681.791 425 684 425C686.209 425 688 426.791 688 429Z" fill="#885EC0"/>
<path d="M546 703C546 705.209 544.209 707 542 707C539.791 707 538 705.209 538 703C538 700.791 539.791 699 542 699C544.209 699 546 700.791 546 703Z" fill="#885EC0"/>
<path d="M350 599C350 601.209 348.209 603 346 603C343.791 603 342 601.209 342 599C342 596.791 343.791 595 346 595C348.209 595 350 596.791 350 599Z" fill="#885EC0"/>
<path d="M346 603C346 605.209 344.209 607 342 607C339.791 607 338 605.209 338 603C338 600.791 339.791 599 342 599C344.209 599 346 600.791 346 603Z" fill="#885EC0"/>
<path d="M428 644C428 646.209 426.209 648 424 648C421.791 648 420 646.209 420 644C420 641.791 421.791 640 424 640C426.209 640 428 641.791 428 644Z" fill="#885EC0"/>
<path d="M233 790C233 792.209 231.209 794 229 794C226.791 794 225 792.209 225 790C225 787.791 226.791 786 229 786C231.209 786 233 787.791 233 790Z" fill="#885EC0"/>
<path d="M208 683C208 685.209 206.209 687 204 687C201.791 687 200 685.209 200 683C200 680.791 201.791 679 204 679C206.209 679 208 680.791 208 683Z" fill="#885EC0"/>
<path d="M253 269C253 271.209 251.209 273 249 273C246.791 273 245 271.209 245 269C245 266.791 246.791 265 249 265C251.209 265 253 266.791 253 269Z" fill="#885EC0"/>
<path d="M377 210C377 212.209 375.209 214 373 214C370.791 214 369 212.209 369 210C369 207.791 370.791 206 373 206C375.209 206 377 207.791 377 210Z" fill="#885EC0"/>
<path d="M166 95C166 97.2091 164.209 99 162 99C159.791 99 158 97.2091 158 95C158 92.7909 159.791 91 162 91C164.209 91 166 92.7909 166 95Z" fill="#885EC0"/>
<path d="M78 194C78 196.209 76.2091 198 74 198C71.7909 198 70 196.209 70 194C70 191.791 71.7909 190 74 190C76.2091 190 78 191.791 78 194Z" fill="#885EC0"/>
<g clip-path="url(#clip1_157_2205)">
<path fill-rule="evenodd" clip-rule="evenodd" d="M722.562 36.5C723.736 36.5 724.898 36.2688 725.983 35.8197C727.067 35.3705 728.052 34.7122 728.882 33.8823C729.712 33.0523 730.371 32.0671 730.82 30.9827C731.269 29.8984 731.5 28.7362 731.5 27.5625C731.5 26.3888 731.269 25.2266 730.82 24.1423C730.371 23.0579 729.712 22.0727 728.882 21.2427C728.052 20.4128 727.067 19.7545 725.983 19.3053C724.898 18.8562 723.736 18.625 722.562 18.625C720.192 18.625 717.919 19.5666 716.243 21.2427C714.567 22.9188 713.625 25.1921 713.625 27.5625C713.625 29.9329 714.567 32.2062 716.243 33.8823C717.919 35.5584 720.192 36.5 722.562 36.5ZM733.125 27.5625C733.125 30.3638 732.012 33.0505 730.031 35.0313C728.05 37.0122 725.364 38.125 722.562 38.125C719.761 38.125 717.075 37.0122 715.094 35.0313C713.113 33.0505 712 30.3638 712 27.5625C712 24.7612 713.113 22.0745 715.094 20.0937C717.075 18.1128 719.761 17 722.562 17C725.364 17 728.05 18.1128 730.031 20.0937C732.012 22.0745 733.125 24.7612 733.125 27.5625Z" fill="#A1A1AA"/>
<path d="M728.809 36.0807C728.856 36.1457 728.909 36.208 728.968 36.2676L735.224 42.5239C735.529 42.8288 735.942 43.0002 736.373 43.0003C736.804 43.0005 737.218 42.8294 737.523 42.5247C737.828 42.22 737.999 41.8066 737.999 41.3756C737.999 40.9445 737.828 40.531 737.523 40.2261L731.267 33.9699C731.209 33.911 731.147 33.8567 731.08 33.8074C730.444 34.6772 729.677 35.4444 728.809 36.0824V36.0807Z" fill="#A1A1AA"/>
<path fill-rule="evenodd" clip-rule="evenodd" d="M722.562 21.875C722.778 21.875 722.985 21.9606 723.137 22.113C723.289 22.2653 723.375 22.472 723.375 22.6875V26.75H727.438C727.653 26.75 727.86 26.8356 728.012 26.988C728.164 27.1403 728.25 27.347 728.25 27.5625C728.25 27.778 728.164 27.9847 728.012 28.137C727.86 28.2894 727.653 28.375 727.438 28.375H723.375V32.4375C723.375 32.653 723.289 32.8597 723.137 33.012C722.985 33.1644 722.778 33.25 722.562 33.25C722.347 33.25 722.14 33.1644 721.988 33.012C721.836 32.8597 721.75 32.653 721.75 32.4375V28.375H717.688C717.472 28.375 717.265 28.2894 717.113 28.137C716.961 27.9847 716.875 27.778 716.875 27.5625C716.875 27.347 716.961 27.1403 717.113 26.988C717.265 26.8356 717.472 26.75 717.688 26.75H721.75V22.6875C721.75 22.472 721.836 22.2653 721.988 22.113C722.14 21.9606 722.347 21.875 722.562 21.875Z" fill="#A1A1AA"/>
</g>
<g clip-path="url(#clip2_157_2205)">
<path fill-rule="evenodd" clip-rule="evenodd" d="M28.5625 37.5C29.7362 37.5 30.8984 37.2688 31.9827 36.8197C33.0671 36.3705 34.0523 35.7122 34.8823 34.8823C35.7122 34.0523 36.3705 33.0671 36.8197 31.9827C37.2688 30.8984 37.5 29.7362 37.5 28.5625C37.5 27.3888 37.2688 26.2266 36.8197 25.1423C36.3705 24.0579 35.7122 23.0727 34.8823 22.2427C34.0523 21.4128 33.0671 20.7545 31.9827 20.3053C30.8984 19.8562 29.7362 19.625 28.5625 19.625C26.1921 19.625 23.9188 20.5666 22.2427 22.2427C20.5666 23.9188 19.625 26.1921 19.625 28.5625C19.625 30.9329 20.5666 33.2062 22.2427 34.8823C23.9188 36.5584 26.1921 37.5 28.5625 37.5ZM39.125 28.5625C39.125 31.3638 38.0122 34.0505 36.0313 36.0313C34.0505 38.0122 31.3638 39.125 28.5625 39.125C25.7612 39.125 23.0745 38.0122 21.0937 36.0313C19.1128 34.0505 18 31.3638 18 28.5625C18 25.7612 19.1128 23.0745 21.0937 21.0937C23.0745 19.1128 25.7612 18 28.5625 18C31.3638 18 34.0505 19.1128 36.0313 21.0937C38.0122 23.0745 39.125 25.7612 39.125 28.5625Z" fill="#A1A1AA"/>
<path d="M34.8086 37.0807C34.8563 37.1457 34.9093 37.208 34.9678 37.2676L41.2241 43.5239C41.5288 43.8288 41.9421 44.0002 42.3732 44.0003C42.8043 44.0005 43.2177 43.8294 43.5227 43.5247C43.8276 43.22 43.999 42.8066 43.9991 42.3756C43.9993 41.9445 43.8282 41.531 43.5235 41.2261L37.2672 34.9699C37.2092 34.911 37.1467 34.8567 37.0803 34.8074C36.4436 35.6772 35.6775 36.4444 34.8086 37.0824V37.0807Z" fill="#A1A1AA"/>
<path fill-rule="evenodd" clip-rule="evenodd" d="M22.875 28.5625C22.875 28.347 22.9606 28.1403 23.113 27.988C23.2653 27.8356 23.472 27.75 23.6875 27.75H33.4375C33.653 27.75 33.8597 27.8356 34.012 27.988C34.1644 28.1403 34.25 28.347 34.25 28.5625C34.25 28.778 34.1644 28.9847 34.012 29.137C33.8597 29.2894 33.653 29.375 33.4375 29.375H23.6875C23.472 29.375 23.2653 29.2894 23.113 29.137C22.9606 28.9847 22.875 28.778 22.875 28.5625Z" fill="#A1A1AA"/>
</g>
<rect x="53" y="27" width="650" height="4" rx="2" fill="#27272A" fill-opacity="0.15"/>
<circle cx="560" cy="29" r="5" fill="#3F3F46"/>
</g>
<defs>
<linearGradient id="paint0_linear_157_2205" x1="756" y1="3.59858e-05" x2="57.3711" y2="874.817" gradientUnits="userSpaceOnUse">
<stop stop-color="#E2DBF9"/>
<stop offset="0.632954" stop-color="#E2DBF9"/>
<stop offset="1" stop-color="#F4F4F5"/>
</linearGradient>
<clipPath id="clip0_157_2205">
<rect width="756" height="829" fill="white"/>
</clipPath>
<clipPath id="clip1_157_2205">
<rect width="26" height="26" fill="white" transform="translate(712 17)"/>
</clipPath>
<clipPath id="clip2_157_2205">
<rect width="26" height="26" fill="white" transform="translate(18 18)"/>
</clipPath>
</defs>
</svg>
