<svg viewBox="0 0 756 829" fill="none" xmlns="http://www.w3.org/2000/svg">
<g clip-path="url(#clip0_152_2498)">
<rect width="756" height="829" fill="url(#paint0_linear_152_2498)"/>
<path d="M252.444 795.053C148.274 813.416 121.096 882.051 120.529 914.073H809.043V605.471C799.965 587.051 764.277 550.211 694.149 550.211C606.489 550.211 553.723 671.782 504.361 642.877C454.999 613.972 427.764 653.079 415.85 671.782C403.935 690.485 382.658 772.099 252.444 795.053Z" fill="black" fill-opacity="0.5"/>
<path d="M583.212 314.74C573.728 281.745 609.181 261.713 628.094 255.821C662.085 235.62 707.695 255.821 704.308 278.547C700.921 301.273 724.632 310.531 728.866 358.508C733.1 406.484 665.354 382.917 650.958 367.766C636.562 352.616 595.068 355.983 583.212 314.74Z" fill="black" fill-opacity="0.5"/>
<path d="M195.558 783.031C133.676 794.591 84.2047 875.681 67.2042 914.78V925.83L808.425 936.03C811.258 819.864 815.225 571.043 808.425 505.083C799.925 422.634 670.721 409.034 647.77 414.984C624.82 420.934 572.118 443.884 555.118 533.983C538.117 624.083 479.466 606.233 440.365 628.333C401.263 650.432 392.763 698.882 349.412 739.682C306.061 780.481 272.91 768.581 195.558 783.031Z" fill="black" fill-opacity="0.4"/>
<path d="M186.314 689.81C55.6763 692.529 -8.16857 840.489 -23.7612 914.129L831 964.261L819.093 310.848C794.995 286.207 741.526 232.506 720.434 214.833C694.068 192.741 607.316 179.146 574.146 223.33C540.977 267.514 526.518 309.149 537.574 437.452C548.631 565.755 518.863 553.86 493.348 583.599C467.833 613.338 407.447 589.547 375.978 611.639C344.509 633.731 349.612 686.412 186.314 689.81Z" fill="black" fill-opacity="0.3"/>
<path d="M74.2074 608.796C0.502907 626.314 -86.6411 681.182 -121 706.426L-115.527 804.057C-92.4182 766.951 -39.6332 688.543 -13.3623 671.754C19.4763 650.768 119.817 631.606 193.703 618.832C267.59 606.058 270.327 545.837 290.395 515.727C310.463 485.616 363.37 471.93 404.418 463.718C445.466 455.506 478.305 393.46 460.973 337.802C443.642 282.143 449.524 244.213 460.061 207.323C471.007 169.001 541.246 127.029 597.801 110.605C654.356 94.1809 667.127 108.78 720.946 93.2684C764.001 80.8593 780.846 80.1902 783.887 81.4067C791.792 50.0797 798.664 -4.36237 762.906 28.4854C718.209 69.5451 502.934 88.7062 431.784 145.277C360.633 201.848 392.56 294.917 395.296 362.437C398.033 429.958 303.166 462.806 273.976 472.842C244.786 482.879 227.454 521.202 211.947 553.137C196.44 585.072 166.338 586.897 74.2074 608.796Z" fill="#6941AD" fill-opacity="0.3"/>
<path d="M154.644 473.527C111.402 534.682 3.57436 559.388 -44.9342 564.097L-34.9553 -77.3662L684.357 -69.888C683.803 -44.9607 657.248 6.55576 555.463 13.203C428.232 21.5121 448.19 75.5213 372.517 126.207C296.843 176.892 331.769 254.167 341.748 274.109C351.727 294.051 386.653 344.736 310.149 353.045C233.984 361.318 208.919 396.766 155.364 472.509L154.644 473.527Z" fill="black" fill-opacity="0.3"/>
<path d="M148.522 439.621C129.239 510.106 23.018 540.472 -27.6821 546.845L-26.0198 -63.251H430.282C423.91 -58.5409 410.334 -42.6374 407.009 -16.7042C402.854 15.7123 353.816 48.9601 330.544 59.7656C307.271 70.5711 253.247 102.156 283.999 178.626C314.752 255.096 289.817 272.551 292.311 293.331C294.804 314.111 247.429 317.435 233.299 323.254C219.17 329.072 172.625 351.514 148.522 439.621Z" fill="black" fill-opacity="0.3"/>
<path d="M67.5294 449.13C41.5926 496.71 -3.00043 504.64 -22.0549 502.657L-23.7612 88.8809C-6.98196 90.2969 26.0647 106.553 24.017 160.251C21.4575 227.373 100.804 199.335 118.72 220.576C136.637 241.817 160.526 229.072 172.471 263.058C184.416 297.044 158.82 306.39 118.72 327.631C78.6208 348.872 99.9504 389.655 67.5294 449.13Z" fill="black" fill-opacity="0.5"/>
<path d="M31.1419 419.363C26.4234 435.362 -6.77515 439.918 -22.7846 440.196C-24.1132 346.586 -25.9732 159.7 -22.7846 161.033C-18.7989 162.7 -12.6734 164.366 -11.8308 191.033C-10.9882 217.699 -4.24734 229.365 0.80827 246.032C5.86388 262.698 42.0958 261.865 37.0402 289.364C31.9845 316.864 20.1881 330.197 34.5124 360.197C48.8366 390.196 37.0402 399.363 31.1419 419.363Z" fill="black" fill-opacity="0.75"/>
<path d="M52.6089 34.975C31.9838 2.50166 -5.32987 -6.16894 -21.4086 -6.44507L-20.5769 -56.9775H323.729C325.669 -53.9401 327.222 -39.7468 317.907 -7.27348C306.264 33.3182 222.267 20.0638 233.91 68.9394C245.553 117.815 215.614 123.614 192.327 102.075C169.041 80.537 141.596 87.1642 126.626 87.9926C111.656 88.821 78.3902 75.5666 52.6089 34.975Z" fill="black" fill-opacity="0.5"/>
<path d="M58.7723 -45.4253C75.3633 -32.9454 73.7042 -2.99378 89.4657 16.974C96.3023 25.6351 114.015 36.155 134.222 46.0937C151.283 54.4856 160.168 70.783 175.739 76.8773C184.135 79.9893 203.944 90.1891 213.898 83.5332C223.024 75.2133 183.886 34.9281 203.944 27.7899C229.66 18.638 195.648 -12.9777 229.66 -15.4736C256.869 -17.4704 268.096 -42.3747 270.308 -54.5772L236.296 -55.4092L52.1359 -54.5772C48.8177 -55.6865 45.4994 -55.4092 58.7723 -45.4253Z" fill="black" fill-opacity="0.75"/>
<circle cx="430" cy="357" r="4" fill="#B399EC"/>
<path d="M688 429C688 431.209 686.209 433 684 433C681.791 433 680 431.209 680 429C680 426.791 681.791 425 684 425C686.209 425 688 426.791 688 429Z" fill="#B399EC"/>
<path d="M546 703C546 705.209 544.209 707 542 707C539.791 707 538 705.209 538 703C538 700.791 539.791 699 542 699C544.209 699 546 700.791 546 703Z" fill="#B399EC"/>
<path d="M350 599C350 601.209 348.209 603 346 603C343.791 603 342 601.209 342 599C342 596.791 343.791 595 346 595C348.209 595 350 596.791 350 599Z" fill="#B399EC"/>
<path d="M346 603C346 605.209 344.209 607 342 607C339.791 607 338 605.209 338 603C338 600.791 339.791 599 342 599C344.209 599 346 600.791 346 603Z" fill="#B399EC"/>
<path d="M428 644C428 646.209 426.209 648 424 648C421.791 648 420 646.209 420 644C420 641.791 421.791 640 424 640C426.209 640 428 641.791 428 644Z" fill="#B399EC"/>
<path d="M233 790C233 792.209 231.209 794 229 794C226.791 794 225 792.209 225 790C225 787.791 226.791 786 229 786C231.209 786 233 787.791 233 790Z" fill="#B399EC"/>
<path d="M208 683C208 685.209 206.209 687 204 687C201.791 687 200 685.209 200 683C200 680.791 201.791 679 204 679C206.209 679 208 680.791 208 683Z" fill="#B399EC"/>
<path d="M253 269C253 271.209 251.209 273 249 273C246.791 273 245 271.209 245 269C245 266.791 246.791 265 249 265C251.209 265 253 266.791 253 269Z" fill="#B399EC"/>
<path d="M377 210C377 212.209 375.209 214 373 214C370.791 214 369 212.209 369 210C369 207.791 370.791 206 373 206C375.209 206 377 207.791 377 210Z" fill="#B399EC"/>
<path d="M166 95C166 97.2091 164.209 99 162 99C159.791 99 158 97.2091 158 95C158 92.7909 159.791 91 162 91C164.209 91 166 92.7909 166 95Z" fill="#B399EC"/>
<path d="M78 194C78 196.209 76.2091 198 74 198C71.7909 198 70 196.209 70 194C70 191.791 71.7909 190 74 190C76.2091 190 78 191.791 78 194Z" fill="#B399EC"/>
<g clip-path="url(#clip1_152_2498)">
<path fill-rule="evenodd" clip-rule="evenodd" d="M298.562 37.5C299.736 37.5 300.898 37.2688 301.983 36.8197C303.067 36.3705 304.052 35.7122 304.882 34.8823C305.712 34.0523 306.371 33.0671 306.82 31.9827C307.269 30.8984 307.5 29.7362 307.5 28.5625C307.5 27.3888 307.269 26.2266 306.82 25.1423C306.371 24.0579 305.712 23.0727 304.882 22.2427C304.052 21.4128 303.067 20.7545 301.983 20.3053C300.898 19.8562 299.736 19.625 298.562 19.625C296.192 19.625 293.919 20.5666 292.243 22.2427C290.567 23.9188 289.625 26.1921 289.625 28.5625C289.625 30.9329 290.567 33.2062 292.243 34.8823C293.919 36.5584 296.192 37.5 298.562 37.5ZM309.125 28.5625C309.125 31.3638 308.012 34.0505 306.031 36.0313C304.05 38.0122 301.364 39.125 298.562 39.125C295.761 39.125 293.075 38.0122 291.094 36.0313C289.113 34.0505 288 31.3638 288 28.5625C288 25.7612 289.113 23.0745 291.094 21.0937C293.075 19.1128 295.761 18 298.562 18C301.364 18 304.05 19.1128 306.031 21.0937C308.012 23.0745 309.125 25.7612 309.125 28.5625Z" fill="#A1A1AA"/>
<path d="M304.809 37.0807C304.857 37.1457 304.91 37.208 304.968 37.2676L311.224 43.5239C311.529 43.8288 311.943 44.0002 312.374 44.0003C312.805 44.0005 313.218 43.8294 313.523 43.5247C313.828 43.22 313.999 42.8066 313.999 42.3756C314 41.9445 313.829 41.531 313.524 41.2261L307.268 34.9699C307.21 34.911 307.147 34.8567 307.081 34.8074C306.444 35.6772 305.678 36.4444 304.809 37.0824V37.0807Z" fill="#A1A1AA"/>
<path fill-rule="evenodd" clip-rule="evenodd" d="M298.562 22.875C298.778 22.875 298.985 22.9606 299.137 23.113C299.289 23.2653 299.375 23.472 299.375 23.6875V27.75H303.438C303.653 27.75 303.86 27.8356 304.012 27.988C304.164 28.1403 304.25 28.347 304.25 28.5625C304.25 28.778 304.164 28.9847 304.012 29.137C303.86 29.2894 303.653 29.375 303.438 29.375H299.375V33.4375C299.375 33.653 299.289 33.8597 299.137 34.012C298.985 34.1644 298.778 34.25 298.562 34.25C298.347 34.25 298.14 34.1644 297.988 34.012C297.836 33.8597 297.75 33.653 297.75 33.4375V29.375H293.688C293.472 29.375 293.265 29.2894 293.113 29.137C292.961 28.9847 292.875 28.778 292.875 28.5625C292.875 28.347 292.961 28.1403 293.113 27.988C293.265 27.8356 293.472 27.75 293.688 27.75H297.75V23.6875C297.75 23.472 297.836 23.2653 297.988 23.113C298.14 22.9606 298.347 22.875 298.562 22.875Z" fill="#A1A1AA"/>
</g>
<g clip-path="url(#clip2_152_2498)">
<path fill-rule="evenodd" clip-rule="evenodd" d="M28.5625 38.5C29.7362 38.5 30.8984 38.2688 31.9827 37.8197C33.0671 37.3705 34.0523 36.7122 34.8823 35.8823C35.7122 35.0523 36.3705 34.0671 36.8197 32.9827C37.2688 31.8984 37.5 30.7362 37.5 29.5625C37.5 28.3888 37.2688 27.2266 36.8197 26.1423C36.3705 25.0579 35.7122 24.0727 34.8823 23.2427C34.0523 22.4128 33.0671 21.7545 31.9827 21.3053C30.8984 20.8562 29.7362 20.625 28.5625 20.625C26.1921 20.625 23.9188 21.5666 22.2427 23.2427C20.5666 24.9188 19.625 27.1921 19.625 29.5625C19.625 31.9329 20.5666 34.2062 22.2427 35.8823C23.9188 37.5584 26.1921 38.5 28.5625 38.5ZM39.125 29.5625C39.125 32.3638 38.0122 35.0505 36.0313 37.0313C34.0505 39.0122 31.3638 40.125 28.5625 40.125C25.7612 40.125 23.0745 39.0122 21.0937 37.0313C19.1128 35.0505 18 32.3638 18 29.5625C18 26.7612 19.1128 24.0745 21.0937 22.0937C23.0745 20.1128 25.7612 19 28.5625 19C31.3638 19 34.0505 20.1128 36.0313 22.0937C38.0122 24.0745 39.125 26.7612 39.125 29.5625Z" fill="#A1A1AA"/>
<path d="M34.809 38.0807C34.8566 38.1457 34.9097 38.208 34.9682 38.2676L41.2245 44.5239C41.5292 44.8288 41.9425 45.0002 42.3736 45.0003C42.8046 45.0005 43.2181 44.8294 43.523 44.5247C43.8279 44.22 43.9993 43.8066 43.9995 43.3756C43.9996 42.9445 43.8285 42.531 43.5238 42.2261L37.2676 35.9699C37.2095 35.911 37.147 35.8567 37.0807 35.8074C36.444 36.6772 35.6779 37.4444 34.809 38.0824V38.0807Z" fill="#A1A1AA"/>
<path fill-rule="evenodd" clip-rule="evenodd" d="M22.875 29.5625C22.875 29.347 22.9606 29.1403 23.113 28.988C23.2653 28.8356 23.472 28.75 23.6875 28.75H33.4375C33.653 28.75 33.8597 28.8356 34.012 28.988C34.1644 29.1403 34.25 29.347 34.25 29.5625C34.25 29.778 34.1644 29.9847 34.012 30.137C33.8597 30.2894 33.653 30.375 33.4375 30.375H23.6875C23.472 30.375 23.2653 30.2894 23.113 30.137C22.9606 29.9847 22.875 29.778 22.875 29.5625Z" fill="#A1A1AA"/>
</g>
<rect x="53" y="28" width="222" height="4" rx="2" fill="#9A70E2" fill-opacity="0.25"/>
<circle cx="225" cy="30" r="5" fill="#885EC0"/>
</g>
<defs>
<linearGradient id="paint0_linear_152_2498" x1="756" y1="3.59858e-05" x2="57.3711" y2="874.817" gradientUnits="userSpaceOnUse">
<stop stop-color="#27272A"/>
<stop offset="0.5" stop-color="#27272A"/>
<stop offset="1" stop-color="#09090B"/>
</linearGradient>
<clipPath id="clip0_152_2498">
<rect width="756" height="829" fill="white"/>
</clipPath>
<clipPath id="clip1_152_2498">
<rect width="26" height="26" fill="white" transform="translate(288 18)"/>
</clipPath>
<clipPath id="clip2_152_2498">
<rect width="26" height="26" fill="white" transform="translate(18 19)"/>
</clipPath>
</defs>
</svg>
