<svg viewBox="0 0 756 829" fill="none" xmlns="http://www.w3.org/2000/svg">
<g clip-path="url(#clip0_157_2277)">
<rect width="756" height="829" fill="url(#paint0_linear_157_2277)"/>
<path d="M0 531.353L756 187V952H0V531.353Z" fill="#AE8AED" fill-opacity="0.1"/>
<rect x="390" y="64" width="300" height="72" rx="36" fill="#9F7BDC"/>
<path d="M496.848 107.5V91.972H505.8C507.88 91.972 509.456 92.324 510.528 93.028C511.616 93.716 512.16 94.748 512.16 96.124C512.16 97.004 511.944 97.7 511.512 98.212C511.08 98.708 510.464 99.076 509.664 99.316C508.88 99.556 507.952 99.708 506.88 99.772L506.976 99.604C507.76 99.62 508.496 99.676 509.184 99.772C509.888 99.868 510.504 100.044 511.032 100.3C511.56 100.556 511.976 100.916 512.28 101.38C512.584 101.828 512.736 102.42 512.736 103.156C512.736 104.116 512.48 104.916 511.968 105.556C511.456 106.18 510.744 106.652 509.832 106.972C508.92 107.292 507.864 107.468 506.664 107.5H496.848ZM500.04 104.86H506.328C507.336 104.86 508.112 104.7 508.656 104.38C509.2 104.044 509.472 103.516 509.472 102.796C509.472 102.268 509.312 101.884 508.992 101.644C508.672 101.404 508.248 101.26 507.72 101.212C507.192 101.148 506.624 101.116 506.016 101.116H500.04V104.86ZM500.04 98.548H505.68C506.688 98.548 507.464 98.404 508.008 98.116C508.552 97.812 508.824 97.3 508.824 96.58C508.824 95.86 508.552 95.356 508.008 95.068C507.464 94.764 506.744 94.612 505.848 94.612H500.04V98.548ZM528.967 107.5H525.847V95.572H528.967V107.5ZM526.015 101.764L526.039 102.58C526.007 102.804 525.927 103.132 525.799 103.564C525.671 103.98 525.471 104.428 525.199 104.908C524.943 105.388 524.607 105.852 524.191 106.3C523.775 106.732 523.263 107.092 522.655 107.38C522.047 107.652 521.327 107.788 520.495 107.788C519.839 107.788 519.191 107.708 518.551 107.548C517.927 107.388 517.359 107.124 516.847 106.756C516.335 106.372 515.927 105.86 515.623 105.22C515.319 104.58 515.167 103.772 515.167 102.796V95.572H518.287V102.268C518.287 103.036 518.407 103.644 518.647 104.092C518.903 104.524 519.271 104.828 519.751 105.004C520.231 105.18 520.799 105.268 521.455 105.268C522.319 105.268 523.063 105.084 523.687 104.716C524.311 104.332 524.815 103.868 525.199 103.324C525.599 102.78 525.871 102.26 526.015 101.764ZM530.967 95.572H540.231V97.996H530.967V95.572ZM534.039 92.308H537.159V107.5H534.039V92.308ZM541.373 95.572H550.637V97.996H541.373V95.572ZM544.445 92.308H547.565V107.5H544.445V92.308ZM559.488 107.788C557.984 107.788 556.656 107.548 555.504 107.068C554.368 106.588 553.48 105.892 552.84 104.98C552.2 104.052 551.88 102.916 551.88 101.572C551.88 100.228 552.2 99.092 552.84 98.164C553.48 97.22 554.368 96.508 555.504 96.028C556.656 95.548 557.984 95.308 559.488 95.308C560.992 95.308 562.304 95.548 563.424 96.028C564.56 96.508 565.448 97.22 566.088 98.164C566.728 99.092 567.048 100.228 567.048 101.572C567.048 102.916 566.728 104.052 566.088 104.98C565.448 105.892 564.56 106.588 563.424 107.068C562.304 107.548 560.992 107.788 559.488 107.788ZM559.488 105.388C560.32 105.388 561.064 105.244 561.72 104.956C562.392 104.652 562.92 104.22 563.304 103.66C563.688 103.084 563.88 102.388 563.88 101.572C563.88 100.756 563.688 100.06 563.304 99.484C562.92 98.892 562.4 98.444 561.744 98.14C561.088 97.836 560.336 97.684 559.488 97.684C558.656 97.684 557.904 97.836 557.232 98.14C556.56 98.444 556.024 98.884 555.624 99.46C555.24 100.036 555.048 100.74 555.048 101.572C555.048 102.388 555.24 103.084 555.624 103.66C556.008 104.22 556.536 104.652 557.208 104.956C557.88 105.244 558.64 105.388 559.488 105.388ZM569.354 95.572H572.474V107.5H569.354V95.572ZM578.018 95.308C578.754 95.308 579.434 95.404 580.058 95.596C580.682 95.788 581.226 96.084 581.69 96.484C582.154 96.884 582.514 97.396 582.77 98.02C583.026 98.628 583.154 99.356 583.154 100.204V107.5H580.034V100.756C580.034 99.748 579.786 99.012 579.29 98.548C578.81 98.068 578.018 97.828 576.914 97.828C576.082 97.828 575.33 97.988 574.658 98.308C573.986 98.628 573.442 99.036 573.026 99.532C572.61 100.012 572.37 100.516 572.306 101.044L572.282 99.82C572.362 99.26 572.546 98.716 572.834 98.188C573.122 97.66 573.506 97.18 573.986 96.748C574.482 96.3 575.066 95.948 575.738 95.692C576.41 95.436 577.17 95.308 578.018 95.308Z" fill="#FAFAFA"/>
<rect x="391" y="161" width="298" height="70" rx="35" stroke="#9F7BDC" stroke-width="2"/>
<path d="M496.848 203.5V187.972H505.8C507.88 187.972 509.456 188.324 510.528 189.028C511.616 189.716 512.16 190.748 512.16 192.124C512.16 193.004 511.944 193.7 511.512 194.212C511.08 194.708 510.464 195.076 509.664 195.316C508.88 195.556 507.952 195.708 506.88 195.772L506.976 195.604C507.76 195.62 508.496 195.676 509.184 195.772C509.888 195.868 510.504 196.044 511.032 196.3C511.56 196.556 511.976 196.916 512.28 197.38C512.584 197.828 512.736 198.42 512.736 199.156C512.736 200.116 512.48 200.916 511.968 201.556C511.456 202.18 510.744 202.652 509.832 202.972C508.92 203.292 507.864 203.468 506.664 203.5H496.848ZM500.04 200.86H506.328C507.336 200.86 508.112 200.7 508.656 200.38C509.2 200.044 509.472 199.516 509.472 198.796C509.472 198.268 509.312 197.884 508.992 197.644C508.672 197.404 508.248 197.26 507.72 197.212C507.192 197.148 506.624 197.116 506.016 197.116H500.04V200.86ZM500.04 194.548H505.68C506.688 194.548 507.464 194.404 508.008 194.116C508.552 193.812 508.824 193.3 508.824 192.58C508.824 191.86 508.552 191.356 508.008 191.068C507.464 190.764 506.744 190.612 505.848 190.612H500.04V194.548ZM528.967 203.5H525.847V191.572H528.967V203.5ZM526.015 197.764L526.039 198.58C526.007 198.804 525.927 199.132 525.799 199.564C525.671 199.98 525.471 200.428 525.199 200.908C524.943 201.388 524.607 201.852 524.191 202.3C523.775 202.732 523.263 203.092 522.655 203.38C522.047 203.652 521.327 203.788 520.495 203.788C519.839 203.788 519.191 203.708 518.551 203.548C517.927 203.388 517.359 203.124 516.847 202.756C516.335 202.372 515.927 201.86 515.623 201.22C515.319 200.58 515.167 199.772 515.167 198.796V191.572H518.287V198.268C518.287 199.036 518.407 199.644 518.647 200.092C518.903 200.524 519.271 200.828 519.751 201.004C520.231 201.18 520.799 201.268 521.455 201.268C522.319 201.268 523.063 201.084 523.687 200.716C524.311 200.332 524.815 199.868 525.199 199.324C525.599 198.78 525.871 198.26 526.015 197.764ZM530.967 191.572H540.231V193.996H530.967V191.572ZM534.039 188.308H537.159V203.5H534.039V188.308ZM541.373 191.572H550.637V193.996H541.373V191.572ZM544.445 188.308H547.565V203.5H544.445V188.308ZM559.488 203.788C557.984 203.788 556.656 203.548 555.504 203.068C554.368 202.588 553.48 201.892 552.84 200.98C552.2 200.052 551.88 198.916 551.88 197.572C551.88 196.228 552.2 195.092 552.84 194.164C553.48 193.22 554.368 192.508 555.504 192.028C556.656 191.548 557.984 191.308 559.488 191.308C560.992 191.308 562.304 191.548 563.424 192.028C564.56 192.508 565.448 193.22 566.088 194.164C566.728 195.092 567.048 196.228 567.048 197.572C567.048 198.916 566.728 200.052 566.088 200.98C565.448 201.892 564.56 202.588 563.424 203.068C562.304 203.548 560.992 203.788 559.488 203.788ZM559.488 201.388C560.32 201.388 561.064 201.244 561.72 200.956C562.392 200.652 562.92 200.22 563.304 199.66C563.688 199.084 563.88 198.388 563.88 197.572C563.88 196.756 563.688 196.06 563.304 195.484C562.92 194.892 562.4 194.444 561.744 194.14C561.088 193.836 560.336 193.684 559.488 193.684C558.656 193.684 557.904 193.836 557.232 194.14C556.56 194.444 556.024 194.884 555.624 195.46C555.24 196.036 555.048 196.74 555.048 197.572C555.048 198.388 555.24 199.084 555.624 199.66C556.008 200.22 556.536 200.652 557.208 200.956C557.88 201.244 558.64 201.388 559.488 201.388ZM569.354 191.572H572.474V203.5H569.354V191.572ZM578.018 191.308C578.754 191.308 579.434 191.404 580.058 191.596C580.682 191.788 581.226 192.084 581.69 192.484C582.154 192.884 582.514 193.396 582.77 194.02C583.026 194.628 583.154 195.356 583.154 196.204V203.5H580.034V196.756C580.034 195.748 579.786 195.012 579.29 194.548C578.81 194.068 578.018 193.828 576.914 193.828C576.082 193.828 575.33 193.988 574.658 194.308C573.986 194.628 573.442 195.036 573.026 195.532C572.61 196.012 572.37 196.516 572.306 197.044L572.282 195.82C572.362 195.26 572.546 194.716 572.834 194.188C573.122 193.66 573.506 193.18 573.986 192.748C574.482 192.3 575.066 191.948 575.738 191.692C576.41 191.436 577.17 191.308 578.018 191.308Z" fill="#9F7BDC"/>
<rect x="390" y="256" width="300" height="72" rx="36" fill="url(#paint1_linear_157_2277)"/>
<path d="M496.848 299.5V283.972H505.8C507.88 283.972 509.456 284.324 510.528 285.028C511.616 285.716 512.16 286.748 512.16 288.124C512.16 289.004 511.944 289.7 511.512 290.212C511.08 290.708 510.464 291.076 509.664 291.316C508.88 291.556 507.952 291.708 506.88 291.772L506.976 291.604C507.76 291.62 508.496 291.676 509.184 291.772C509.888 291.868 510.504 292.044 511.032 292.3C511.56 292.556 511.976 292.916 512.28 293.38C512.584 293.828 512.736 294.42 512.736 295.156C512.736 296.116 512.48 296.916 511.968 297.556C511.456 298.18 510.744 298.652 509.832 298.972C508.92 299.292 507.864 299.468 506.664 299.5H496.848ZM500.04 296.86H506.328C507.336 296.86 508.112 296.7 508.656 296.38C509.2 296.044 509.472 295.516 509.472 294.796C509.472 294.268 509.312 293.884 508.992 293.644C508.672 293.404 508.248 293.26 507.72 293.212C507.192 293.148 506.624 293.116 506.016 293.116H500.04V296.86ZM500.04 290.548H505.68C506.688 290.548 507.464 290.404 508.008 290.116C508.552 289.812 508.824 289.3 508.824 288.58C508.824 287.86 508.552 287.356 508.008 287.068C507.464 286.764 506.744 286.612 505.848 286.612H500.04V290.548ZM528.967 299.5H525.847V287.572H528.967V299.5ZM526.015 293.764L526.039 294.58C526.007 294.804 525.927 295.132 525.799 295.564C525.671 295.98 525.471 296.428 525.199 296.908C524.943 297.388 524.607 297.852 524.191 298.3C523.775 298.732 523.263 299.092 522.655 299.38C522.047 299.652 521.327 299.788 520.495 299.788C519.839 299.788 519.191 299.708 518.551 299.548C517.927 299.388 517.359 299.124 516.847 298.756C516.335 298.372 515.927 297.86 515.623 297.22C515.319 296.58 515.167 295.772 515.167 294.796V287.572H518.287V294.268C518.287 295.036 518.407 295.644 518.647 296.092C518.903 296.524 519.271 296.828 519.751 297.004C520.231 297.18 520.799 297.268 521.455 297.268C522.319 297.268 523.063 297.084 523.687 296.716C524.311 296.332 524.815 295.868 525.199 295.324C525.599 294.78 525.871 294.26 526.015 293.764ZM530.967 287.572H540.231V289.996H530.967V287.572ZM534.039 284.308H537.159V299.5H534.039V284.308ZM541.373 287.572H550.637V289.996H541.373V287.572ZM544.445 284.308H547.565V299.5H544.445V284.308ZM559.488 299.788C557.984 299.788 556.656 299.548 555.504 299.068C554.368 298.588 553.48 297.892 552.84 296.98C552.2 296.052 551.88 294.916 551.88 293.572C551.88 292.228 552.2 291.092 552.84 290.164C553.48 289.22 554.368 288.508 555.504 288.028C556.656 287.548 557.984 287.308 559.488 287.308C560.992 287.308 562.304 287.548 563.424 288.028C564.56 288.508 565.448 289.22 566.088 290.164C566.728 291.092 567.048 292.228 567.048 293.572C567.048 294.916 566.728 296.052 566.088 296.98C565.448 297.892 564.56 298.588 563.424 299.068C562.304 299.548 560.992 299.788 559.488 299.788ZM559.488 297.388C560.32 297.388 561.064 297.244 561.72 296.956C562.392 296.652 562.92 296.22 563.304 295.66C563.688 295.084 563.88 294.388 563.88 293.572C563.88 292.756 563.688 292.06 563.304 291.484C562.92 290.892 562.4 290.444 561.744 290.14C561.088 289.836 560.336 289.684 559.488 289.684C558.656 289.684 557.904 289.836 557.232 290.14C556.56 290.444 556.024 290.884 555.624 291.46C555.24 292.036 555.048 292.74 555.048 293.572C555.048 294.388 555.24 295.084 555.624 295.66C556.008 296.22 556.536 296.652 557.208 296.956C557.88 297.244 558.64 297.388 559.488 297.388ZM569.354 287.572H572.474V299.5H569.354V287.572ZM578.018 287.308C578.754 287.308 579.434 287.404 580.058 287.596C580.682 287.788 581.226 288.084 581.69 288.484C582.154 288.884 582.514 289.396 582.77 290.02C583.026 290.628 583.154 291.356 583.154 292.204V299.5H580.034V292.756C580.034 291.748 579.786 291.012 579.29 290.548C578.81 290.068 578.018 289.828 576.914 289.828C576.082 289.828 575.33 289.988 574.658 290.308C573.986 290.628 573.442 291.036 573.026 291.532C572.61 292.012 572.37 292.516 572.306 293.044L572.282 291.82C572.362 291.26 572.546 290.716 572.834 290.188C573.122 289.66 573.506 289.18 573.986 288.748C574.482 288.3 575.066 287.948 575.738 287.692C576.41 287.436 577.17 287.308 578.018 287.308Z" fill="white"/>
<rect x="390" y="352" width="300" height="72" rx="36" fill="#71717A"/>
<path d="M496.848 395.5V379.972H505.8C507.88 379.972 509.456 380.324 510.528 381.028C511.616 381.716 512.16 382.748 512.16 384.124C512.16 385.004 511.944 385.7 511.512 386.212C511.08 386.708 510.464 387.076 509.664 387.316C508.88 387.556 507.952 387.708 506.88 387.772L506.976 387.604C507.76 387.62 508.496 387.676 509.184 387.772C509.888 387.868 510.504 388.044 511.032 388.3C511.56 388.556 511.976 388.916 512.28 389.38C512.584 389.828 512.736 390.42 512.736 391.156C512.736 392.116 512.48 392.916 511.968 393.556C511.456 394.18 510.744 394.652 509.832 394.972C508.92 395.292 507.864 395.468 506.664 395.5H496.848ZM500.04 392.86H506.328C507.336 392.86 508.112 392.7 508.656 392.38C509.2 392.044 509.472 391.516 509.472 390.796C509.472 390.268 509.312 389.884 508.992 389.644C508.672 389.404 508.248 389.26 507.72 389.212C507.192 389.148 506.624 389.116 506.016 389.116H500.04V392.86ZM500.04 386.548H505.68C506.688 386.548 507.464 386.404 508.008 386.116C508.552 385.812 508.824 385.3 508.824 384.58C508.824 383.86 508.552 383.356 508.008 383.068C507.464 382.764 506.744 382.612 505.848 382.612H500.04V386.548ZM528.967 395.5H525.847V383.572H528.967V395.5ZM526.015 389.764L526.039 390.58C526.007 390.804 525.927 391.132 525.799 391.564C525.671 391.98 525.471 392.428 525.199 392.908C524.943 393.388 524.607 393.852 524.191 394.3C523.775 394.732 523.263 395.092 522.655 395.38C522.047 395.652 521.327 395.788 520.495 395.788C519.839 395.788 519.191 395.708 518.551 395.548C517.927 395.388 517.359 395.124 516.847 394.756C516.335 394.372 515.927 393.86 515.623 393.22C515.319 392.58 515.167 391.772 515.167 390.796V383.572H518.287V390.268C518.287 391.036 518.407 391.644 518.647 392.092C518.903 392.524 519.271 392.828 519.751 393.004C520.231 393.18 520.799 393.268 521.455 393.268C522.319 393.268 523.063 393.084 523.687 392.716C524.311 392.332 524.815 391.868 525.199 391.324C525.599 390.78 525.871 390.26 526.015 389.764ZM530.967 383.572H540.231V385.996H530.967V383.572ZM534.039 380.308H537.159V395.5H534.039V380.308ZM541.373 383.572H550.637V385.996H541.373V383.572ZM544.445 380.308H547.565V395.5H544.445V380.308ZM559.488 395.788C557.984 395.788 556.656 395.548 555.504 395.068C554.368 394.588 553.48 393.892 552.84 392.98C552.2 392.052 551.88 390.916 551.88 389.572C551.88 388.228 552.2 387.092 552.84 386.164C553.48 385.22 554.368 384.508 555.504 384.028C556.656 383.548 557.984 383.308 559.488 383.308C560.992 383.308 562.304 383.548 563.424 384.028C564.56 384.508 565.448 385.22 566.088 386.164C566.728 387.092 567.048 388.228 567.048 389.572C567.048 390.916 566.728 392.052 566.088 392.98C565.448 393.892 564.56 394.588 563.424 395.068C562.304 395.548 560.992 395.788 559.488 395.788ZM559.488 393.388C560.32 393.388 561.064 393.244 561.72 392.956C562.392 392.652 562.92 392.22 563.304 391.66C563.688 391.084 563.88 390.388 563.88 389.572C563.88 388.756 563.688 388.06 563.304 387.484C562.92 386.892 562.4 386.444 561.744 386.14C561.088 385.836 560.336 385.684 559.488 385.684C558.656 385.684 557.904 385.836 557.232 386.14C556.56 386.444 556.024 386.884 555.624 387.46C555.24 388.036 555.048 388.74 555.048 389.572C555.048 390.388 555.24 391.084 555.624 391.66C556.008 392.22 556.536 392.652 557.208 392.956C557.88 393.244 558.64 393.388 559.488 393.388ZM569.354 383.572H572.474V395.5H569.354V383.572ZM578.018 383.308C578.754 383.308 579.434 383.404 580.058 383.596C580.682 383.788 581.226 384.084 581.69 384.484C582.154 384.884 582.514 385.396 582.77 386.02C583.026 386.628 583.154 387.356 583.154 388.204V395.5H580.034V388.756C580.034 387.748 579.786 387.012 579.29 386.548C578.81 386.068 578.018 385.828 576.914 385.828C576.082 385.828 575.33 385.988 574.658 386.308C573.986 386.628 573.442 387.036 573.026 387.532C572.61 388.012 572.37 388.516 572.306 389.044L572.282 387.82C572.362 387.26 572.546 386.716 572.834 386.188C573.122 385.66 573.506 385.18 573.986 384.748C574.482 384.3 575.066 383.948 575.738 383.692C576.41 383.436 577.17 383.308 578.018 383.308Z" fill="#E4E4E7"/>
<g clip-path="url(#clip1_157_2277)">
<rect x="66" y="64" width="300" height="72" rx="36" fill="#9F7BDC"/>
<path d="M116.228 91.972C117.972 91.972 119.428 92.18 120.596 92.596C121.764 93.012 122.692 93.58 123.38 94.3C124.084 95.004 124.58 95.82 124.868 96.748C125.172 97.676 125.324 98.652 125.324 99.676C125.324 100.7 125.156 101.684 124.82 102.628C124.5 103.572 123.98 104.412 123.26 105.148C122.556 105.868 121.62 106.444 120.452 106.876C119.3 107.292 117.892 107.5 116.228 107.5H107.348V91.972H116.228ZM110.54 104.764H116.156C117.308 104.764 118.26 104.628 119.012 104.356C119.78 104.068 120.388 103.684 120.836 103.204C121.284 102.724 121.604 102.18 121.796 101.572C121.988 100.964 122.084 100.332 122.084 99.676C122.084 99.02 121.988 98.396 121.796 97.804C121.604 97.212 121.284 96.684 120.836 96.22C120.388 95.756 119.78 95.388 119.012 95.116C118.26 94.844 117.308 94.708 116.156 94.708H110.54V104.764ZM128.034 95.572H131.154V107.5H128.034V95.572ZM135.738 98.14C134.842 98.14 134.066 98.316 133.41 98.668C132.754 99.004 132.226 99.42 131.826 99.916C131.426 100.412 131.146 100.892 130.986 101.356L130.962 100.036C130.978 99.844 131.042 99.564 131.154 99.196C131.266 98.812 131.434 98.404 131.658 97.972C131.882 97.524 132.178 97.1 132.546 96.7C132.914 96.284 133.362 95.948 133.89 95.692C134.418 95.436 135.034 95.308 135.738 95.308V98.14ZM144.699 107.788C143.195 107.788 141.867 107.548 140.715 107.068C139.579 106.588 138.691 105.892 138.051 104.98C137.411 104.052 137.091 102.916 137.091 101.572C137.091 100.228 137.411 99.092 138.051 98.164C138.691 97.22 139.579 96.508 140.715 96.028C141.867 95.548 143.195 95.308 144.699 95.308C146.203 95.308 147.515 95.548 148.635 96.028C149.771 96.508 150.659 97.22 151.299 98.164C151.939 99.092 152.259 100.228 152.259 101.572C152.259 102.916 151.939 104.052 151.299 104.98C150.659 105.892 149.771 106.588 148.635 107.068C147.515 107.548 146.203 107.788 144.699 107.788ZM144.699 105.388C145.531 105.388 146.275 105.244 146.931 104.956C147.603 104.652 148.131 104.22 148.515 103.66C148.899 103.084 149.091 102.388 149.091 101.572C149.091 100.756 148.899 100.06 148.515 99.484C148.131 98.892 147.611 98.444 146.955 98.14C146.299 97.836 145.547 97.684 144.699 97.684C143.867 97.684 143.115 97.836 142.443 98.14C141.771 98.444 141.235 98.884 140.835 99.46C140.451 100.036 140.259 100.74 140.259 101.572C140.259 102.388 140.451 103.084 140.835 103.66C141.219 104.22 141.747 104.652 142.419 104.956C143.091 105.244 143.851 105.388 144.699 105.388ZM163.253 107.788C162.197 107.788 161.293 107.604 160.541 107.236C159.805 106.852 159.205 106.356 158.741 105.748C158.277 105.124 157.933 104.444 157.709 103.708C157.485 102.972 157.373 102.252 157.373 101.548C157.373 100.668 157.477 99.852 157.685 99.1C157.909 98.348 158.253 97.692 158.717 97.132C159.181 96.556 159.781 96.108 160.517 95.788C161.269 95.468 162.181 95.308 163.253 95.308C164.453 95.308 165.533 95.572 166.493 96.1C167.453 96.628 168.213 97.364 168.773 98.308C169.349 99.236 169.637 100.316 169.637 101.548C169.637 102.812 169.349 103.916 168.773 104.86C168.197 105.788 167.429 106.508 166.469 107.02C165.509 107.532 164.437 107.788 163.253 107.788ZM162.245 105.364C163.093 105.364 163.829 105.204 164.453 104.884C165.093 104.564 165.581 104.124 165.917 103.564C166.269 102.988 166.445 102.316 166.445 101.548C166.445 100.396 166.077 99.468 165.341 98.764C164.621 98.06 163.589 97.708 162.245 97.708C161.397 97.708 160.621 97.86 159.917 98.164C159.229 98.468 158.685 98.908 158.285 99.484C157.885 100.044 157.685 100.732 157.685 101.548C157.685 102.316 157.869 102.988 158.237 103.564C158.605 104.124 159.133 104.564 159.821 104.884C160.509 105.204 161.317 105.364 162.245 105.364ZM154.565 95.572H157.541L157.685 98.74V112.3H154.565V95.572ZM177.74 107.764C176.54 107.764 175.452 107.508 174.476 106.996C173.516 106.468 172.756 105.74 172.196 104.812C171.636 103.868 171.356 102.78 171.356 101.548C171.356 100.284 171.628 99.188 172.172 98.26C172.732 97.332 173.492 96.612 174.452 96.1C175.412 95.572 176.508 95.308 177.74 95.308C178.812 95.308 179.724 95.468 180.476 95.788C181.228 96.108 181.836 96.556 182.3 97.132C182.764 97.692 183.1 98.348 183.308 99.1C183.532 99.852 183.644 100.668 183.644 101.548C183.644 102.252 183.532 102.972 183.308 103.708C183.084 104.428 182.74 105.1 182.276 105.724C181.812 106.332 181.204 106.828 180.452 107.212C179.7 107.58 178.796 107.764 177.74 107.764ZM178.748 105.364C179.692 105.364 180.508 105.204 181.196 104.884C181.884 104.564 182.412 104.116 182.78 103.54C183.148 102.964 183.332 102.3 183.332 101.548C183.332 100.732 183.14 100.044 182.756 99.484C182.388 98.908 181.86 98.468 181.172 98.164C180.5 97.86 179.692 97.708 178.748 97.708C177.42 97.708 176.388 98.06 175.652 98.764C174.916 99.468 174.548 100.396 174.548 101.548C174.548 102.316 174.724 102.988 175.076 103.564C175.428 104.124 175.916 104.564 176.54 104.884C177.18 105.204 177.916 105.364 178.748 105.364ZM183.332 90.772H186.452V107.5H183.548C183.5 107.132 183.452 106.66 183.404 106.084C183.356 105.492 183.332 104.94 183.332 104.428V90.772ZM196.847 107.788C195.343 107.788 194.015 107.548 192.863 107.068C191.727 106.588 190.839 105.892 190.199 104.98C189.559 104.052 189.239 102.916 189.239 101.572C189.239 100.228 189.559 99.092 190.199 98.164C190.839 97.22 191.727 96.508 192.863 96.028C194.015 95.548 195.343 95.308 196.847 95.308C198.351 95.308 199.663 95.548 200.783 96.028C201.919 96.508 202.807 97.22 203.447 98.164C204.087 99.092 204.407 100.228 204.407 101.572C204.407 102.916 204.087 104.052 203.447 104.98C202.807 105.892 201.919 106.588 200.783 107.068C199.663 107.548 198.351 107.788 196.847 107.788ZM196.847 105.388C197.679 105.388 198.423 105.244 199.079 104.956C199.751 104.652 200.279 104.22 200.663 103.66C201.047 103.084 201.239 102.388 201.239 101.572C201.239 100.756 201.047 100.06 200.663 99.484C200.279 98.892 199.759 98.444 199.103 98.14C198.447 97.836 197.695 97.684 196.847 97.684C196.015 97.684 195.263 97.836 194.591 98.14C193.919 98.444 193.383 98.884 192.983 99.46C192.599 100.036 192.407 100.74 192.407 101.572C192.407 102.388 192.599 103.084 192.983 103.66C193.367 104.22 193.895 104.652 194.567 104.956C195.239 105.244 195.999 105.388 196.847 105.388ZM221.797 105.34L220.813 105.316L224.701 95.572H228.133L222.877 107.5H219.949L216.109 97.876H217.165L213.205 107.5H210.277L205.165 95.572H208.597L212.341 105.34H211.357L214.861 95.572H218.437L221.797 105.34ZM229.963 95.572H233.083V107.5H229.963V95.572ZM238.627 95.308C239.363 95.308 240.043 95.404 240.667 95.596C241.291 95.788 241.835 96.084 242.299 96.484C242.763 96.884 243.123 97.396 243.379 98.02C243.635 98.628 243.763 99.356 243.763 100.204V107.5H240.643V100.756C240.643 99.748 240.395 99.012 239.899 98.548C239.419 98.068 238.627 97.828 237.523 97.828C236.691 97.828 235.939 97.988 235.267 98.308C234.595 98.628 234.051 99.036 233.635 99.532C233.219 100.012 232.979 100.516 232.915 101.044L232.891 99.82C232.971 99.26 233.155 98.716 233.443 98.188C233.731 97.66 234.115 97.18 234.595 96.748C235.091 96.3 235.675 95.948 236.347 95.692C237.019 95.436 237.779 95.308 238.627 95.308Z" fill="#FAFAFA"/>
<rect x="285" y="64" width="1" height="72" fill="#885EC0"/>
</g>
<g clip-path="url(#clip2_157_2277)">
<rect x="66" y="498" width="624" height="72" rx="36" fill="#F4F4F5"/>
<path d="M90.84 536.388H93.048C93.096 537.012 93.304 537.58 93.672 538.092C94.056 538.588 94.568 538.98 95.208 539.268C95.864 539.556 96.624 539.7 97.488 539.7C98.24 539.7 98.864 539.596 99.36 539.388C99.856 539.18 100.224 538.9 100.464 538.548C100.72 538.18 100.848 537.748 100.848 537.252C100.848 536.756 100.712 536.364 100.44 536.076C100.168 535.772 99.76 535.524 99.216 535.332C98.672 535.124 98 534.924 97.2 534.732C96.496 534.556 95.8 534.348 95.112 534.108C94.44 533.852 93.816 533.54 93.24 533.172C92.68 532.804 92.224 532.364 91.872 531.852C91.536 531.324 91.368 530.692 91.368 529.956C91.368 529.172 91.584 528.46 92.016 527.82C92.448 527.164 93.08 526.644 93.912 526.26C94.76 525.86 95.784 525.66 96.984 525.66C98.84 525.66 100.24 526.124 101.184 527.052C102.144 527.98 102.608 529.22 102.576 530.772H100.416C100.368 529.684 100.024 528.908 99.384 528.444C98.744 527.964 97.912 527.724 96.888 527.724C96.008 527.724 95.256 527.908 94.632 528.276C94.008 528.628 93.696 529.188 93.696 529.956C93.696 530.292 93.768 530.588 93.912 530.844C94.056 531.084 94.296 531.308 94.632 531.516C94.968 531.724 95.416 531.924 95.976 532.116C96.552 532.308 97.264 532.516 98.112 532.74C98.752 532.884 99.368 533.068 99.96 533.292C100.568 533.516 101.112 533.796 101.592 534.132C102.072 534.468 102.448 534.9 102.72 535.428C103.008 535.956 103.152 536.604 103.152 537.372C103.152 538.188 102.952 538.932 102.552 539.604C102.152 540.26 101.528 540.788 100.68 541.188C99.848 541.572 98.768 541.764 97.44 541.764C96.384 541.764 95.464 541.628 94.68 541.356C93.912 541.084 93.264 540.732 92.736 540.3C92.224 539.868 91.816 539.404 91.512 538.908C91.224 538.412 91.024 537.94 90.912 537.492C90.816 537.044 90.792 536.676 90.84 536.388ZM114.861 537.612H117.045C116.917 538.396 116.613 539.1 116.133 539.724C115.653 540.348 115.021 540.844 114.237 541.212C113.453 541.58 112.533 541.764 111.477 541.764C110.229 541.764 109.117 541.5 108.141 540.972C107.165 540.444 106.397 539.716 105.837 538.788C105.277 537.86 104.997 536.78 104.997 535.548C104.997 534.3 105.269 533.212 105.813 532.284C106.357 531.34 107.109 530.604 108.069 530.076C109.029 529.548 110.125 529.284 111.357 529.284C112.653 529.284 113.741 529.54 114.621 530.052C115.501 530.564 116.149 531.324 116.565 532.332C116.997 533.324 117.173 534.564 117.093 536.052H107.277C107.357 536.772 107.573 537.412 107.925 537.972C108.293 538.532 108.773 538.972 109.365 539.292C109.973 539.612 110.669 539.772 111.453 539.772C112.333 539.772 113.069 539.572 113.661 539.172C114.253 538.772 114.653 538.252 114.861 537.612ZM111.381 531.252C110.341 531.252 109.477 531.532 108.789 532.092C108.101 532.636 107.645 533.364 107.421 534.276H114.789C114.725 533.3 114.373 532.556 113.733 532.044C113.093 531.516 112.309 531.252 111.381 531.252ZM124.464 541.74C123.44 541.74 122.504 541.476 121.656 540.948C120.808 540.42 120.136 539.692 119.64 538.764C119.144 537.82 118.896 536.74 118.896 535.524C118.896 534.308 119.144 533.236 119.64 532.308C120.152 531.364 120.848 530.628 121.728 530.1C122.608 529.556 123.592 529.284 124.68 529.284C125.88 529.284 126.808 529.564 127.464 530.124C128.136 530.684 128.6 531.436 128.856 532.38C129.128 533.324 129.264 534.372 129.264 535.524C129.264 536.164 129.184 536.844 129.024 537.564C128.864 538.284 128.608 538.964 128.256 539.604C127.904 540.244 127.416 540.764 126.792 541.164C126.168 541.548 125.392 541.74 124.464 541.74ZM125.112 539.748C125.96 539.748 126.672 539.564 127.248 539.196C127.84 538.812 128.28 538.3 128.568 537.66C128.856 537.02 129 536.308 129 535.524C129 534.676 128.848 533.932 128.544 533.292C128.256 532.652 127.816 532.156 127.224 531.804C126.648 531.452 125.944 531.276 125.112 531.276C123.864 531.276 122.896 531.676 122.208 532.476C121.536 533.276 121.2 534.292 121.2 535.524C121.2 536.356 121.368 537.092 121.704 537.732C122.04 538.356 122.496 538.852 123.072 539.22C123.664 539.572 124.344 539.748 125.112 539.748ZM129 529.524H131.304V541.5H129.192C129.192 541.5 129.176 541.356 129.144 541.068C129.112 540.764 129.08 540.404 129.048 539.988C129.016 539.572 129 539.204 129 538.884V529.524ZM134.309 529.524H136.613V541.5H134.309V529.524ZM140.669 531.564C139.837 531.564 139.125 531.756 138.533 532.14C137.957 532.524 137.493 532.996 137.141 533.556C136.805 534.116 136.581 534.652 136.469 535.164L136.445 533.796C136.461 533.636 136.501 533.388 136.565 533.052C136.645 532.7 136.781 532.308 136.973 531.876C137.165 531.444 137.421 531.036 137.741 530.652C138.061 530.252 138.461 529.924 138.941 529.668C139.421 529.412 139.997 529.284 140.669 529.284V531.564ZM154.482 536.94C154.386 537.932 154.066 538.796 153.522 539.532C152.994 540.252 152.298 540.804 151.434 541.188C150.57 541.572 149.61 541.764 148.554 541.764C147.386 541.764 146.314 541.524 145.338 541.044C144.362 540.548 143.578 539.836 142.986 538.908C142.41 537.964 142.122 536.844 142.122 535.548C142.122 534.236 142.41 533.116 142.986 532.188C143.578 531.244 144.362 530.524 145.338 530.028C146.314 529.532 147.386 529.284 148.554 529.284C149.61 529.284 150.562 529.476 151.41 529.86C152.258 530.244 152.954 530.796 153.498 531.516C154.042 532.22 154.37 533.068 154.482 534.06H152.394C152.122 533.196 151.634 532.516 150.93 532.02C150.242 531.508 149.45 531.252 148.554 531.252C147.818 531.252 147.13 531.42 146.49 531.756C145.866 532.092 145.362 532.58 144.978 533.22C144.61 533.844 144.426 534.62 144.426 535.548C144.426 536.444 144.61 537.212 144.978 537.852C145.362 538.476 145.866 538.956 146.49 539.292C147.114 539.612 147.802 539.772 148.554 539.772C149.578 539.772 150.41 539.524 151.05 539.028C151.69 538.532 152.146 537.836 152.418 536.94H154.482ZM166.167 541.5V534.276C166.167 533.636 166.063 533.108 165.855 532.692C165.647 532.276 165.335 531.964 164.919 531.756C164.503 531.532 163.975 531.42 163.335 531.42C162.631 531.42 161.983 531.588 161.391 531.924C160.815 532.244 160.343 532.684 159.975 533.244C159.607 533.788 159.383 534.404 159.303 535.092L159.279 533.724C159.359 533.1 159.527 532.516 159.783 531.972C160.055 531.428 160.391 530.956 160.791 530.556C161.207 530.156 161.687 529.844 162.231 529.62C162.775 529.396 163.367 529.284 164.007 529.284C164.679 529.284 165.287 529.38 165.831 529.572C166.375 529.748 166.839 530.028 167.223 530.412C167.623 530.78 167.927 531.236 168.135 531.78C168.343 532.308 168.447 532.916 168.447 533.604V541.5H166.167ZM157.167 541.5V524.724H159.447V541.5H157.167Z" fill="#A1A1AA"/>
<g clip-path="url(#clip3_157_2277)">
<path d="M659.613 537.516C661.066 535.534 661.716 533.077 661.435 530.636C661.153 528.195 659.96 525.95 658.095 524.351C656.23 522.751 653.829 521.915 651.374 522.01C648.918 522.105 646.589 523.123 644.852 524.861C643.115 526.599 642.099 528.929 642.006 531.384C641.913 533.84 642.751 536.24 644.351 538.104C645.952 539.968 648.198 541.16 650.639 541.439C653.08 541.719 655.537 541.067 657.518 539.613H657.516C657.56 539.673 657.609 539.73 657.663 539.785L663.438 545.56C663.72 545.842 664.101 546 664.499 546C664.897 546 665.279 545.842 665.56 545.561C665.842 545.28 666 544.898 666 544.5C666 544.103 665.842 543.721 665.561 543.439L659.786 537.664C659.732 537.61 659.675 537.561 659.613 537.516ZM660 531.75C660 532.833 659.787 533.906 659.372 534.907C658.958 535.908 658.35 536.817 657.584 537.584C656.818 538.35 655.908 538.957 654.908 539.372C653.907 539.787 652.834 540 651.75 540C650.667 540 649.594 539.787 648.593 539.372C647.592 538.957 646.683 538.35 645.917 537.584C645.151 536.817 644.543 535.908 644.128 534.907C643.714 533.906 643.5 532.833 643.5 531.75C643.5 529.562 644.37 527.463 645.917 525.916C647.464 524.369 649.562 523.5 651.75 523.5C653.938 523.5 656.037 524.369 657.584 525.916C659.131 527.463 660 529.562 660 531.75Z" fill="#71717A"/>
</g>
</g>
<path d="M66.84 620.888H69.048C69.096 621.512 69.304 622.08 69.672 622.592C70.056 623.088 70.568 623.48 71.208 623.768C71.864 624.056 72.624 624.2 73.488 624.2C74.24 624.2 74.864 624.096 75.36 623.888C75.856 623.68 76.224 623.4 76.464 623.048C76.72 622.68 76.848 622.248 76.848 621.752C76.848 621.256 76.712 620.864 76.44 620.576C76.168 620.272 75.76 620.024 75.216 619.832C74.672 619.624 74 619.424 73.2 619.232C72.496 619.056 71.8 618.848 71.112 618.608C70.44 618.352 69.816 618.04 69.24 617.672C68.68 617.304 68.224 616.864 67.872 616.352C67.536 615.824 67.368 615.192 67.368 614.456C67.368 613.672 67.584 612.96 68.016 612.32C68.448 611.664 69.08 611.144 69.912 610.76C70.76 610.36 71.784 610.16 72.984 610.16C74.84 610.16 76.24 610.624 77.184 611.552C78.144 612.48 78.608 613.72 78.576 615.272H76.416C76.368 614.184 76.024 613.408 75.384 612.944C74.744 612.464 73.912 612.224 72.888 612.224C72.008 612.224 71.256 612.408 70.632 612.776C70.008 613.128 69.696 613.688 69.696 614.456C69.696 614.792 69.768 615.088 69.912 615.344C70.056 615.584 70.296 615.808 70.632 616.016C70.968 616.224 71.416 616.424 71.976 616.616C72.552 616.808 73.264 617.016 74.112 617.24C74.752 617.384 75.368 617.568 75.96 617.792C76.568 618.016 77.112 618.296 77.592 618.632C78.072 618.968 78.448 619.4 78.72 619.928C79.008 620.456 79.152 621.104 79.152 621.872C79.152 622.688 78.952 623.432 78.552 624.104C78.152 624.76 77.528 625.288 76.68 625.688C75.848 626.072 74.768 626.264 73.44 626.264C72.384 626.264 71.464 626.128 70.68 625.856C69.912 625.584 69.264 625.232 68.736 624.8C68.224 624.368 67.816 623.904 67.512 623.408C67.224 622.912 67.024 622.44 66.912 621.992C66.816 621.544 66.792 621.176 66.84 620.888ZM80.7814 614.024H88.5334V616.016H80.7814V614.024ZM83.5174 610.856H85.7974V626H83.5174V610.856ZM95.4482 626.24C94.4242 626.24 93.4882 625.976 92.6402 625.448C91.7922 624.92 91.1202 624.192 90.6242 623.264C90.1282 622.32 89.8802 621.24 89.8802 620.024C89.8802 618.808 90.1282 617.736 90.6242 616.808C91.1362 615.864 91.8322 615.128 92.7122 614.6C93.5922 614.056 94.5762 613.784 95.6642 613.784C96.8642 613.784 97.7922 614.064 98.4482 614.624C99.1202 615.184 99.5842 615.936 99.8402 616.88C100.112 617.824 100.248 618.872 100.248 620.024C100.248 620.664 100.168 621.344 100.008 622.064C99.8482 622.784 99.5922 623.464 99.2402 624.104C98.8882 624.744 98.4002 625.264 97.7762 625.664C97.1522 626.048 96.3762 626.24 95.4482 626.24ZM96.0962 624.248C96.9442 624.248 97.6562 624.064 98.2322 623.696C98.8242 623.312 99.2642 622.8 99.5522 622.16C99.8402 621.52 99.9842 620.808 99.9842 620.024C99.9842 619.176 99.8322 618.432 99.5282 617.792C99.2402 617.152 98.8002 616.656 98.2082 616.304C97.6322 615.952 96.9282 615.776 96.0962 615.776C94.8482 615.776 93.8802 616.176 93.1922 616.976C92.5202 617.776 92.1842 618.792 92.1842 620.024C92.1842 620.856 92.3522 621.592 92.6882 622.232C93.0242 622.856 93.4802 623.352 94.0562 623.72C94.6482 624.072 95.3282 624.248 96.0962 624.248ZM99.9842 614.024H102.288V626H100.176C100.176 626 100.16 625.856 100.128 625.568C100.096 625.264 100.064 624.904 100.032 624.488C100 624.072 99.9842 623.704 99.9842 623.384V614.024ZM105.293 614.024H107.597V626H105.293V614.024ZM111.653 616.064C110.821 616.064 110.109 616.256 109.517 616.64C108.941 617.024 108.477 617.496 108.125 618.056C107.789 618.616 107.565 619.152 107.453 619.664L107.429 618.296C107.445 618.136 107.485 617.888 107.549 617.552C107.629 617.2 107.765 616.808 107.957 616.376C108.149 615.944 108.405 615.536 108.725 615.152C109.045 614.752 109.445 614.424 109.925 614.168C110.405 613.912 110.981 613.784 111.653 613.784V616.064ZM112.914 614.024H120.666V616.016H112.914V614.024ZM115.65 610.856H117.93V626H115.65V610.856ZM134.745 610.424C136.361 610.424 137.713 610.632 138.801 611.048C139.905 611.448 140.785 612.008 141.441 612.728C142.113 613.448 142.593 614.272 142.881 615.2C143.169 616.128 143.313 617.112 143.313 618.152C143.313 619.176 143.153 620.16 142.833 621.104C142.529 622.048 142.033 622.888 141.345 623.624C140.673 624.36 139.793 624.944 138.705 625.376C137.617 625.792 136.297 626 134.745 626H128.505V610.424H134.745ZM130.809 623.912H134.721C135.953 623.912 136.969 623.752 137.769 623.432C138.569 623.096 139.201 622.656 139.665 622.112C140.145 621.552 140.481 620.928 140.673 620.24C140.881 619.552 140.985 618.856 140.985 618.152C140.985 617.432 140.881 616.736 140.673 616.064C140.481 615.392 140.145 614.792 139.665 614.264C139.201 613.72 138.569 613.296 137.769 612.992C136.969 612.672 135.953 612.512 134.721 612.512H130.809V623.912ZM150.995 626.24C149.971 626.24 149.035 625.976 148.187 625.448C147.339 624.92 146.667 624.192 146.171 623.264C145.675 622.32 145.427 621.24 145.427 620.024C145.427 618.808 145.675 617.736 146.171 616.808C146.683 615.864 147.379 615.128 148.259 614.6C149.139 614.056 150.123 613.784 151.211 613.784C152.411 613.784 153.339 614.064 153.995 614.624C154.667 615.184 155.131 615.936 155.387 616.88C155.659 617.824 155.795 618.872 155.795 620.024C155.795 620.664 155.715 621.344 155.555 622.064C155.395 622.784 155.139 623.464 154.787 624.104C154.435 624.744 153.947 625.264 153.323 625.664C152.699 626.048 151.923 626.24 150.995 626.24ZM151.643 624.248C152.491 624.248 153.203 624.064 153.779 623.696C154.371 623.312 154.811 622.8 155.099 622.16C155.387 621.52 155.531 620.808 155.531 620.024C155.531 619.176 155.379 618.432 155.075 617.792C154.787 617.152 154.347 616.656 153.755 616.304C153.179 615.952 152.475 615.776 151.643 615.776C150.395 615.776 149.427 616.176 148.739 616.976C148.067 617.776 147.731 618.792 147.731 620.024C147.731 620.856 147.899 621.592 148.235 622.232C148.571 622.856 149.027 623.352 149.603 623.72C150.195 624.072 150.875 624.248 151.643 624.248ZM155.531 614.024H157.835V626H155.723C155.723 626 155.707 625.856 155.675 625.568C155.643 625.264 155.611 624.904 155.579 624.488C155.547 624.072 155.531 623.704 155.531 623.384V614.024ZM160 614.024H167.752V616.016H160V614.024ZM162.736 610.856H165.016V626H162.736V610.856ZM178.963 622.112H181.147C181.019 622.896 180.715 623.6 180.235 624.224C179.755 624.848 179.123 625.344 178.339 625.712C177.555 626.08 176.635 626.264 175.579 626.264C174.331 626.264 173.219 626 172.243 625.472C171.267 624.944 170.499 624.216 169.939 623.288C169.379 622.36 169.099 621.28 169.099 620.048C169.099 618.8 169.371 617.712 169.915 616.784C170.459 615.84 171.211 615.104 172.171 614.576C173.131 614.048 174.227 613.784 175.459 613.784C176.755 613.784 177.843 614.04 178.723 614.552C179.603 615.064 180.251 615.824 180.667 616.832C181.099 617.824 181.275 619.064 181.195 620.552H171.379C171.459 621.272 171.675 621.912 172.027 622.472C172.395 623.032 172.875 623.472 173.467 623.792C174.075 624.112 174.771 624.272 175.555 624.272C176.435 624.272 177.171 624.072 177.763 623.672C178.355 623.272 178.755 622.752 178.963 622.112ZM175.483 615.752C174.443 615.752 173.579 616.032 172.891 616.592C172.203 617.136 171.747 617.864 171.523 618.776H178.891C178.827 617.8 178.475 617.056 177.835 616.544C177.195 616.016 176.411 615.752 175.483 615.752Z" fill="#52525B"/>
<path d="M196.527 610.88L197.127 612.68L194.391 613.544L196.239 616.04L194.679 617.168L192.807 614.504L190.911 617.168L189.351 616.04L191.175 613.568L188.511 612.728L189.111 610.904L191.871 611.84L191.847 608.792H193.743L193.719 611.816L196.527 610.88Z" fill="#EF5A5A"/>
<g clip-path="url(#clip4_157_2277)">
<rect x="66" y="645" width="297" height="72" rx="36" fill="#F4F4F5"/>
<path d="M90.6 678.3V676.5H95.328V688.5H93.408V678.3H90.6ZM98.8144 678.3V676.5H107.958V678.3L101.598 692.1H99.5584L106.446 677.508L106.95 678.3H98.8144ZM120.586 672.9C122.154 672.9 123.466 673.108 124.522 673.524C125.594 673.924 126.45 674.484 127.09 675.204C127.73 675.924 128.194 676.748 128.482 677.676C128.77 678.604 128.914 679.588 128.914 680.628C128.914 681.668 128.762 682.66 128.458 683.604C128.154 684.548 127.666 685.388 126.994 686.124C126.338 686.86 125.482 687.444 124.426 687.876C123.37 688.292 122.09 688.5 120.586 688.5H115.522V672.9H120.586ZM117.442 686.7H120.586C121.85 686.7 122.89 686.524 123.706 686.172C124.538 685.82 125.194 685.356 125.674 684.78C126.154 684.188 126.49 683.532 126.682 682.812C126.89 682.092 126.994 681.364 126.994 680.628C126.994 679.892 126.89 679.172 126.682 678.468C126.49 677.764 126.154 677.132 125.674 676.572C125.194 675.996 124.538 675.54 123.706 675.204C122.89 674.868 121.85 674.7 120.586 674.7H117.442V686.7ZM140.181 684.636H141.981C141.853 685.42 141.565 686.124 141.117 686.748C140.685 687.356 140.109 687.844 139.389 688.212C138.685 688.564 137.869 688.74 136.941 688.74C135.821 688.74 134.813 688.476 133.917 687.948C133.021 687.404 132.309 686.668 131.781 685.74C131.269 684.796 131.013 683.724 131.013 682.524C131.013 681.324 131.261 680.252 131.757 679.308C132.269 678.364 132.965 677.62 133.845 677.076C134.725 676.532 135.717 676.26 136.821 676.26C137.989 676.26 138.973 676.524 139.773 677.052C140.589 677.564 141.189 678.324 141.573 679.332C141.973 680.324 142.133 681.548 142.053 683.004H132.933C133.013 683.788 133.229 684.476 133.581 685.068C133.933 685.66 134.397 686.124 134.973 686.46C135.549 686.78 136.205 686.94 136.941 686.94C137.757 686.94 138.445 686.732 139.005 686.316C139.581 685.884 139.973 685.324 140.181 684.636ZM136.893 678.06C135.901 678.06 135.069 678.348 134.397 678.924C133.725 679.5 133.277 680.284 133.053 681.276H140.085C140.021 680.22 139.677 679.42 139.053 678.876C138.445 678.332 137.725 678.06 136.893 678.06ZM155.185 683.988C155.073 684.98 154.753 685.836 154.225 686.556C153.713 687.26 153.065 687.804 152.281 688.188C151.497 688.556 150.649 688.74 149.737 688.74C148.713 688.74 147.753 688.492 146.857 687.996C145.961 687.5 145.233 686.788 144.673 685.86C144.129 684.916 143.857 683.804 143.857 682.524C143.857 681.244 144.129 680.14 144.673 679.212C145.233 678.268 145.961 677.54 146.857 677.028C147.753 676.516 148.713 676.26 149.737 676.26C150.649 676.26 151.489 676.452 152.257 676.836C153.041 677.22 153.689 677.764 154.201 678.468C154.729 679.172 155.057 680.012 155.185 680.988H153.433C153.161 680.076 152.689 679.364 152.017 678.852C151.345 678.324 150.585 678.06 149.737 678.06C149.049 678.06 148.401 678.236 147.793 678.588C147.185 678.94 146.697 679.452 146.329 680.124C145.961 680.78 145.777 681.58 145.777 682.524C145.777 683.452 145.961 684.252 146.329 684.924C146.697 685.58 147.177 686.084 147.769 686.436C148.377 686.772 149.033 686.94 149.737 686.94C150.713 686.94 151.505 686.684 152.113 686.172C152.737 685.644 153.185 684.916 153.457 683.988H155.185ZM167.349 684.876L164.133 687.204L163.965 686.7H171.021V688.5H162.141V686.7C163.181 685.916 164.101 685.252 164.901 684.708C165.717 684.164 166.405 683.676 166.965 683.244C167.525 682.812 167.949 682.372 168.237 681.924C168.541 681.476 168.693 680.956 168.693 680.364C168.693 679.916 168.605 679.524 168.429 679.188C168.253 678.836 167.981 678.564 167.613 678.372C167.261 678.164 166.797 678.06 166.221 678.06C165.517 678.06 164.909 678.284 164.397 678.732C163.885 679.18 163.629 679.764 163.629 680.484H161.949C161.869 679.684 162.013 678.972 162.381 678.348C162.765 677.708 163.293 677.204 163.965 676.836C164.653 676.452 165.405 676.26 166.221 676.26C166.925 676.26 167.549 676.372 168.093 676.596C168.637 676.804 169.093 677.092 169.461 677.46C169.845 677.828 170.133 678.252 170.325 678.732C170.517 679.212 170.613 679.716 170.613 680.244C170.613 680.724 170.533 681.164 170.373 681.564C170.229 681.964 170.013 682.348 169.725 682.716C169.453 683.084 169.117 683.444 168.717 683.796C168.317 684.148 167.861 684.508 167.349 684.876ZM179.064 688.74C178.04 688.74 177.08 688.492 176.184 687.996C175.288 687.5 174.56 686.788 174 685.86C173.456 684.916 173.184 683.804 173.184 682.524C173.184 681.244 173.456 680.14 174 679.212C174.56 678.268 175.288 677.54 176.184 677.028C177.08 676.516 178.04 676.26 179.064 676.26C180.088 676.26 181.04 676.516 181.92 677.028C182.816 677.54 183.536 678.268 184.08 679.212C184.624 680.14 184.896 681.244 184.896 682.524C184.896 683.804 184.624 684.916 184.08 685.86C183.536 686.788 182.816 687.5 181.92 687.996C181.04 688.492 180.088 688.74 179.064 688.74ZM179.064 686.892C179.72 686.892 180.344 686.724 180.936 686.388C181.528 686.052 182.016 685.556 182.4 684.9C182.784 684.244 182.976 683.452 182.976 682.524C182.976 681.596 182.784 680.804 182.4 680.148C182.032 679.492 181.544 678.988 180.936 678.636C180.344 678.284 179.72 678.108 179.064 678.108C178.408 678.108 177.776 678.284 177.168 678.636C176.56 678.972 176.064 679.468 175.68 680.124C175.296 680.78 175.104 681.58 175.104 682.524C175.104 683.452 175.296 684.244 175.68 684.9C176.064 685.556 176.56 686.052 177.168 686.388C177.776 686.724 178.408 686.892 179.064 686.892ZM192.334 684.876L189.118 687.204L188.95 686.7H196.006V688.5H187.126V686.7C188.166 685.916 189.086 685.252 189.886 684.708C190.702 684.164 191.39 683.676 191.95 683.244C192.51 682.812 192.934 682.372 193.222 681.924C193.526 681.476 193.678 680.956 193.678 680.364C193.678 679.916 193.59 679.524 193.414 679.188C193.238 678.836 192.966 678.564 192.598 678.372C192.246 678.164 191.782 678.06 191.206 678.06C190.502 678.06 189.894 678.284 189.382 678.732C188.87 679.18 188.614 679.764 188.614 680.484H186.934C186.854 679.684 186.998 678.972 187.366 678.348C187.75 677.708 188.278 677.204 188.95 676.836C189.638 676.452 190.39 676.26 191.206 676.26C191.91 676.26 192.534 676.372 193.078 676.596C193.622 676.804 194.078 677.092 194.446 677.46C194.83 677.828 195.118 678.252 195.31 678.732C195.502 679.212 195.598 679.716 195.598 680.244C195.598 680.724 195.518 681.164 195.358 681.564C195.214 681.964 194.998 682.348 194.71 682.716C194.438 683.084 194.102 683.444 193.702 683.796C193.302 684.148 192.846 684.508 192.334 684.876ZM203.977 682.02C204.681 682.02 205.321 682.14 205.897 682.38C206.473 682.62 206.969 682.972 207.385 683.436C207.801 683.884 208.121 684.428 208.345 685.068C208.585 685.692 208.705 686.404 208.705 687.204C208.705 688.26 208.473 689.172 208.009 689.94C207.561 690.708 206.953 691.3 206.185 691.716C205.433 692.132 204.601 692.34 203.689 692.34C203.001 692.34 202.345 692.228 201.721 692.004C201.097 691.796 200.545 691.484 200.065 691.068C199.601 690.668 199.217 690.172 198.913 689.58C198.625 689.004 198.457 688.348 198.409 687.612H200.329C200.393 688.22 200.561 688.74 200.833 689.172C201.121 689.604 201.505 689.924 201.985 690.132C202.465 690.356 203.033 690.468 203.689 690.468C204.105 690.468 204.497 690.396 204.865 690.252C205.249 690.108 205.585 689.9 205.873 689.628C206.161 689.356 206.385 689.012 206.545 688.596C206.721 688.196 206.809 687.732 206.809 687.204C206.809 686.676 206.729 686.212 206.569 685.812C206.425 685.396 206.217 685.052 205.945 684.78C205.689 684.492 205.377 684.276 205.009 684.132C204.641 683.972 204.241 683.892 203.809 683.892C203.409 683.892 203.009 683.948 202.609 684.06C202.209 684.172 201.841 684.372 201.505 684.66C201.169 684.948 200.881 685.356 200.641 685.884L198.865 685.524L199.345 676.5H207.481V678.3H201.169L200.761 685.068L200.593 684.9C200.753 684.212 201.001 683.66 201.337 683.244C201.689 682.828 202.089 682.524 202.537 682.332C203.001 682.124 203.481 682.02 203.977 682.02Z" fill="#3F3F46"/>
<g clip-path="url(#clip5_157_2277)">
<path d="M320.25 669C320.449 669 320.64 669.079 320.78 669.22C320.921 669.36 321 669.551 321 669.75V670.5H333V669.75C333 669.551 333.079 669.36 333.22 669.22C333.36 669.079 333.551 669 333.75 669C333.949 669 334.14 669.079 334.28 669.22C334.421 669.36 334.5 669.551 334.5 669.75V670.5H336C336.796 670.5 337.559 670.816 338.121 671.379C338.684 671.941 339 672.704 339 673.5V690C339 690.796 338.684 691.559 338.121 692.121C337.559 692.684 336.796 693 336 693H318C317.204 693 316.441 692.684 315.879 692.121C315.316 691.559 315 690.796 315 690V673.5C315 672.704 315.316 671.941 315.879 671.379C316.441 670.816 317.204 670.5 318 670.5H319.5V669.75C319.5 669.551 319.579 669.36 319.72 669.22C319.86 669.079 320.051 669 320.25 669ZM316.5 675V690C316.5 690.398 316.658 690.779 316.939 691.061C317.221 691.342 317.602 691.5 318 691.5H336C336.398 691.5 336.779 691.342 337.061 691.061C337.342 690.779 337.5 690.398 337.5 690V675H316.5Z" fill="#71717A"/>
</g>
</g>
<path d="M394.2 619.256V623.936H404.232V626H391.896V610.424H404.208V612.488H394.2V617.24H402.384V619.256H394.2ZM407.192 614.024H409.496V626H407.192V614.024ZM414.056 613.784C414.728 613.784 415.336 613.88 415.88 614.072C416.424 614.264 416.888 614.552 417.272 614.936C417.656 615.304 417.952 615.768 418.16 616.328C418.384 616.872 418.496 617.496 418.496 618.2V626H416.216V618.704C416.216 617.76 415.984 617.056 415.52 616.592C415.072 616.112 414.384 615.872 413.456 615.872C412.736 615.872 412.08 616.04 411.488 616.376C410.896 616.712 410.408 617.16 410.024 617.72C409.656 618.264 409.432 618.88 409.352 619.568L409.328 618.248C409.408 617.608 409.576 617.016 409.832 616.472C410.104 615.928 410.44 615.456 410.84 615.056C411.256 614.64 411.736 614.328 412.28 614.12C412.824 613.896 413.416 613.784 414.056 613.784ZM426.456 626.24C425.416 626.24 424.472 625.976 423.624 625.448C422.776 624.92 422.104 624.192 421.608 623.264C421.128 622.32 420.888 621.24 420.888 620.024C420.888 618.808 421.128 617.736 421.608 616.808C422.088 615.864 422.744 615.128 423.576 614.6C424.408 614.056 425.368 613.784 426.456 613.784C427.4 613.784 428.184 613.944 428.808 614.264C429.432 614.584 429.92 615.032 430.272 615.608C430.624 616.184 430.872 616.848 431.016 617.6C431.176 618.352 431.256 619.16 431.256 620.024C431.256 620.664 431.176 621.344 431.016 622.064C430.856 622.784 430.6 623.464 430.248 624.104C429.896 624.744 429.408 625.264 428.784 625.664C428.16 626.048 427.384 626.24 426.456 626.24ZM427.104 624.248C427.952 624.248 428.664 624.064 429.24 623.696C429.832 623.312 430.272 622.8 430.56 622.16C430.848 621.52 430.992 620.808 430.992 620.024C430.992 619.176 430.84 618.432 430.536 617.792C430.248 617.152 429.808 616.656 429.216 616.304C428.64 615.952 427.936 615.776 427.104 615.776C425.856 615.776 424.888 616.176 424.2 616.976C423.528 617.776 423.192 618.792 423.192 620.024C423.192 620.856 423.36 621.592 423.696 622.232C424.032 622.856 424.488 623.352 425.064 623.72C425.656 624.072 426.336 624.248 427.104 624.248ZM430.992 609.224H433.296V626H431.184C431.136 625.648 431.088 625.216 431.04 624.704C431.008 624.192 430.992 623.752 430.992 623.384V609.224ZM448.62 610.424C450.236 610.424 451.588 610.632 452.676 611.048C453.78 611.448 454.66 612.008 455.316 612.728C455.988 613.448 456.468 614.272 456.756 615.2C457.044 616.128 457.188 617.112 457.188 618.152C457.188 619.176 457.028 620.16 456.708 621.104C456.404 622.048 455.908 622.888 455.22 623.624C454.548 624.36 453.668 624.944 452.58 625.376C451.492 625.792 450.172 626 448.62 626H442.38V610.424H448.62ZM444.684 623.912H448.596C449.828 623.912 450.844 623.752 451.644 623.432C452.444 623.096 453.076 622.656 453.54 622.112C454.02 621.552 454.356 620.928 454.548 620.24C454.756 619.552 454.86 618.856 454.86 618.152C454.86 617.432 454.756 616.736 454.548 616.064C454.356 615.392 454.02 614.792 453.54 614.264C453.076 613.72 452.444 613.296 451.644 612.992C450.844 612.672 449.828 612.512 448.596 612.512H444.684V623.912ZM464.87 626.24C463.846 626.24 462.91 625.976 462.062 625.448C461.214 624.92 460.542 624.192 460.046 623.264C459.55 622.32 459.302 621.24 459.302 620.024C459.302 618.808 459.55 617.736 460.046 616.808C460.558 615.864 461.254 615.128 462.134 614.6C463.014 614.056 463.998 613.784 465.086 613.784C466.286 613.784 467.214 614.064 467.87 614.624C468.542 615.184 469.006 615.936 469.262 616.88C469.534 617.824 469.67 618.872 469.67 620.024C469.67 620.664 469.59 621.344 469.43 622.064C469.27 622.784 469.014 623.464 468.662 624.104C468.31 624.744 467.822 625.264 467.198 625.664C466.574 626.048 465.798 626.24 464.87 626.24ZM465.518 624.248C466.366 624.248 467.078 624.064 467.654 623.696C468.246 623.312 468.686 622.8 468.974 622.16C469.262 621.52 469.406 620.808 469.406 620.024C469.406 619.176 469.254 618.432 468.95 617.792C468.662 617.152 468.222 616.656 467.63 616.304C467.054 615.952 466.35 615.776 465.518 615.776C464.27 615.776 463.302 616.176 462.614 616.976C461.942 617.776 461.606 618.792 461.606 620.024C461.606 620.856 461.774 621.592 462.11 622.232C462.446 622.856 462.902 623.352 463.478 623.72C464.07 624.072 464.75 624.248 465.518 624.248ZM469.406 614.024H471.71V626H469.598C469.598 626 469.582 625.856 469.55 625.568C469.518 625.264 469.486 624.904 469.454 624.488C469.422 624.072 469.406 623.704 469.406 623.384V614.024ZM473.875 614.024H481.627V616.016H473.875V614.024ZM476.611 610.856H478.891V626H476.611V610.856ZM492.838 622.112H495.022C494.894 622.896 494.59 623.6 494.11 624.224C493.63 624.848 492.998 625.344 492.214 625.712C491.43 626.08 490.51 626.264 489.454 626.264C488.206 626.264 487.094 626 486.118 625.472C485.142 624.944 484.374 624.216 483.814 623.288C483.254 622.36 482.974 621.28 482.974 620.048C482.974 618.8 483.246 617.712 483.79 616.784C484.334 615.84 485.086 615.104 486.046 614.576C487.006 614.048 488.102 613.784 489.334 613.784C490.63 613.784 491.718 614.04 492.598 614.552C493.478 615.064 494.126 615.824 494.542 616.832C494.974 617.824 495.15 619.064 495.07 620.552H485.254C485.334 621.272 485.55 621.912 485.902 622.472C486.27 623.032 486.75 623.472 487.342 623.792C487.95 624.112 488.646 624.272 489.43 624.272C490.31 624.272 491.046 624.072 491.638 623.672C492.23 623.272 492.63 622.752 492.838 622.112ZM489.358 615.752C488.318 615.752 487.454 616.032 486.766 616.592C486.078 617.136 485.622 617.864 485.398 618.776H492.766C492.702 617.8 492.35 617.056 491.71 616.544C491.07 616.016 490.286 615.752 489.358 615.752Z" fill="#52525B"/>
<path d="M510.402 610.88L511.002 612.68L508.266 613.544L510.114 616.04L508.554 617.168L506.682 614.504L504.786 617.168L503.226 616.04L505.05 613.568L502.386 612.728L502.986 610.904L505.746 611.84L505.722 608.792H507.618L507.594 611.816L510.402 610.88Z" fill="#EF5A5A"/>
<g clip-path="url(#clip6_157_2277)">
<rect x="390" y="645" width="300" height="72" rx="36" fill="#F4F4F5"/>
<path d="M414.864 683.436H416.592C416.64 684.108 416.84 684.708 417.192 685.236C417.544 685.764 418.024 686.18 418.632 686.484C419.256 686.788 419.984 686.94 420.816 686.94C421.536 686.94 422.136 686.836 422.616 686.628C423.112 686.404 423.48 686.1 423.72 685.716C423.976 685.332 424.104 684.884 424.104 684.372C424.104 683.844 423.976 683.42 423.72 683.1C423.464 682.78 423.096 682.508 422.616 682.284C422.136 682.06 421.568 681.844 420.912 681.636C420.288 681.444 419.656 681.22 419.016 680.964C418.376 680.708 417.776 680.396 417.216 680.028C416.672 679.66 416.232 679.22 415.896 678.708C415.56 678.18 415.392 677.548 415.392 676.812C415.392 676.092 415.584 675.42 415.968 674.796C416.368 674.156 416.944 673.644 417.696 673.26C418.464 672.86 419.384 672.66 420.456 672.66C422.136 672.66 423.392 673.116 424.224 674.028C425.056 674.94 425.456 676.148 425.424 677.652H423.696C423.664 676.516 423.344 675.7 422.736 675.204C422.128 674.708 421.336 674.46 420.36 674.46C419.544 674.46 418.832 674.652 418.224 675.036C417.616 675.404 417.312 675.988 417.312 676.788C417.312 677.14 417.376 677.452 417.504 677.724C417.648 677.98 417.872 678.22 418.176 678.444C418.496 678.668 418.92 678.892 419.448 679.116C419.992 679.324 420.656 679.556 421.44 679.812C421.952 679.972 422.472 680.164 423 680.388C423.544 680.612 424.04 680.892 424.488 681.228C424.952 681.564 425.32 681.996 425.592 682.524C425.88 683.036 426.024 683.684 426.024 684.468C426.024 685.22 425.84 685.924 425.472 686.58C425.12 687.22 424.56 687.74 423.792 688.14C423.04 688.54 422.064 688.74 420.864 688.74C419.84 688.74 418.96 688.604 418.224 688.332C417.504 688.044 416.912 687.676 416.448 687.228C415.984 686.78 415.624 686.316 415.368 685.836C415.128 685.34 414.968 684.876 414.888 684.444C414.808 684.012 414.8 683.676 414.864 683.436ZM437.04 684.636H438.84C438.712 685.42 438.424 686.124 437.976 686.748C437.544 687.356 436.968 687.844 436.248 688.212C435.544 688.564 434.728 688.74 433.8 688.74C432.68 688.74 431.672 688.476 430.776 687.948C429.88 687.404 429.168 686.668 428.64 685.74C428.128 684.796 427.872 683.724 427.872 682.524C427.872 681.324 428.12 680.252 428.616 679.308C429.128 678.364 429.824 677.62 430.704 677.076C431.584 676.532 432.576 676.26 433.68 676.26C434.848 676.26 435.832 676.524 436.632 677.052C437.448 677.564 438.048 678.324 438.432 679.332C438.832 680.324 438.992 681.548 438.912 683.004H429.792C429.872 683.788 430.088 684.476 430.44 685.068C430.792 685.66 431.256 686.124 431.832 686.46C432.408 686.78 433.064 686.94 433.8 686.94C434.616 686.94 435.304 686.732 435.864 686.316C436.44 685.884 436.832 685.324 437.04 684.636ZM433.752 678.06C432.76 678.06 431.928 678.348 431.256 678.924C430.584 679.5 430.136 680.284 429.912 681.276H436.944C436.88 680.22 436.536 679.42 435.912 678.876C435.304 678.332 434.584 678.06 433.752 678.06ZM441.628 671.7H443.548V688.5H441.628V671.7ZM455.415 684.636H457.215C457.087 685.42 456.799 686.124 456.351 686.748C455.919 687.356 455.343 687.844 454.623 688.212C453.919 688.564 453.103 688.74 452.175 688.74C451.055 688.74 450.047 688.476 449.151 687.948C448.255 687.404 447.543 686.668 447.015 685.74C446.503 684.796 446.247 683.724 446.247 682.524C446.247 681.324 446.495 680.252 446.991 679.308C447.503 678.364 448.199 677.62 449.079 677.076C449.959 676.532 450.951 676.26 452.055 676.26C453.223 676.26 454.207 676.524 455.007 677.052C455.823 677.564 456.423 678.324 456.807 679.332C457.207 680.324 457.367 681.548 457.287 683.004H448.167C448.247 683.788 448.463 684.476 448.815 685.068C449.167 685.66 449.631 686.124 450.207 686.46C450.783 686.78 451.439 686.94 452.175 686.94C452.991 686.94 453.679 686.732 454.239 686.316C454.815 685.884 455.207 685.324 455.415 684.636ZM452.127 678.06C451.135 678.06 450.303 678.348 449.631 678.924C448.959 679.5 448.511 680.284 448.287 681.276H455.319C455.255 680.22 454.911 679.42 454.287 678.876C453.679 678.332 452.959 678.06 452.127 678.06ZM470.419 683.988C470.307 684.98 469.987 685.836 469.459 686.556C468.947 687.26 468.299 687.804 467.515 688.188C466.731 688.556 465.883 688.74 464.971 688.74C463.947 688.74 462.987 688.492 462.091 687.996C461.195 687.5 460.467 686.788 459.907 685.86C459.363 684.916 459.091 683.804 459.091 682.524C459.091 681.244 459.363 680.14 459.907 679.212C460.467 678.268 461.195 677.54 462.091 677.028C462.987 676.516 463.947 676.26 464.971 676.26C465.883 676.26 466.723 676.452 467.491 676.836C468.275 677.22 468.923 677.764 469.435 678.468C469.963 679.172 470.291 680.012 470.419 680.988H468.667C468.395 680.076 467.923 679.364 467.251 678.852C466.579 678.324 465.819 678.06 464.971 678.06C464.283 678.06 463.635 678.236 463.027 678.588C462.419 678.94 461.931 679.452 461.563 680.124C461.195 680.78 461.011 681.58 461.011 682.524C461.011 683.452 461.195 684.252 461.563 684.924C461.931 685.58 462.411 686.084 463.003 686.436C463.611 686.772 464.267 686.94 464.971 686.94C465.947 686.94 466.739 686.684 467.347 686.172C467.971 685.644 468.419 684.916 468.691 683.988H470.419ZM472.025 676.5H479.081V678.3H472.025V676.5ZM474.593 673.38H476.513V688.5H474.593V673.38ZM491.812 672.9C493.38 672.9 494.692 673.108 495.748 673.524C496.82 673.924 497.676 674.484 498.316 675.204C498.956 675.924 499.42 676.748 499.708 677.676C499.996 678.604 500.14 679.588 500.14 680.628C500.14 681.668 499.988 682.66 499.684 683.604C499.38 684.548 498.892 685.388 498.22 686.124C497.564 686.86 496.708 687.444 495.652 687.876C494.596 688.292 493.316 688.5 491.812 688.5H486.748V672.9H491.812ZM488.668 686.7H491.812C493.076 686.7 494.116 686.524 494.932 686.172C495.764 685.82 496.42 685.356 496.9 684.78C497.38 684.188 497.716 683.532 497.908 682.812C498.116 682.092 498.22 681.364 498.22 680.628C498.22 679.892 498.116 679.172 497.908 678.468C497.716 677.764 497.38 677.132 496.9 676.572C496.42 675.996 495.764 675.54 494.932 675.204C494.116 674.868 493.076 674.7 491.812 674.7H488.668V686.7ZM507.448 688.74C506.504 688.74 505.632 688.476 504.832 687.948C504.048 687.404 503.416 686.668 502.936 685.74C502.472 684.796 502.24 683.724 502.24 682.524C502.24 681.324 502.48 680.252 502.96 679.308C503.44 678.364 504.088 677.62 504.904 677.076C505.736 676.532 506.664 676.26 507.688 676.26C508.808 676.26 509.656 676.548 510.232 677.124C510.824 677.684 511.224 678.436 511.432 679.38C511.656 680.324 511.768 681.372 511.768 682.524C511.768 683.132 511.704 683.796 511.576 684.516C511.448 685.22 511.224 685.9 510.904 686.556C510.6 687.196 510.168 687.724 509.608 688.14C509.048 688.54 508.328 688.74 507.448 688.74ZM507.928 686.916C508.744 686.916 509.416 686.716 509.944 686.316C510.488 685.916 510.888 685.388 511.144 684.732C511.4 684.06 511.528 683.324 511.528 682.524C511.528 681.644 511.392 680.876 511.12 680.22C510.864 679.548 510.464 679.028 509.92 678.66C509.392 678.276 508.728 678.084 507.928 678.084C506.728 678.084 505.8 678.508 505.144 679.356C504.488 680.188 504.16 681.244 504.16 682.524C504.16 683.372 504.32 684.132 504.64 684.804C504.976 685.46 505.424 685.98 505.984 686.364C506.56 686.732 507.208 686.916 507.928 686.916ZM511.528 676.5H513.448V688.5H511.696C511.696 688.5 511.68 688.356 511.648 688.068C511.632 687.78 511.608 687.444 511.576 687.06C511.544 686.676 511.528 686.356 511.528 686.1V676.5ZM515.736 676.5H522.792V678.3H515.736V676.5ZM518.304 673.38H520.224V688.5H518.304V673.38ZM533.322 684.636H535.122C534.994 685.42 534.706 686.124 534.258 686.748C533.826 687.356 533.25 687.844 532.53 688.212C531.826 688.564 531.01 688.74 530.082 688.74C528.962 688.74 527.954 688.476 527.058 687.948C526.162 687.404 525.45 686.668 524.922 685.74C524.41 684.796 524.154 683.724 524.154 682.524C524.154 681.324 524.402 680.252 524.898 679.308C525.41 678.364 526.106 677.62 526.986 677.076C527.866 676.532 528.858 676.26 529.962 676.26C531.13 676.26 532.114 676.524 532.914 677.052C533.73 677.564 534.33 678.324 534.714 679.332C535.114 680.324 535.274 681.548 535.194 683.004H526.074C526.154 683.788 526.37 684.476 526.722 685.068C527.074 685.66 527.538 686.124 528.114 686.46C528.69 686.78 529.346 686.94 530.082 686.94C530.898 686.94 531.586 686.732 532.146 686.316C532.722 685.884 533.114 685.324 533.322 684.636ZM530.034 678.06C529.042 678.06 528.21 678.348 527.538 678.924C526.866 679.5 526.418 680.284 526.194 681.276H533.226C533.162 680.22 532.818 679.42 532.194 678.876C531.586 678.332 530.866 678.06 530.034 678.06Z" fill="#A1A1AA"/>
<g clip-path="url(#clip7_157_2277)">
<path d="M647.25 669C647.449 669 647.64 669.079 647.78 669.22C647.921 669.36 648 669.551 648 669.75V670.5H660V669.75C660 669.551 660.079 669.36 660.22 669.22C660.36 669.079 660.551 669 660.75 669C660.949 669 661.14 669.079 661.28 669.22C661.421 669.36 661.5 669.551 661.5 669.75V670.5H663C663.796 670.5 664.559 670.816 665.121 671.379C665.684 671.941 666 672.704 666 673.5V690C666 690.796 665.684 691.559 665.121 692.121C664.559 692.684 663.796 693 663 693H645C644.204 693 643.441 692.684 642.879 692.121C642.316 691.559 642 690.796 642 690V673.5C642 672.704 642.316 671.941 642.879 671.379C643.441 670.816 644.204 670.5 645 670.5H646.5V669.75C646.5 669.551 646.579 669.36 646.72 669.22C646.86 669.079 647.051 669 647.25 669ZM643.5 675V690C643.5 690.398 643.658 690.779 643.939 691.061C644.221 691.342 644.602 691.5 645 691.5H663C663.398 691.5 663.779 691.342 664.061 691.061C664.342 690.779 664.5 690.398 664.5 690V675H643.5Z" fill="#EF5A5A"/>
</g>
</g>
<rect x="390.5" y="645.5" width="299" height="71" rx="35.5" stroke="#EF5A5A"/>
</g>
<defs>
<linearGradient id="paint0_linear_157_2277" x1="275.794" y1="-32.0109" x2="640.333" y2="840.711" gradientUnits="userSpaceOnUse">
<stop stop-color="#F4F4F5"/>
<stop offset="0.48794" stop-color="#E4E4E7"/>
<stop offset="1" stop-color="#F0ECFB"/>
</linearGradient>
<linearGradient id="paint1_linear_157_2277" x1="390" y1="292" x2="690" y2="292" gradientUnits="userSpaceOnUse">
<stop stop-color="#B399EC"/>
<stop offset="1" stop-color="#71717A"/>
</linearGradient>
<clipPath id="clip0_157_2277">
<rect width="756" height="829" fill="white"/>
</clipPath>
<clipPath id="clip1_157_2277">
<rect x="66" y="64" width="300" height="72" rx="36" fill="white"/>
</clipPath>
<clipPath id="clip2_157_2277">
<rect x="66" y="498" width="624" height="72" rx="36" fill="white"/>
</clipPath>
<clipPath id="clip3_157_2277">
<rect width="24" height="24" fill="white" transform="translate(642 522)"/>
</clipPath>
<clipPath id="clip4_157_2277">
<rect x="66" y="645" width="297" height="72" rx="36" fill="white"/>
</clipPath>
<clipPath id="clip5_157_2277">
<rect width="24" height="24" fill="white" transform="translate(315 669)"/>
</clipPath>
<clipPath id="clip6_157_2277">
<rect x="390" y="645" width="300" height="72" rx="36" fill="white"/>
</clipPath>
<clipPath id="clip7_157_2277">
<rect width="24" height="24" fill="white" transform="translate(642 669)"/>
</clipPath>
</defs>
</svg>
