<svg viewBox="0 0 756 829" fill="none" xmlns="http://www.w3.org/2000/svg">
<g clip-path="url(#clip0_157_2277)">
<rect width="756" height="829" fill="url(#paint0_linear_157_2277)"/>
<path d="M0 531.353L756 187V952H0V531.353Z" fill="#AE8AED" fill-opacity="0.1"/>
<rect x="66" y="64" width="300" height="72" rx="36" fill="#9F7BDC"/>
<path d="M172.848 107.5V91.972H181.8C183.88 91.972 185.456 92.324 186.528 93.028C187.616 93.716 188.16 94.748 188.16 96.124C188.16 97.004 187.944 97.7 187.512 98.212C187.08 98.708 186.464 99.076 185.664 99.316C184.88 99.556 183.952 99.708 182.88 99.772L182.976 99.604C183.76 99.62 184.496 99.676 185.184 99.772C185.888 99.868 186.504 100.044 187.032 100.3C187.56 100.556 187.976 100.916 188.28 101.38C188.584 101.828 188.736 102.42 188.736 103.156C188.736 104.116 188.48 104.916 187.968 105.556C187.456 106.18 186.744 106.652 185.832 106.972C184.92 107.292 183.864 107.468 182.664 107.5H172.848ZM176.04 104.86H182.328C183.336 104.86 184.112 104.7 184.656 104.38C185.2 104.044 185.472 103.516 185.472 102.796C185.472 102.268 185.312 101.884 184.992 101.644C184.672 101.404 184.248 101.26 183.72 101.212C183.192 101.148 182.624 101.116 182.016 101.116H176.04V104.86ZM176.04 98.548H181.68C182.688 98.548 183.464 98.404 184.008 98.116C184.552 97.812 184.824 97.3 184.824 96.58C184.824 95.86 184.552 95.356 184.008 95.068C183.464 94.764 182.744 94.612 181.848 94.612H176.04V98.548ZM204.967 107.5H201.847V95.572H204.967V107.5ZM202.015 101.764L202.039 102.58C202.007 102.804 201.927 103.132 201.799 103.564C201.671 103.98 201.471 104.428 201.199 104.908C200.943 105.388 200.607 105.852 200.191 106.3C199.775 106.732 199.263 107.092 198.655 107.38C198.047 107.652 197.327 107.788 196.495 107.788C195.839 107.788 195.191 107.708 194.551 107.548C193.927 107.388 193.359 107.124 192.847 106.756C192.335 106.372 191.927 105.86 191.623 105.22C191.319 104.58 191.167 103.772 191.167 102.796V95.572H194.287V102.268C194.287 103.036 194.407 103.644 194.647 104.092C194.903 104.524 195.271 104.828 195.751 105.004C196.231 105.18 196.799 105.268 197.455 105.268C198.319 105.268 199.063 105.084 199.687 104.716C200.311 104.332 200.815 103.868 201.199 103.324C201.599 102.78 201.871 102.26 202.015 101.764ZM206.967 95.572H216.231V97.996H206.967V95.572ZM210.039 92.308H213.159V107.5H210.039V92.308ZM217.373 95.572H226.637V97.996H217.373V95.572ZM220.445 92.308H223.565V107.5H220.445V92.308ZM235.488 107.788C233.984 107.788 232.656 107.548 231.504 107.068C230.368 106.588 229.48 105.892 228.84 104.98C228.2 104.052 227.88 102.916 227.88 101.572C227.88 100.228 228.2 99.092 228.84 98.164C229.48 97.22 230.368 96.508 231.504 96.028C232.656 95.548 233.984 95.308 235.488 95.308C236.992 95.308 238.304 95.548 239.424 96.028C240.56 96.508 241.448 97.22 242.088 98.164C242.728 99.092 243.048 100.228 243.048 101.572C243.048 102.916 242.728 104.052 242.088 104.98C241.448 105.892 240.56 106.588 239.424 107.068C238.304 107.548 236.992 107.788 235.488 107.788ZM235.488 105.388C236.32 105.388 237.064 105.244 237.72 104.956C238.392 104.652 238.92 104.22 239.304 103.66C239.688 103.084 239.88 102.388 239.88 101.572C239.88 100.756 239.688 100.06 239.304 99.484C238.92 98.892 238.4 98.444 237.744 98.14C237.088 97.836 236.336 97.684 235.488 97.684C234.656 97.684 233.904 97.836 233.232 98.14C232.56 98.444 232.024 98.884 231.624 99.46C231.24 100.036 231.048 100.74 231.048 101.572C231.048 102.388 231.24 103.084 231.624 103.66C232.008 104.22 232.536 104.652 233.208 104.956C233.88 105.244 234.64 105.388 235.488 105.388ZM245.354 95.572H248.474V107.5H245.354V95.572ZM254.018 95.308C254.754 95.308 255.434 95.404 256.058 95.596C256.682 95.788 257.226 96.084 257.69 96.484C258.154 96.884 258.514 97.396 258.77 98.02C259.026 98.628 259.154 99.356 259.154 100.204V107.5H256.034V100.756C256.034 99.748 255.786 99.012 255.29 98.548C254.81 98.068 254.018 97.828 252.914 97.828C252.082 97.828 251.33 97.988 250.658 98.308C249.986 98.628 249.442 99.036 249.026 99.532C248.61 100.012 248.37 100.516 248.306 101.044L248.282 99.82C248.362 99.26 248.546 98.716 248.834 98.188C249.122 97.66 249.506 97.18 249.986 96.748C250.482 96.3 251.066 95.948 251.738 95.692C252.41 95.436 253.17 95.308 254.018 95.308Z" fill="#FAFAFA"/>
<rect x="67" y="161" width="298" height="70" rx="35" stroke="#9F7BDC" stroke-width="2"/>
<path d="M172.848 203.5V187.972H181.8C183.88 187.972 185.456 188.324 186.528 189.028C187.616 189.716 188.16 190.748 188.16 192.124C188.16 193.004 187.944 193.7 187.512 194.212C187.08 194.708 186.464 195.076 185.664 195.316C184.88 195.556 183.952 195.708 182.88 195.772L182.976 195.604C183.76 195.62 184.496 195.676 185.184 195.772C185.888 195.868 186.504 196.044 187.032 196.3C187.56 196.556 187.976 196.916 188.28 197.38C188.584 197.828 188.736 198.42 188.736 199.156C188.736 200.116 188.48 200.916 187.968 201.556C187.456 202.18 186.744 202.652 185.832 202.972C184.92 203.292 183.864 203.468 182.664 203.5H172.848ZM176.04 200.86H182.328C183.336 200.86 184.112 200.7 184.656 200.38C185.2 200.044 185.472 199.516 185.472 198.796C185.472 198.268 185.312 197.884 184.992 197.644C184.672 197.404 184.248 197.26 183.72 197.212C183.192 197.148 182.624 197.116 182.016 197.116H176.04V200.86ZM176.04 194.548H181.68C182.688 194.548 183.464 194.404 184.008 194.116C184.552 193.812 184.824 193.3 184.824 192.58C184.824 191.86 184.552 191.356 184.008 191.068C183.464 190.764 182.744 190.612 181.848 190.612H176.04V194.548ZM204.967 203.5H201.847V191.572H204.967V203.5ZM202.015 197.764L202.039 198.58C202.007 198.804 201.927 199.132 201.799 199.564C201.671 199.98 201.471 200.428 201.199 200.908C200.943 201.388 200.607 201.852 200.191 202.3C199.775 202.732 199.263 203.092 198.655 203.38C198.047 203.652 197.327 203.788 196.495 203.788C195.839 203.788 195.191 203.708 194.551 203.548C193.927 203.388 193.359 203.124 192.847 202.756C192.335 202.372 191.927 201.86 191.623 201.22C191.319 200.58 191.167 199.772 191.167 198.796V191.572H194.287V198.268C194.287 199.036 194.407 199.644 194.647 200.092C194.903 200.524 195.271 200.828 195.751 201.004C196.231 201.18 196.799 201.268 197.455 201.268C198.319 201.268 199.063 201.084 199.687 200.716C200.311 200.332 200.815 199.868 201.199 199.324C201.599 198.78 201.871 198.26 202.015 197.764ZM206.967 191.572H216.231V193.996H206.967V191.572ZM210.039 188.308H213.159V203.5H210.039V188.308ZM217.373 191.572H226.637V193.996H217.373V191.572ZM220.445 188.308H223.565V203.5H220.445V188.308ZM235.488 203.788C233.984 203.788 232.656 203.548 231.504 203.068C230.368 202.588 229.48 201.892 228.84 200.98C228.2 200.052 227.88 198.916 227.88 197.572C227.88 196.228 228.2 195.092 228.84 194.164C229.48 193.22 230.368 192.508 231.504 192.028C232.656 191.548 233.984 191.308 235.488 191.308C236.992 191.308 238.304 191.548 239.424 192.028C240.56 192.508 241.448 193.22 242.088 194.164C242.728 195.092 243.048 196.228 243.048 197.572C243.048 198.916 242.728 200.052 242.088 200.98C241.448 201.892 240.56 202.588 239.424 203.068C238.304 203.548 236.992 203.788 235.488 203.788ZM235.488 201.388C236.32 201.388 237.064 201.244 237.72 200.956C238.392 200.652 238.92 200.22 239.304 199.66C239.688 199.084 239.88 198.388 239.88 197.572C239.88 196.756 239.688 196.06 239.304 195.484C238.92 194.892 238.4 194.444 237.744 194.14C237.088 193.836 236.336 193.684 235.488 193.684C234.656 193.684 233.904 193.836 233.232 194.14C232.56 194.444 232.024 194.884 231.624 195.46C231.24 196.036 231.048 196.74 231.048 197.572C231.048 198.388 231.24 199.084 231.624 199.66C232.008 200.22 232.536 200.652 233.208 200.956C233.88 201.244 234.64 201.388 235.488 201.388ZM245.354 191.572H248.474V203.5H245.354V191.572ZM254.018 191.308C254.754 191.308 255.434 191.404 256.058 191.596C256.682 191.788 257.226 192.084 257.69 192.484C258.154 192.884 258.514 193.396 258.77 194.02C259.026 194.628 259.154 195.356 259.154 196.204V203.5H256.034V196.756C256.034 195.748 255.786 195.012 255.29 194.548C254.81 194.068 254.018 193.828 252.914 193.828C252.082 193.828 251.33 193.988 250.658 194.308C249.986 194.628 249.442 195.036 249.026 195.532C248.61 196.012 248.37 196.516 248.306 197.044L248.282 195.82C248.362 195.26 248.546 194.716 248.834 194.188C249.122 193.66 249.506 193.18 249.986 192.748C250.482 192.3 251.066 191.948 251.738 191.692C252.41 191.436 253.17 191.308 254.018 191.308Z" fill="#9F7BDC"/>
<rect x="66" y="256" width="300" height="72" rx="36" fill="url(#paint1_linear_157_2277)"/>
<path d="M172.848 299.5V283.972H181.8C183.88 283.972 185.456 284.324 186.528 285.028C187.616 285.716 188.16 286.748 188.16 288.124C188.16 289.004 187.944 289.7 187.512 290.212C187.08 290.708 186.464 291.076 185.664 291.316C184.88 291.556 183.952 291.708 182.88 291.772L182.976 291.604C183.76 291.62 184.496 291.676 185.184 291.772C185.888 291.868 186.504 292.044 187.032 292.3C187.56 292.556 187.976 292.916 188.28 293.38C188.584 293.828 188.736 294.42 188.736 295.156C188.736 296.116 188.48 296.916 187.968 297.556C187.456 298.18 186.744 298.652 185.832 298.972C184.92 299.292 183.864 299.468 182.664 299.5H172.848ZM176.04 296.86H182.328C183.336 296.86 184.112 296.7 184.656 296.38C185.2 296.044 185.472 295.516 185.472 294.796C185.472 294.268 185.312 293.884 184.992 293.644C184.672 293.404 184.248 293.26 183.72 293.212C183.192 293.148 182.624 293.116 182.016 293.116H176.04V296.86ZM176.04 290.548H181.68C182.688 290.548 183.464 290.404 184.008 290.116C184.552 289.812 184.824 289.3 184.824 288.58C184.824 287.86 184.552 287.356 184.008 287.068C183.464 286.764 182.744 286.612 181.848 286.612H176.04V290.548ZM204.967 299.5H201.847V287.572H204.967V299.5ZM202.015 293.764L202.039 294.58C202.007 294.804 201.927 295.132 201.799 295.564C201.671 295.98 201.471 296.428 201.199 296.908C200.943 297.388 200.607 297.852 200.191 298.3C199.775 298.732 199.263 299.092 198.655 299.38C198.047 299.652 197.327 299.788 196.495 299.788C195.839 299.788 195.191 299.708 194.551 299.548C193.927 299.388 193.359 299.124 192.847 298.756C192.335 298.372 191.927 297.86 191.623 297.22C191.319 296.58 191.167 295.772 191.167 294.796V287.572H194.287V294.268C194.287 295.036 194.407 295.644 194.647 296.092C194.903 296.524 195.271 296.828 195.751 297.004C196.231 297.18 196.799 297.268 197.455 297.268C198.319 297.268 199.063 297.084 199.687 296.716C200.311 296.332 200.815 295.868 201.199 295.324C201.599 294.78 201.871 294.26 202.015 293.764ZM206.967 287.572H216.231V289.996H206.967V287.572ZM210.039 284.308H213.159V299.5H210.039V284.308ZM217.373 287.572H226.637V289.996H217.373V287.572ZM220.445 284.308H223.565V299.5H220.445V284.308ZM235.488 299.788C233.984 299.788 232.656 299.548 231.504 299.068C230.368 298.588 229.48 297.892 228.84 296.98C228.2 296.052 227.88 294.916 227.88 293.572C227.88 292.228 228.2 291.092 228.84 290.164C229.48 289.22 230.368 288.508 231.504 288.028C232.656 287.548 233.984 287.308 235.488 287.308C236.992 287.308 238.304 287.548 239.424 288.028C240.56 288.508 241.448 289.22 242.088 290.164C242.728 291.092 243.048 292.228 243.048 293.572C243.048 294.916 242.728 296.052 242.088 296.98C241.448 297.892 240.56 298.588 239.424 299.068C238.304 299.548 236.992 299.788 235.488 299.788ZM235.488 297.388C236.32 297.388 237.064 297.244 237.72 296.956C238.392 296.652 238.92 296.22 239.304 295.66C239.688 295.084 239.88 294.388 239.88 293.572C239.88 292.756 239.688 292.06 239.304 291.484C238.92 290.892 238.4 290.444 237.744 290.14C237.088 289.836 236.336 289.684 235.488 289.684C234.656 289.684 233.904 289.836 233.232 290.14C232.56 290.444 232.024 290.884 231.624 291.46C231.24 292.036 231.048 292.74 231.048 293.572C231.048 294.388 231.24 295.084 231.624 295.66C232.008 296.22 232.536 296.652 233.208 296.956C233.88 297.244 234.64 297.388 235.488 297.388ZM245.354 287.572H248.474V299.5H245.354V287.572ZM254.018 287.308C254.754 287.308 255.434 287.404 256.058 287.596C256.682 287.788 257.226 288.084 257.69 288.484C258.154 288.884 258.514 289.396 258.77 290.02C259.026 290.628 259.154 291.356 259.154 292.204V299.5H256.034V292.756C256.034 291.748 255.786 291.012 255.29 290.548C254.81 290.068 254.018 289.828 252.914 289.828C252.082 289.828 251.33 289.988 250.658 290.308C249.986 290.628 249.442 291.036 249.026 291.532C248.61 292.012 248.37 292.516 248.306 293.044L248.282 291.82C248.362 291.26 248.546 290.716 248.834 290.188C249.122 289.66 249.506 289.18 249.986 288.748C250.482 288.3 251.066 287.948 251.738 287.692C252.41 287.436 253.17 287.308 254.018 287.308Z" fill="white"/>
<rect x="66" y="352" width="300" height="72" rx="36" fill="#71717A"/>
<path d="M172.848 395.5V379.972H181.8C183.88 379.972 185.456 380.324 186.528 381.028C187.616 381.716 188.16 382.748 188.16 384.124C188.16 385.004 187.944 385.7 187.512 386.212C187.08 386.708 186.464 387.076 185.664 387.316C184.88 387.556 183.952 387.708 182.88 387.772L182.976 387.604C183.76 387.62 184.496 387.676 185.184 387.772C185.888 387.868 186.504 388.044 187.032 388.3C187.56 388.556 187.976 388.916 188.28 389.38C188.584 389.828 188.736 390.42 188.736 391.156C188.736 392.116 188.48 392.916 187.968 393.556C187.456 394.18 186.744 394.652 185.832 394.972C184.92 395.292 183.864 395.468 182.664 395.5H172.848ZM176.04 392.86H182.328C183.336 392.86 184.112 392.7 184.656 392.38C185.2 392.044 185.472 391.516 185.472 390.796C185.472 390.268 185.312 389.884 184.992 389.644C184.672 389.404 184.248 389.26 183.72 389.212C183.192 389.148 182.624 389.116 182.016 389.116H176.04V392.86ZM176.04 386.548H181.68C182.688 386.548 183.464 386.404 184.008 386.116C184.552 385.812 184.824 385.3 184.824 384.58C184.824 383.86 184.552 383.356 184.008 383.068C183.464 382.764 182.744 382.612 181.848 382.612H176.04V386.548ZM204.967 395.5H201.847V383.572H204.967V395.5ZM202.015 389.764L202.039 390.58C202.007 390.804 201.927 391.132 201.799 391.564C201.671 391.98 201.471 392.428 201.199 392.908C200.943 393.388 200.607 393.852 200.191 394.3C199.775 394.732 199.263 395.092 198.655 395.38C198.047 395.652 197.327 395.788 196.495 395.788C195.839 395.788 195.191 395.708 194.551 395.548C193.927 395.388 193.359 395.124 192.847 394.756C192.335 394.372 191.927 393.86 191.623 393.22C191.319 392.58 191.167 391.772 191.167 390.796V383.572H194.287V390.268C194.287 391.036 194.407 391.644 194.647 392.092C194.903 392.524 195.271 392.828 195.751 393.004C196.231 393.18 196.799 393.268 197.455 393.268C198.319 393.268 199.063 393.084 199.687 392.716C200.311 392.332 200.815 391.868 201.199 391.324C201.599 390.78 201.871 390.26 202.015 389.764ZM206.967 383.572H216.231V385.996H206.967V383.572ZM210.039 380.308H213.159V395.5H210.039V380.308ZM217.373 383.572H226.637V385.996H217.373V383.572ZM220.445 380.308H223.565V395.5H220.445V380.308ZM235.488 395.788C233.984 395.788 232.656 395.548 231.504 395.068C230.368 394.588 229.48 393.892 228.84 392.98C228.2 392.052 227.88 390.916 227.88 389.572C227.88 388.228 228.2 387.092 228.84 386.164C229.48 385.22 230.368 384.508 231.504 384.028C232.656 383.548 233.984 383.308 235.488 383.308C236.992 383.308 238.304 383.548 239.424 384.028C240.56 384.508 241.448 385.22 242.088 386.164C242.728 387.092 243.048 388.228 243.048 389.572C243.048 390.916 242.728 392.052 242.088 392.98C241.448 393.892 240.56 394.588 239.424 395.068C238.304 395.548 236.992 395.788 235.488 395.788ZM235.488 393.388C236.32 393.388 237.064 393.244 237.72 392.956C238.392 392.652 238.92 392.22 239.304 391.66C239.688 391.084 239.88 390.388 239.88 389.572C239.88 388.756 239.688 388.06 239.304 387.484C238.92 386.892 238.4 386.444 237.744 386.14C237.088 385.836 236.336 385.684 235.488 385.684C234.656 385.684 233.904 385.836 233.232 386.14C232.56 386.444 232.024 386.884 231.624 387.46C231.24 388.036 231.048 388.74 231.048 389.572C231.048 390.388 231.24 391.084 231.624 391.66C232.008 392.22 232.536 392.652 233.208 392.956C233.88 393.244 234.64 393.388 235.488 393.388ZM245.354 383.572H248.474V395.5H245.354V383.572ZM254.018 383.308C254.754 383.308 255.434 383.404 256.058 383.596C256.682 383.788 257.226 384.084 257.69 384.484C258.154 384.884 258.514 385.396 258.77 386.02C259.026 386.628 259.154 387.356 259.154 388.204V395.5H256.034V388.756C256.034 387.748 255.786 387.012 255.29 386.548C254.81 386.068 254.018 385.828 252.914 385.828C252.082 385.828 251.33 385.988 250.658 386.308C249.986 386.628 249.442 387.036 249.026 387.532C248.61 388.012 248.37 388.516 248.306 389.044L248.282 387.82C248.362 387.26 248.546 386.716 248.834 386.188C249.122 385.66 249.506 385.18 249.986 384.748C250.482 384.3 251.066 383.948 251.738 383.692C252.41 383.436 253.17 383.308 254.018 383.308Z" fill="#E4E4E7"/>
<g clip-path="url(#clip1_157_2277)">
<rect x="390" y="64" width="300" height="72" rx="36" fill="#9F7BDC"/>
<path d="M440.228 91.972C441.972 91.972 443.428 92.18 444.596 92.596C445.764 93.012 446.692 93.58 447.38 94.3C448.084 95.004 448.58 95.82 448.868 96.748C449.172 97.676 449.324 98.652 449.324 99.676C449.324 100.7 449.156 101.684 448.82 102.628C448.5 103.572 447.98 104.412 447.26 105.148C446.556 105.868 445.62 106.444 444.452 106.876C443.3 107.292 441.892 107.5 440.228 107.5H431.348V91.972H440.228ZM434.54 104.764H440.156C441.308 104.764 442.26 104.628 443.012 104.356C443.78 104.068 444.388 103.684 444.836 103.204C445.284 102.724 445.604 102.18 445.796 101.572C445.988 100.964 446.084 100.332 446.084 99.676C446.084 99.02 445.988 98.396 445.796 97.804C445.604 97.212 445.284 96.684 444.836 96.22C444.388 95.756 443.78 95.388 443.012 95.116C442.26 94.844 441.308 94.708 440.156 94.708H434.54V104.764ZM452.034 95.572H455.154V107.5H452.034V95.572ZM459.738 98.14C458.842 98.14 458.066 98.316 457.41 98.668C456.754 99.004 456.226 99.42 455.826 99.916C455.426 100.412 455.146 100.892 454.986 101.356L454.962 100.036C454.978 99.844 455.042 99.564 455.154 99.196C455.266 98.812 455.434 98.404 455.658 97.972C455.882 97.524 456.178 97.1 456.546 96.7C456.914 96.284 457.362 95.948 457.89 95.692C458.418 95.436 459.034 95.308 459.738 95.308V98.14ZM468.699 107.788C467.195 107.788 465.867 107.548 464.715 107.068C463.579 106.588 462.691 105.892 462.051 104.98C461.411 104.052 461.091 102.916 461.091 101.572C461.091 100.228 461.411 99.092 462.051 98.164C462.691 97.22 463.579 96.508 464.715 96.028C465.867 95.548 467.195 95.308 468.699 95.308C470.203 95.308 471.515 95.548 472.635 96.028C473.771 96.508 474.659 97.22 475.299 98.164C475.939 99.092 476.259 100.228 476.259 101.572C476.259 102.916 475.939 104.052 475.299 104.98C474.659 105.892 473.771 106.588 472.635 107.068C471.515 107.548 470.203 107.788 468.699 107.788ZM468.699 105.388C469.531 105.388 470.275 105.244 470.931 104.956C471.603 104.652 472.131 104.22 472.515 103.66C472.899 103.084 473.091 102.388 473.091 101.572C473.091 100.756 472.899 100.06 472.515 99.484C472.131 98.892 471.611 98.444 470.955 98.14C470.299 97.836 469.547 97.684 468.699 97.684C467.867 97.684 467.115 97.836 466.443 98.14C465.771 98.444 465.235 98.884 464.835 99.46C464.451 100.036 464.259 100.74 464.259 101.572C464.259 102.388 464.451 103.084 464.835 103.66C465.219 104.22 465.747 104.652 466.419 104.956C467.091 105.244 467.851 105.388 468.699 105.388ZM487.253 107.788C486.197 107.788 485.293 107.604 484.541 107.236C483.805 106.852 483.205 106.356 482.741 105.748C482.277 105.124 481.933 104.444 481.709 103.708C481.485 102.972 481.373 102.252 481.373 101.548C481.373 100.668 481.477 99.852 481.685 99.1C481.909 98.348 482.253 97.692 482.717 97.132C483.181 96.556 483.781 96.108 484.517 95.788C485.269 95.468 486.181 95.308 487.253 95.308C488.453 95.308 489.533 95.572 490.493 96.1C491.453 96.628 492.213 97.364 492.773 98.308C493.349 99.236 493.637 100.316 493.637 101.548C493.637 102.812 493.349 103.916 492.773 104.86C492.197 105.788 491.429 106.508 490.469 107.02C489.509 107.532 488.437 107.788 487.253 107.788ZM486.245 105.364C487.093 105.364 487.829 105.204 488.453 104.884C489.093 104.564 489.581 104.124 489.917 103.564C490.269 102.988 490.445 102.316 490.445 101.548C490.445 100.396 490.077 99.468 489.341 98.764C488.621 98.06 487.589 97.708 486.245 97.708C485.397 97.708 484.621 97.86 483.917 98.164C483.229 98.468 482.685 98.908 482.285 99.484C481.885 100.044 481.685 100.732 481.685 101.548C481.685 102.316 481.869 102.988 482.237 103.564C482.605 104.124 483.133 104.564 483.821 104.884C484.509 105.204 485.317 105.364 486.245 105.364ZM478.565 95.572H481.541L481.685 98.74V112.3H478.565V95.572ZM501.74 107.764C500.54 107.764 499.452 107.508 498.476 106.996C497.516 106.468 496.756 105.74 496.196 104.812C495.636 103.868 495.356 102.78 495.356 101.548C495.356 100.284 495.628 99.188 496.172 98.26C496.732 97.332 497.492 96.612 498.452 96.1C499.412 95.572 500.508 95.308 501.74 95.308C502.812 95.308 503.724 95.468 504.476 95.788C505.228 96.108 505.836 96.556 506.3 97.132C506.764 97.692 507.1 98.348 507.308 99.1C507.532 99.852 507.644 100.668 507.644 101.548C507.644 102.252 507.532 102.972 507.308 103.708C507.084 104.428 506.74 105.1 506.276 105.724C505.812 106.332 505.204 106.828 504.452 107.212C503.7 107.58 502.796 107.764 501.74 107.764ZM502.748 105.364C503.692 105.364 504.508 105.204 505.196 104.884C505.884 104.564 506.412 104.116 506.78 103.54C507.148 102.964 507.332 102.3 507.332 101.548C507.332 100.732 507.14 100.044 506.756 99.484C506.388 98.908 505.86 98.468 505.172 98.164C504.5 97.86 503.692 97.708 502.748 97.708C501.42 97.708 500.388 98.06 499.652 98.764C498.916 99.468 498.548 100.396 498.548 101.548C498.548 102.316 498.724 102.988 499.076 103.564C499.428 104.124 499.916 104.564 500.54 104.884C501.18 105.204 501.916 105.364 502.748 105.364ZM507.332 90.772H510.452V107.5H507.548C507.5 107.132 507.452 106.66 507.404 106.084C507.356 105.492 507.332 104.94 507.332 104.428V90.772ZM520.847 107.788C519.343 107.788 518.015 107.548 516.863 107.068C515.727 106.588 514.839 105.892 514.199 104.98C513.559 104.052 513.239 102.916 513.239 101.572C513.239 100.228 513.559 99.092 514.199 98.164C514.839 97.22 515.727 96.508 516.863 96.028C518.015 95.548 519.343 95.308 520.847 95.308C522.351 95.308 523.663 95.548 524.783 96.028C525.919 96.508 526.807 97.22 527.447 98.164C528.087 99.092 528.407 100.228 528.407 101.572C528.407 102.916 528.087 104.052 527.447 104.98C526.807 105.892 525.919 106.588 524.783 107.068C523.663 107.548 522.351 107.788 520.847 107.788ZM520.847 105.388C521.679 105.388 522.423 105.244 523.079 104.956C523.751 104.652 524.279 104.22 524.663 103.66C525.047 103.084 525.239 102.388 525.239 101.572C525.239 100.756 525.047 100.06 524.663 99.484C524.279 98.892 523.759 98.444 523.103 98.14C522.447 97.836 521.695 97.684 520.847 97.684C520.015 97.684 519.263 97.836 518.591 98.14C517.919 98.444 517.383 98.884 516.983 99.46C516.599 100.036 516.407 100.74 516.407 101.572C516.407 102.388 516.599 103.084 516.983 103.66C517.367 104.22 517.895 104.652 518.567 104.956C519.239 105.244 519.999 105.388 520.847 105.388ZM545.797 105.34L544.813 105.316L548.701 95.572H552.133L546.877 107.5H543.949L540.109 97.876H541.165L537.205 107.5H534.277L529.165 95.572H532.597L536.341 105.34H535.357L538.861 95.572H542.437L545.797 105.34ZM553.963 95.572H557.083V107.5H553.963V95.572ZM562.627 95.308C563.363 95.308 564.043 95.404 564.667 95.596C565.291 95.788 565.835 96.084 566.299 96.484C566.763 96.884 567.123 97.396 567.379 98.02C567.635 98.628 567.763 99.356 567.763 100.204V107.5H564.643V100.756C564.643 99.748 564.395 99.012 563.899 98.548C563.419 98.068 562.627 97.828 561.523 97.828C560.691 97.828 559.939 97.988 559.267 98.308C558.595 98.628 558.051 99.036 557.635 99.532C557.219 100.012 556.979 100.516 556.915 101.044L556.891 99.82C556.971 99.26 557.155 98.716 557.443 98.188C557.731 97.66 558.115 97.18 558.595 96.748C559.091 96.3 559.675 95.948 560.347 95.692C561.019 95.436 561.779 95.308 562.627 95.308Z" fill="#FAFAFA"/>
<rect x="609" y="64" width="1" height="72" fill="#885EC0"/>
</g>
<g clip-path="url(#clip2_157_2277)">
<rect x="66" y="498" width="624" height="72" rx="36" fill="#F4F4F5"/>
<path d="M90.84 536.388H93.048C93.096 537.012 93.304 537.58 93.672 538.092C94.056 538.588 94.568 538.98 95.208 539.268C95.864 539.556 96.624 539.7 97.488 539.7C98.24 539.7 98.864 539.596 99.36 539.388C99.856 539.18 100.224 538.9 100.464 538.548C100.72 538.18 100.848 537.748 100.848 537.252C100.848 536.756 100.712 536.364 100.44 536.076C100.168 535.772 99.76 535.524 99.216 535.332C98.672 535.124 98 534.924 97.2 534.732C96.496 534.556 95.8 534.348 95.112 534.108C94.44 533.852 93.816 533.54 93.24 533.172C92.68 532.804 92.224 532.364 91.872 531.852C91.536 531.324 91.368 530.692 91.368 529.956C91.368 529.172 91.584 528.46 92.016 527.82C92.448 527.164 93.08 526.644 93.912 526.26C94.76 525.86 95.784 525.66 96.984 525.66C98.84 525.66 100.24 526.124 101.184 527.052C102.144 527.98 102.608 529.22 102.576 530.772H100.416C100.368 529.684 100.024 528.908 99.384 528.444C98.744 527.964 97.912 527.724 96.888 527.724C96.008 527.724 95.256 527.908 94.632 528.276C94.008 528.628 93.696 529.188 93.696 529.956C93.696 530.292 93.768 530.588 93.912 530.844C94.056 531.084 94.296 531.308 94.632 531.516C94.968 531.724 95.416 531.924 95.976 532.116C96.552 532.308 97.264 532.516 98.112 532.74C98.752 532.884 99.368 533.068 99.96 533.292C100.568 533.516 101.112 533.796 101.592 534.132C102.072 534.468 102.448 534.9 102.72 535.428C103.008 535.956 103.152 536.604 103.152 537.372C103.152 538.188 102.952 538.932 102.552 539.604C102.152 540.26 101.528 540.788 100.68 541.188C99.848 541.572 98.768 541.764 97.44 541.764C96.384 541.764 95.464 541.628 94.68 541.356C93.912 541.084 93.264 540.732 92.736 540.3C92.224 539.868 91.816 539.404 91.512 538.908C91.224 538.412 91.024 537.94 90.912 537.492C90.816 537.044 90.792 536.676 90.84 536.388ZM114.861 537.612H117.045C116.917 538.396 116.613 539.1 116.133 539.724C115.653 540.348 115.021 540.844 114.237 541.212C113.453 541.58 112.533 541.764 111.477 541.764C110.229 541.764 109.117 541.5 108.141 540.972C107.165 540.444 106.397 539.716 105.837 538.788C105.277 537.86 104.997 536.78 104.997 535.548C104.997 534.3 105.269 533.212 105.813 532.284C106.357 531.34 107.109 530.604 108.069 530.076C109.029 529.548 110.125 529.284 111.357 529.284C112.653 529.284 113.741 529.54 114.621 530.052C115.501 530.564 116.149 531.324 116.565 532.332C116.997 533.324 117.173 534.564 117.093 536.052H107.277C107.357 536.772 107.573 537.412 107.925 537.972C108.293 538.532 108.773 538.972 109.365 539.292C109.973 539.612 110.669 539.772 111.453 539.772C112.333 539.772 113.069 539.572 113.661 539.172C114.253 538.772 114.653 538.252 114.861 537.612ZM111.381 531.252C110.341 531.252 109.477 531.532 108.789 532.092C108.101 532.636 107.645 533.364 107.421 534.276H114.789C114.725 533.3 114.373 532.556 113.733 532.044C113.093 531.516 112.309 531.252 111.381 531.252ZM124.464 541.74C123.44 541.74 122.504 541.476 121.656 540.948C120.808 540.42 120.136 539.692 119.64 538.764C119.144 537.82 118.896 536.74 118.896 535.524C118.896 534.308 119.144 533.236 119.64 532.308C120.152 531.364 120.848 530.628 121.728 530.1C122.608 529.556 123.592 529.284 124.68 529.284C125.88 529.284 126.808 529.564 127.464 530.124C128.136 530.684 128.6 531.436 128.856 532.38C129.128 533.324 129.264 534.372 129.264 535.524C129.264 536.164 129.184 536.844 129.024 537.564C128.864 538.284 128.608 538.964 128.256 539.604C127.904 540.244 127.416 540.764 126.792 541.164C126.168 541.548 125.392 541.74 124.464 541.74ZM125.112 539.748C125.96 539.748 126.672 539.564 127.248 539.196C127.84 538.812 128.28 538.3 128.568 537.66C128.856 537.02 129 536.308 129 535.524C129 534.676 128.848 533.932 128.544 533.292C128.256 532.652 127.816 532.156 127.224 531.804C126.648 531.452 125.944 531.276 125.112 531.276C123.864 531.276 122.896 531.676 122.208 532.476C121.536 533.276 121.2 534.292 121.2 535.524C121.2 536.356 121.368 537.092 121.704 537.732C122.04 538.356 122.496 538.852 123.072 539.22C123.664 539.572 124.344 539.748 125.112 539.748ZM129 529.524H131.304V541.5H129.192C129.192 541.5 129.176 541.356 129.144 541.068C129.112 540.764 129.08 540.404 129.048 539.988C129.016 539.572 129 539.204 129 538.884V529.524ZM134.309 529.524H136.613V541.5H134.309V529.524ZM140.669 531.564C139.837 531.564 139.125 531.756 138.533 532.14C137.957 532.524 137.493 532.996 137.141 533.556C136.805 534.116 136.581 534.652 136.469 535.164L136.445 533.796C136.461 533.636 136.501 533.388 136.565 533.052C136.645 532.7 136.781 532.308 136.973 531.876C137.165 531.444 137.421 531.036 137.741 530.652C138.061 530.252 138.461 529.924 138.941 529.668C139.421 529.412 139.997 529.284 140.669 529.284V531.564ZM154.482 536.94C154.386 537.932 154.066 538.796 153.522 539.532C152.994 540.252 152.298 540.804 151.434 541.188C150.57 541.572 149.61 541.764 148.554 541.764C147.386 541.764 146.314 541.524 145.338 541.044C144.362 540.548 143.578 539.836 142.986 538.908C142.41 537.964 142.122 536.844 142.122 535.548C142.122 534.236 142.41 533.116 142.986 532.188C143.578 531.244 144.362 530.524 145.338 530.028C146.314 529.532 147.386 529.284 148.554 529.284C149.61 529.284 150.562 529.476 151.41 529.86C152.258 530.244 152.954 530.796 153.498 531.516C154.042 532.22 154.37 533.068 154.482 534.06H152.394C152.122 533.196 151.634 532.516 150.93 532.02C150.242 531.508 149.45 531.252 148.554 531.252C147.818 531.252 147.13 531.42 146.49 531.756C145.866 532.092 145.362 532.58 144.978 533.22C144.61 533.844 144.426 534.62 144.426 535.548C144.426 536.444 144.61 537.212 144.978 537.852C145.362 538.476 145.866 538.956 146.49 539.292C147.114 539.612 147.802 539.772 148.554 539.772C149.578 539.772 150.41 539.524 151.05 539.028C151.69 538.532 152.146 537.836 152.418 536.94H154.482ZM166.167 541.5V534.276C166.167 533.636 166.063 533.108 165.855 532.692C165.647 532.276 165.335 531.964 164.919 531.756C164.503 531.532 163.975 531.42 163.335 531.42C162.631 531.42 161.983 531.588 161.391 531.924C160.815 532.244 160.343 532.684 159.975 533.244C159.607 533.788 159.383 534.404 159.303 535.092L159.279 533.724C159.359 533.1 159.527 532.516 159.783 531.972C160.055 531.428 160.391 530.956 160.791 530.556C161.207 530.156 161.687 529.844 162.231 529.62C162.775 529.396 163.367 529.284 164.007 529.284C164.679 529.284 165.287 529.38 165.831 529.572C166.375 529.748 166.839 530.028 167.223 530.412C167.623 530.78 167.927 531.236 168.135 531.78C168.343 532.308 168.447 532.916 168.447 533.604V541.5H166.167ZM157.167 541.5V524.724H159.447V541.5H157.167Z" fill="#A1A1AA"/>
<g clip-path="url(#clip3_157_2277)">
<path d="M659.613 537.516C661.066 535.534 661.716 533.077 661.435 530.636C661.153 528.195 659.96 525.95 658.095 524.351C656.23 522.751 653.829 521.915 651.374 522.01C648.918 522.105 646.589 523.123 644.852 524.861C643.115 526.599 642.099 528.929 642.006 531.384C641.913 533.84 642.751 536.24 644.351 538.104C645.952 539.968 648.198 541.16 650.639 541.439C653.08 541.719 655.537 541.067 657.518 539.613H657.516C657.56 539.673 657.609 539.73 657.663 539.785L663.438 545.56C663.72 545.842 664.101 546 664.499 546C664.897 546 665.279 545.842 665.56 545.561C665.842 545.28 666 544.898 666 544.5C666 544.103 665.842 543.721 665.561 543.439L659.786 537.664C659.732 537.61 659.675 537.561 659.613 537.516ZM660 531.75C660 532.833 659.787 533.906 659.372 534.907C658.958 535.908 658.35 536.817 657.584 537.584C656.818 538.35 655.908 538.957 654.908 539.372C653.907 539.787 652.834 540 651.75 540C650.667 540 649.594 539.787 648.593 539.372C647.592 538.957 646.683 538.35 645.917 537.584C645.151 536.817 644.543 535.908 644.128 534.907C643.714 533.906 643.5 532.833 643.5 531.75C643.5 529.562 644.37 527.463 645.917 525.916C647.464 524.369 649.562 523.5 651.75 523.5C653.938 523.5 656.037 524.369 657.584 525.916C659.131 527.463 660 529.562 660 531.75Z" fill="#71717A"/>
</g>
</g>
<path d="M69.84 620.888H72.048C72.096 621.512 72.304 622.08 72.672 622.592C73.056 623.088 73.568 623.48 74.208 623.768C74.864 624.056 75.624 624.2 76.488 624.2C77.24 624.2 77.864 624.096 78.36 623.888C78.856 623.68 79.224 623.4 79.464 623.048C79.72 622.68 79.848 622.248 79.848 621.752C79.848 621.256 79.712 620.864 79.44 620.576C79.168 620.272 78.76 620.024 78.216 619.832C77.672 619.624 77 619.424 76.2 619.232C75.496 619.056 74.8 618.848 74.112 618.608C73.44 618.352 72.816 618.04 72.24 617.672C71.68 617.304 71.224 616.864 70.872 616.352C70.536 615.824 70.368 615.192 70.368 614.456C70.368 613.672 70.584 612.96 71.016 612.32C71.448 611.664 72.08 611.144 72.912 610.76C73.76 610.36 74.784 610.16 75.984 610.16C77.84 610.16 79.24 610.624 80.184 611.552C81.144 612.48 81.608 613.72 81.576 615.272H79.416C79.368 614.184 79.024 613.408 78.384 612.944C77.744 612.464 76.912 612.224 75.888 612.224C75.008 612.224 74.256 612.408 73.632 612.776C73.008 613.128 72.696 613.688 72.696 614.456C72.696 614.792 72.768 615.088 72.912 615.344C73.056 615.584 73.296 615.808 73.632 616.016C73.968 616.224 74.416 616.424 74.976 616.616C75.552 616.808 76.264 617.016 77.112 617.24C77.752 617.384 78.368 617.568 78.96 617.792C79.568 618.016 80.112 618.296 80.592 618.632C81.072 618.968 81.448 619.4 81.72 619.928C82.008 620.456 82.152 621.104 82.152 621.872C82.152 622.688 81.952 623.432 81.552 624.104C81.152 624.76 80.528 625.288 79.68 625.688C78.848 626.072 77.768 626.264 76.44 626.264C75.384 626.264 74.464 626.128 73.68 625.856C72.912 625.584 72.264 625.232 71.736 624.8C71.224 624.368 70.816 623.904 70.512 623.408C70.224 622.912 70.024 622.44 69.912 621.992C69.816 621.544 69.792 621.176 69.84 620.888ZM83.7814 614.024H91.5334V616.016H83.7814V614.024ZM86.5174 610.856H88.7974V626H86.5174V610.856ZM98.4482 626.24C97.4242 626.24 96.4882 625.976 95.6402 625.448C94.7922 624.92 94.1202 624.192 93.6242 623.264C93.1282 622.32 92.8802 621.24 92.8802 620.024C92.8802 618.808 93.1282 617.736 93.6242 616.808C94.1362 615.864 94.8322 615.128 95.7122 614.6C96.5922 614.056 97.5762 613.784 98.6642 613.784C99.8642 613.784 100.792 614.064 101.448 614.624C102.12 615.184 102.584 615.936 102.84 616.88C103.112 617.824 103.248 618.872 103.248 620.024C103.248 620.664 103.168 621.344 103.008 622.064C102.848 622.784 102.592 623.464 102.24 624.104C101.888 624.744 101.4 625.264 100.776 625.664C100.152 626.048 99.3762 626.24 98.4482 626.24ZM99.0962 624.248C99.9442 624.248 100.656 624.064 101.232 623.696C101.824 623.312 102.264 622.8 102.552 622.16C102.84 621.52 102.984 620.808 102.984 620.024C102.984 619.176 102.832 618.432 102.528 617.792C102.24 617.152 101.8 616.656 101.208 616.304C100.632 615.952 99.9282 615.776 99.0962 615.776C97.8482 615.776 96.8802 616.176 96.1922 616.976C95.5202 617.776 95.1842 618.792 95.1842 620.024C95.1842 620.856 95.3522 621.592 95.6882 622.232C96.0242 622.856 96.4802 623.352 97.0562 623.72C97.6482 624.072 98.3282 624.248 99.0962 624.248ZM102.984 614.024H105.288V626H103.176C103.176 626 103.16 625.856 103.128 625.568C103.096 625.264 103.064 624.904 103.032 624.488C103 624.072 102.984 623.704 102.984 623.384V614.024ZM108.293 614.024H110.597V626H108.293V614.024ZM114.653 616.064C113.821 616.064 113.109 616.256 112.517 616.64C111.941 617.024 111.477 617.496 111.125 618.056C110.789 618.616 110.565 619.152 110.453 619.664L110.429 618.296C110.445 618.136 110.485 617.888 110.549 617.552C110.629 617.2 110.765 616.808 110.957 616.376C111.149 615.944 111.405 615.536 111.725 615.152C112.045 614.752 112.445 614.424 112.925 614.168C113.405 613.912 113.981 613.784 114.653 613.784V616.064ZM115.914 614.024H123.666V616.016H115.914V614.024ZM118.65 610.856H120.93V626H118.65V610.856ZM137.745 610.424C139.361 610.424 140.713 610.632 141.801 611.048C142.905 611.448 143.785 612.008 144.441 612.728C145.113 613.448 145.593 614.272 145.881 615.2C146.169 616.128 146.313 617.112 146.313 618.152C146.313 619.176 146.153 620.16 145.833 621.104C145.529 622.048 145.033 622.888 144.345 623.624C143.673 624.36 142.793 624.944 141.705 625.376C140.617 625.792 139.297 626 137.745 626H131.505V610.424H137.745ZM133.809 623.912H137.721C138.953 623.912 139.969 623.752 140.769 623.432C141.569 623.096 142.201 622.656 142.665 622.112C143.145 621.552 143.481 620.928 143.673 620.24C143.881 619.552 143.985 618.856 143.985 618.152C143.985 617.432 143.881 616.736 143.673 616.064C143.481 615.392 143.145 614.792 142.665 614.264C142.201 613.72 141.569 613.296 140.769 612.992C139.969 612.672 138.953 612.512 137.721 612.512H133.809V623.912ZM153.995 626.24C152.971 626.24 152.035 625.976 151.187 625.448C150.339 624.92 149.667 624.192 149.171 623.264C148.675 622.32 148.427 621.24 148.427 620.024C148.427 618.808 148.675 617.736 149.171 616.808C149.683 615.864 150.379 615.128 151.259 614.6C152.139 614.056 153.123 613.784 154.211 613.784C155.411 613.784 156.339 614.064 156.995 614.624C157.667 615.184 158.131 615.936 158.387 616.88C158.659 617.824 158.795 618.872 158.795 620.024C158.795 620.664 158.715 621.344 158.555 622.064C158.395 622.784 158.139 623.464 157.787 624.104C157.435 624.744 156.947 625.264 156.323 625.664C155.699 626.048 154.923 626.24 153.995 626.24ZM154.643 624.248C155.491 624.248 156.203 624.064 156.779 623.696C157.371 623.312 157.811 622.8 158.099 622.16C158.387 621.52 158.531 620.808 158.531 620.024C158.531 619.176 158.379 618.432 158.075 617.792C157.787 617.152 157.347 616.656 156.755 616.304C156.179 615.952 155.475 615.776 154.643 615.776C153.395 615.776 152.427 616.176 151.739 616.976C151.067 617.776 150.731 618.792 150.731 620.024C150.731 620.856 150.899 621.592 151.235 622.232C151.571 622.856 152.027 623.352 152.603 623.72C153.195 624.072 153.875 624.248 154.643 624.248ZM158.531 614.024H160.835V626H158.723C158.723 626 158.707 625.856 158.675 625.568C158.643 625.264 158.611 624.904 158.579 624.488C158.547 624.072 158.531 623.704 158.531 623.384V614.024ZM163 614.024H170.752V616.016H163V614.024ZM165.736 610.856H168.016V626H165.736V610.856ZM181.963 622.112H184.147C184.019 622.896 183.715 623.6 183.235 624.224C182.755 624.848 182.123 625.344 181.339 625.712C180.555 626.08 179.635 626.264 178.579 626.264C177.331 626.264 176.219 626 175.243 625.472C174.267 624.944 173.499 624.216 172.939 623.288C172.379 622.36 172.099 621.28 172.099 620.048C172.099 618.8 172.371 617.712 172.915 616.784C173.459 615.84 174.211 615.104 175.171 614.576C176.131 614.048 177.227 613.784 178.459 613.784C179.755 613.784 180.843 614.04 181.723 614.552C182.603 615.064 183.251 615.824 183.667 616.832C184.099 617.824 184.275 619.064 184.195 620.552H174.379C174.459 621.272 174.675 621.912 175.027 622.472C175.395 623.032 175.875 623.472 176.467 623.792C177.075 624.112 177.771 624.272 178.555 624.272C179.435 624.272 180.171 624.072 180.763 623.672C181.355 623.272 181.755 622.752 181.963 622.112ZM178.483 615.752C177.443 615.752 176.579 616.032 175.891 616.592C175.203 617.136 174.747 617.864 174.523 618.776H181.891C181.827 617.8 181.475 617.056 180.835 616.544C180.195 616.016 179.411 615.752 178.483 615.752Z" fill="#52525B"/>
<path d="M199.527 610.88L200.127 612.68L197.391 613.544L199.239 616.04L197.679 617.168L195.807 614.504L193.911 617.168L192.351 616.04L194.175 613.568L191.511 612.728L192.111 610.904L194.871 611.84L194.847 608.792H196.743L196.719 611.816L199.527 610.88Z" fill="#EF5A5A"/>
<g clip-path="url(#clip4_157_2277)">
<rect x="69" y="645" width="297" height="72" rx="36" fill="#F4F4F5"/>
<path d="M93.6 678.3V676.5H98.328V688.5H96.408V678.3H93.6ZM101.814 678.3V676.5H110.958V678.3L104.598 692.1H102.558L109.446 677.508L109.95 678.3H101.814ZM123.586 672.9C125.154 672.9 126.466 673.108 127.522 673.524C128.594 673.924 129.45 674.484 130.09 675.204C130.73 675.924 131.194 676.748 131.482 677.676C131.77 678.604 131.914 679.588 131.914 680.628C131.914 681.668 131.762 682.66 131.458 683.604C131.154 684.548 130.666 685.388 129.994 686.124C129.338 686.86 128.482 687.444 127.426 687.876C126.37 688.292 125.09 688.5 123.586 688.5H118.522V672.9H123.586ZM120.442 686.7H123.586C124.85 686.7 125.89 686.524 126.706 686.172C127.538 685.82 128.194 685.356 128.674 684.78C129.154 684.188 129.49 683.532 129.682 682.812C129.89 682.092 129.994 681.364 129.994 680.628C129.994 679.892 129.89 679.172 129.682 678.468C129.49 677.764 129.154 677.132 128.674 676.572C128.194 675.996 127.538 675.54 126.706 675.204C125.89 674.868 124.85 674.7 123.586 674.7H120.442V686.7ZM143.181 684.636H144.981C144.853 685.42 144.565 686.124 144.117 686.748C143.685 687.356 143.109 687.844 142.389 688.212C141.685 688.564 140.869 688.74 139.941 688.74C138.821 688.74 137.813 688.476 136.917 687.948C136.021 687.404 135.309 686.668 134.781 685.74C134.269 684.796 134.013 683.724 134.013 682.524C134.013 681.324 134.261 680.252 134.757 679.308C135.269 678.364 135.965 677.62 136.845 677.076C137.725 676.532 138.717 676.26 139.821 676.26C140.989 676.26 141.973 676.524 142.773 677.052C143.589 677.564 144.189 678.324 144.573 679.332C144.973 680.324 145.133 681.548 145.053 683.004H135.933C136.013 683.788 136.229 684.476 136.581 685.068C136.933 685.66 137.397 686.124 137.973 686.46C138.549 686.78 139.205 686.94 139.941 686.94C140.757 686.94 141.445 686.732 142.005 686.316C142.581 685.884 142.973 685.324 143.181 684.636ZM139.893 678.06C138.901 678.06 138.069 678.348 137.397 678.924C136.725 679.5 136.277 680.284 136.053 681.276H143.085C143.021 680.22 142.677 679.42 142.053 678.876C141.445 678.332 140.725 678.06 139.893 678.06ZM158.185 683.988C158.073 684.98 157.753 685.836 157.225 686.556C156.713 687.26 156.065 687.804 155.281 688.188C154.497 688.556 153.649 688.74 152.737 688.74C151.713 688.74 150.753 688.492 149.857 687.996C148.961 687.5 148.233 686.788 147.673 685.86C147.129 684.916 146.857 683.804 146.857 682.524C146.857 681.244 147.129 680.14 147.673 679.212C148.233 678.268 148.961 677.54 149.857 677.028C150.753 676.516 151.713 676.26 152.737 676.26C153.649 676.26 154.489 676.452 155.257 676.836C156.041 677.22 156.689 677.764 157.201 678.468C157.729 679.172 158.057 680.012 158.185 680.988H156.433C156.161 680.076 155.689 679.364 155.017 678.852C154.345 678.324 153.585 678.06 152.737 678.06C152.049 678.06 151.401 678.236 150.793 678.588C150.185 678.94 149.697 679.452 149.329 680.124C148.961 680.78 148.777 681.58 148.777 682.524C148.777 683.452 148.961 684.252 149.329 684.924C149.697 685.58 150.177 686.084 150.769 686.436C151.377 686.772 152.033 686.94 152.737 686.94C153.713 686.94 154.505 686.684 155.113 686.172C155.737 685.644 156.185 684.916 156.457 683.988H158.185ZM170.349 684.876L167.133 687.204L166.965 686.7H174.021V688.5H165.141V686.7C166.181 685.916 167.101 685.252 167.901 684.708C168.717 684.164 169.405 683.676 169.965 683.244C170.525 682.812 170.949 682.372 171.237 681.924C171.541 681.476 171.693 680.956 171.693 680.364C171.693 679.916 171.605 679.524 171.429 679.188C171.253 678.836 170.981 678.564 170.613 678.372C170.261 678.164 169.797 678.06 169.221 678.06C168.517 678.06 167.909 678.284 167.397 678.732C166.885 679.18 166.629 679.764 166.629 680.484H164.949C164.869 679.684 165.013 678.972 165.381 678.348C165.765 677.708 166.293 677.204 166.965 676.836C167.653 676.452 168.405 676.26 169.221 676.26C169.925 676.26 170.549 676.372 171.093 676.596C171.637 676.804 172.093 677.092 172.461 677.46C172.845 677.828 173.133 678.252 173.325 678.732C173.517 679.212 173.613 679.716 173.613 680.244C173.613 680.724 173.533 681.164 173.373 681.564C173.229 681.964 173.013 682.348 172.725 682.716C172.453 683.084 172.117 683.444 171.717 683.796C171.317 684.148 170.861 684.508 170.349 684.876ZM182.064 688.74C181.04 688.74 180.08 688.492 179.184 687.996C178.288 687.5 177.56 686.788 177 685.86C176.456 684.916 176.184 683.804 176.184 682.524C176.184 681.244 176.456 680.14 177 679.212C177.56 678.268 178.288 677.54 179.184 677.028C180.08 676.516 181.04 676.26 182.064 676.26C183.088 676.26 184.04 676.516 184.92 677.028C185.816 677.54 186.536 678.268 187.08 679.212C187.624 680.14 187.896 681.244 187.896 682.524C187.896 683.804 187.624 684.916 187.08 685.86C186.536 686.788 185.816 687.5 184.92 687.996C184.04 688.492 183.088 688.74 182.064 688.74ZM182.064 686.892C182.72 686.892 183.344 686.724 183.936 686.388C184.528 686.052 185.016 685.556 185.4 684.9C185.784 684.244 185.976 683.452 185.976 682.524C185.976 681.596 185.784 680.804 185.4 680.148C185.032 679.492 184.544 678.988 183.936 678.636C183.344 678.284 182.72 678.108 182.064 678.108C181.408 678.108 180.776 678.284 180.168 678.636C179.56 678.972 179.064 679.468 178.68 680.124C178.296 680.78 178.104 681.58 178.104 682.524C178.104 683.452 178.296 684.244 178.68 684.9C179.064 685.556 179.56 686.052 180.168 686.388C180.776 686.724 181.408 686.892 182.064 686.892ZM195.334 684.876L192.118 687.204L191.95 686.7H199.006V688.5H190.126V686.7C191.166 685.916 192.086 685.252 192.886 684.708C193.702 684.164 194.39 683.676 194.95 683.244C195.51 682.812 195.934 682.372 196.222 681.924C196.526 681.476 196.678 680.956 196.678 680.364C196.678 679.916 196.59 679.524 196.414 679.188C196.238 678.836 195.966 678.564 195.598 678.372C195.246 678.164 194.782 678.06 194.206 678.06C193.502 678.06 192.894 678.284 192.382 678.732C191.87 679.18 191.614 679.764 191.614 680.484H189.934C189.854 679.684 189.998 678.972 190.366 678.348C190.75 677.708 191.278 677.204 191.95 676.836C192.638 676.452 193.39 676.26 194.206 676.26C194.91 676.26 195.534 676.372 196.078 676.596C196.622 676.804 197.078 677.092 197.446 677.46C197.83 677.828 198.118 678.252 198.31 678.732C198.502 679.212 198.598 679.716 198.598 680.244C198.598 680.724 198.518 681.164 198.358 681.564C198.214 681.964 197.998 682.348 197.71 682.716C197.438 683.084 197.102 683.444 196.702 683.796C196.302 684.148 195.846 684.508 195.334 684.876ZM206.977 682.02C207.681 682.02 208.321 682.14 208.897 682.38C209.473 682.62 209.969 682.972 210.385 683.436C210.801 683.884 211.121 684.428 211.345 685.068C211.585 685.692 211.705 686.404 211.705 687.204C211.705 688.26 211.473 689.172 211.009 689.94C210.561 690.708 209.953 691.3 209.185 691.716C208.433 692.132 207.601 692.34 206.689 692.34C206.001 692.34 205.345 692.228 204.721 692.004C204.097 691.796 203.545 691.484 203.065 691.068C202.601 690.668 202.217 690.172 201.913 689.58C201.625 689.004 201.457 688.348 201.409 687.612H203.329C203.393 688.22 203.561 688.74 203.833 689.172C204.121 689.604 204.505 689.924 204.985 690.132C205.465 690.356 206.033 690.468 206.689 690.468C207.105 690.468 207.497 690.396 207.865 690.252C208.249 690.108 208.585 689.9 208.873 689.628C209.161 689.356 209.385 689.012 209.545 688.596C209.721 688.196 209.809 687.732 209.809 687.204C209.809 686.676 209.729 686.212 209.569 685.812C209.425 685.396 209.217 685.052 208.945 684.78C208.689 684.492 208.377 684.276 208.009 684.132C207.641 683.972 207.241 683.892 206.809 683.892C206.409 683.892 206.009 683.948 205.609 684.06C205.209 684.172 204.841 684.372 204.505 684.66C204.169 684.948 203.881 685.356 203.641 685.884L201.865 685.524L202.345 676.5H210.481V678.3H204.169L203.761 685.068L203.593 684.9C203.753 684.212 204.001 683.66 204.337 683.244C204.689 682.828 205.089 682.524 205.537 682.332C206.001 682.124 206.481 682.02 206.977 682.02Z" fill="#3F3F46"/>
<g clip-path="url(#clip5_157_2277)">
<path d="M323.25 669C323.449 669 323.64 669.079 323.78 669.22C323.921 669.36 324 669.551 324 669.75V670.5H336V669.75C336 669.551 336.079 669.36 336.22 669.22C336.36 669.079 336.551 669 336.75 669C336.949 669 337.14 669.079 337.28 669.22C337.421 669.36 337.5 669.551 337.5 669.75V670.5H339C339.796 670.5 340.559 670.816 341.121 671.379C341.684 671.941 342 672.704 342 673.5V690C342 690.796 341.684 691.559 341.121 692.121C340.559 692.684 339.796 693 339 693H321C320.204 693 319.441 692.684 318.879 692.121C318.316 691.559 318 690.796 318 690V673.5C318 672.704 318.316 671.941 318.879 671.379C319.441 670.816 320.204 670.5 321 670.5H322.5V669.75C322.5 669.551 322.579 669.36 322.72 669.22C322.86 669.079 323.051 669 323.25 669ZM319.5 675V690C319.5 690.398 319.658 690.779 319.939 691.061C320.221 691.342 320.602 691.5 321 691.5H339C339.398 691.5 339.779 691.342 340.061 691.061C340.342 690.779 340.5 690.398 340.5 690V675H319.5Z" fill="#71717A"/>
</g>
</g>
<path d="M394.2 619.256V623.936H404.232V626H391.896V610.424H404.208V612.488H394.2V617.24H402.384V619.256H394.2ZM407.192 614.024H409.496V626H407.192V614.024ZM414.056 613.784C414.728 613.784 415.336 613.88 415.88 614.072C416.424 614.264 416.888 614.552 417.272 614.936C417.656 615.304 417.952 615.768 418.16 616.328C418.384 616.872 418.496 617.496 418.496 618.2V626H416.216V618.704C416.216 617.76 415.984 617.056 415.52 616.592C415.072 616.112 414.384 615.872 413.456 615.872C412.736 615.872 412.08 616.04 411.488 616.376C410.896 616.712 410.408 617.16 410.024 617.72C409.656 618.264 409.432 618.88 409.352 619.568L409.328 618.248C409.408 617.608 409.576 617.016 409.832 616.472C410.104 615.928 410.44 615.456 410.84 615.056C411.256 614.64 411.736 614.328 412.28 614.12C412.824 613.896 413.416 613.784 414.056 613.784ZM426.456 626.24C425.416 626.24 424.472 625.976 423.624 625.448C422.776 624.92 422.104 624.192 421.608 623.264C421.128 622.32 420.888 621.24 420.888 620.024C420.888 618.808 421.128 617.736 421.608 616.808C422.088 615.864 422.744 615.128 423.576 614.6C424.408 614.056 425.368 613.784 426.456 613.784C427.4 613.784 428.184 613.944 428.808 614.264C429.432 614.584 429.92 615.032 430.272 615.608C430.624 616.184 430.872 616.848 431.016 617.6C431.176 618.352 431.256 619.16 431.256 620.024C431.256 620.664 431.176 621.344 431.016 622.064C430.856 622.784 430.6 623.464 430.248 624.104C429.896 624.744 429.408 625.264 428.784 625.664C428.16 626.048 427.384 626.24 426.456 626.24ZM427.104 624.248C427.952 624.248 428.664 624.064 429.24 623.696C429.832 623.312 430.272 622.8 430.56 622.16C430.848 621.52 430.992 620.808 430.992 620.024C430.992 619.176 430.84 618.432 430.536 617.792C430.248 617.152 429.808 616.656 429.216 616.304C428.64 615.952 427.936 615.776 427.104 615.776C425.856 615.776 424.888 616.176 424.2 616.976C423.528 617.776 423.192 618.792 423.192 620.024C423.192 620.856 423.36 621.592 423.696 622.232C424.032 622.856 424.488 623.352 425.064 623.72C425.656 624.072 426.336 624.248 427.104 624.248ZM430.992 609.224H433.296V626H431.184C431.136 625.648 431.088 625.216 431.04 624.704C431.008 624.192 430.992 623.752 430.992 623.384V609.224ZM448.62 610.424C450.236 610.424 451.588 610.632 452.676 611.048C453.78 611.448 454.66 612.008 455.316 612.728C455.988 613.448 456.468 614.272 456.756 615.2C457.044 616.128 457.188 617.112 457.188 618.152C457.188 619.176 457.028 620.16 456.708 621.104C456.404 622.048 455.908 622.888 455.22 623.624C454.548 624.36 453.668 624.944 452.58 625.376C451.492 625.792 450.172 626 448.62 626H442.38V610.424H448.62ZM444.684 623.912H448.596C449.828 623.912 450.844 623.752 451.644 623.432C452.444 623.096 453.076 622.656 453.54 622.112C454.02 621.552 454.356 620.928 454.548 620.24C454.756 619.552 454.86 618.856 454.86 618.152C454.86 617.432 454.756 616.736 454.548 616.064C454.356 615.392 454.02 614.792 453.54 614.264C453.076 613.72 452.444 613.296 451.644 612.992C450.844 612.672 449.828 612.512 448.596 612.512H444.684V623.912ZM464.87 626.24C463.846 626.24 462.91 625.976 462.062 625.448C461.214 624.92 460.542 624.192 460.046 623.264C459.55 622.32 459.302 621.24 459.302 620.024C459.302 618.808 459.55 617.736 460.046 616.808C460.558 615.864 461.254 615.128 462.134 614.6C463.014 614.056 463.998 613.784 465.086 613.784C466.286 613.784 467.214 614.064 467.87 614.624C468.542 615.184 469.006 615.936 469.262 616.88C469.534 617.824 469.67 618.872 469.67 620.024C469.67 620.664 469.59 621.344 469.43 622.064C469.27 622.784 469.014 623.464 468.662 624.104C468.31 624.744 467.822 625.264 467.198 625.664C466.574 626.048 465.798 626.24 464.87 626.24ZM465.518 624.248C466.366 624.248 467.078 624.064 467.654 623.696C468.246 623.312 468.686 622.8 468.974 622.16C469.262 621.52 469.406 620.808 469.406 620.024C469.406 619.176 469.254 618.432 468.95 617.792C468.662 617.152 468.222 616.656 467.63 616.304C467.054 615.952 466.35 615.776 465.518 615.776C464.27 615.776 463.302 616.176 462.614 616.976C461.942 617.776 461.606 618.792 461.606 620.024C461.606 620.856 461.774 621.592 462.11 622.232C462.446 622.856 462.902 623.352 463.478 623.72C464.07 624.072 464.75 624.248 465.518 624.248ZM469.406 614.024H471.71V626H469.598C469.598 626 469.582 625.856 469.55 625.568C469.518 625.264 469.486 624.904 469.454 624.488C469.422 624.072 469.406 623.704 469.406 623.384V614.024ZM473.875 614.024H481.627V616.016H473.875V614.024ZM476.611 610.856H478.891V626H476.611V610.856ZM492.838 622.112H495.022C494.894 622.896 494.59 623.6 494.11 624.224C493.63 624.848 492.998 625.344 492.214 625.712C491.43 626.08 490.51 626.264 489.454 626.264C488.206 626.264 487.094 626 486.118 625.472C485.142 624.944 484.374 624.216 483.814 623.288C483.254 622.36 482.974 621.28 482.974 620.048C482.974 618.8 483.246 617.712 483.79 616.784C484.334 615.84 485.086 615.104 486.046 614.576C487.006 614.048 488.102 613.784 489.334 613.784C490.63 613.784 491.718 614.04 492.598 614.552C493.478 615.064 494.126 615.824 494.542 616.832C494.974 617.824 495.15 619.064 495.07 620.552H485.254C485.334 621.272 485.55 621.912 485.902 622.472C486.27 623.032 486.75 623.472 487.342 623.792C487.95 624.112 488.646 624.272 489.43 624.272C490.31 624.272 491.046 624.072 491.638 623.672C492.23 623.272 492.63 622.752 492.838 622.112ZM489.358 615.752C488.318 615.752 487.454 616.032 486.766 616.592C486.078 617.136 485.622 617.864 485.398 618.776H492.766C492.702 617.8 492.35 617.056 491.71 616.544C491.07 616.016 490.286 615.752 489.358 615.752Z" fill="#52525B"/>
<path d="M510.402 610.88L511.002 612.68L508.266 613.544L510.114 616.04L508.554 617.168L506.682 614.504L504.786 617.168L503.226 616.04L505.05 613.568L502.386 612.728L502.986 610.904L505.746 611.84L505.722 608.792H507.618L507.594 611.816L510.402 610.88Z" fill="#EF5A5A"/>
<g clip-path="url(#clip6_157_2277)">
<rect x="390" y="645" width="300" height="72" rx="36" fill="#F4F4F5"/>
<path d="M414.864 683.436H416.592C416.64 684.108 416.84 684.708 417.192 685.236C417.544 685.764 418.024 686.18 418.632 686.484C419.256 686.788 419.984 686.94 420.816 686.94C421.536 686.94 422.136 686.836 422.616 686.628C423.112 686.404 423.48 686.1 423.72 685.716C423.976 685.332 424.104 684.884 424.104 684.372C424.104 683.844 423.976 683.42 423.72 683.1C423.464 682.78 423.096 682.508 422.616 682.284C422.136 682.06 421.568 681.844 420.912 681.636C420.288 681.444 419.656 681.22 419.016 680.964C418.376 680.708 417.776 680.396 417.216 680.028C416.672 679.66 416.232 679.22 415.896 678.708C415.56 678.18 415.392 677.548 415.392 676.812C415.392 676.092 415.584 675.42 415.968 674.796C416.368 674.156 416.944 673.644 417.696 673.26C418.464 672.86 419.384 672.66 420.456 672.66C422.136 672.66 423.392 673.116 424.224 674.028C425.056 674.94 425.456 676.148 425.424 677.652H423.696C423.664 676.516 423.344 675.7 422.736 675.204C422.128 674.708 421.336 674.46 420.36 674.46C419.544 674.46 418.832 674.652 418.224 675.036C417.616 675.404 417.312 675.988 417.312 676.788C417.312 677.14 417.376 677.452 417.504 677.724C417.648 677.98 417.872 678.22 418.176 678.444C418.496 678.668 418.92 678.892 419.448 679.116C419.992 679.324 420.656 679.556 421.44 679.812C421.952 679.972 422.472 680.164 423 680.388C423.544 680.612 424.04 680.892 424.488 681.228C424.952 681.564 425.32 681.996 425.592 682.524C425.88 683.036 426.024 683.684 426.024 684.468C426.024 685.22 425.84 685.924 425.472 686.58C425.12 687.22 424.56 687.74 423.792 688.14C423.04 688.54 422.064 688.74 420.864 688.74C419.84 688.74 418.96 688.604 418.224 688.332C417.504 688.044 416.912 687.676 416.448 687.228C415.984 686.78 415.624 686.316 415.368 685.836C415.128 685.34 414.968 684.876 414.888 684.444C414.808 684.012 414.8 683.676 414.864 683.436ZM437.04 684.636H438.84C438.712 685.42 438.424 686.124 437.976 686.748C437.544 687.356 436.968 687.844 436.248 688.212C435.544 688.564 434.728 688.74 433.8 688.74C432.68 688.74 431.672 688.476 430.776 687.948C429.88 687.404 429.168 686.668 428.64 685.74C428.128 684.796 427.872 683.724 427.872 682.524C427.872 681.324 428.12 680.252 428.616 679.308C429.128 678.364 429.824 677.62 430.704 677.076C431.584 676.532 432.576 676.26 433.68 676.26C434.848 676.26 435.832 676.524 436.632 677.052C437.448 677.564 438.048 678.324 438.432 679.332C438.832 680.324 438.992 681.548 438.912 683.004H429.792C429.872 683.788 430.088 684.476 430.44 685.068C430.792 685.66 431.256 686.124 431.832 686.46C432.408 686.78 433.064 686.94 433.8 686.94C434.616 686.94 435.304 686.732 435.864 686.316C436.44 685.884 436.832 685.324 437.04 684.636ZM433.752 678.06C432.76 678.06 431.928 678.348 431.256 678.924C430.584 679.5 430.136 680.284 429.912 681.276H436.944C436.88 680.22 436.536 679.42 435.912 678.876C435.304 678.332 434.584 678.06 433.752 678.06ZM441.628 671.7H443.548V688.5H441.628V671.7ZM455.415 684.636H457.215C457.087 685.42 456.799 686.124 456.351 686.748C455.919 687.356 455.343 687.844 454.623 688.212C453.919 688.564 453.103 688.74 452.175 688.74C451.055 688.74 450.047 688.476 449.151 687.948C448.255 687.404 447.543 686.668 447.015 685.74C446.503 684.796 446.247 683.724 446.247 682.524C446.247 681.324 446.495 680.252 446.991 679.308C447.503 678.364 448.199 677.62 449.079 677.076C449.959 676.532 450.951 676.26 452.055 676.26C453.223 676.26 454.207 676.524 455.007 677.052C455.823 677.564 456.423 678.324 456.807 679.332C457.207 680.324 457.367 681.548 457.287 683.004H448.167C448.247 683.788 448.463 684.476 448.815 685.068C449.167 685.66 449.631 686.124 450.207 686.46C450.783 686.78 451.439 686.94 452.175 686.94C452.991 686.94 453.679 686.732 454.239 686.316C454.815 685.884 455.207 685.324 455.415 684.636ZM452.127 678.06C451.135 678.06 450.303 678.348 449.631 678.924C448.959 679.5 448.511 680.284 448.287 681.276H455.319C455.255 680.22 454.911 679.42 454.287 678.876C453.679 678.332 452.959 678.06 452.127 678.06ZM470.419 683.988C470.307 684.98 469.987 685.836 469.459 686.556C468.947 687.26 468.299 687.804 467.515 688.188C466.731 688.556 465.883 688.74 464.971 688.74C463.947 688.74 462.987 688.492 462.091 687.996C461.195 687.5 460.467 686.788 459.907 685.86C459.363 684.916 459.091 683.804 459.091 682.524C459.091 681.244 459.363 680.14 459.907 679.212C460.467 678.268 461.195 677.54 462.091 677.028C462.987 676.516 463.947 676.26 464.971 676.26C465.883 676.26 466.723 676.452 467.491 676.836C468.275 677.22 468.923 677.764 469.435 678.468C469.963 679.172 470.291 680.012 470.419 680.988H468.667C468.395 680.076 467.923 679.364 467.251 678.852C466.579 678.324 465.819 678.06 464.971 678.06C464.283 678.06 463.635 678.236 463.027 678.588C462.419 678.94 461.931 679.452 461.563 680.124C461.195 680.78 461.011 681.58 461.011 682.524C461.011 683.452 461.195 684.252 461.563 684.924C461.931 685.58 462.411 686.084 463.003 686.436C463.611 686.772 464.267 686.94 464.971 686.94C465.947 686.94 466.739 686.684 467.347 686.172C467.971 685.644 468.419 684.916 468.691 683.988H470.419ZM472.025 676.5H479.081V678.3H472.025V676.5ZM474.593 673.38H476.513V688.5H474.593V673.38ZM491.812 672.9C493.38 672.9 494.692 673.108 495.748 673.524C496.82 673.924 497.676 674.484 498.316 675.204C498.956 675.924 499.42 676.748 499.708 677.676C499.996 678.604 500.14 679.588 500.14 680.628C500.14 681.668 499.988 682.66 499.684 683.604C499.38 684.548 498.892 685.388 498.22 686.124C497.564 686.86 496.708 687.444 495.652 687.876C494.596 688.292 493.316 688.5 491.812 688.5H486.748V672.9H491.812ZM488.668 686.7H491.812C493.076 686.7 494.116 686.524 494.932 686.172C495.764 685.82 496.42 685.356 496.9 684.78C497.38 684.188 497.716 683.532 497.908 682.812C498.116 682.092 498.22 681.364 498.22 680.628C498.22 679.892 498.116 679.172 497.908 678.468C497.716 677.764 497.38 677.132 496.9 676.572C496.42 675.996 495.764 675.54 494.932 675.204C494.116 674.868 493.076 674.7 491.812 674.7H488.668V686.7ZM507.448 688.74C506.504 688.74 505.632 688.476 504.832 687.948C504.048 687.404 503.416 686.668 502.936 685.74C502.472 684.796 502.24 683.724 502.24 682.524C502.24 681.324 502.48 680.252 502.96 679.308C503.44 678.364 504.088 677.62 504.904 677.076C505.736 676.532 506.664 676.26 507.688 676.26C508.808 676.26 509.656 676.548 510.232 677.124C510.824 677.684 511.224 678.436 511.432 679.38C511.656 680.324 511.768 681.372 511.768 682.524C511.768 683.132 511.704 683.796 511.576 684.516C511.448 685.22 511.224 685.9 510.904 686.556C510.6 687.196 510.168 687.724 509.608 688.14C509.048 688.54 508.328 688.74 507.448 688.74ZM507.928 686.916C508.744 686.916 509.416 686.716 509.944 686.316C510.488 685.916 510.888 685.388 511.144 684.732C511.4 684.06 511.528 683.324 511.528 682.524C511.528 681.644 511.392 680.876 511.12 680.22C510.864 679.548 510.464 679.028 509.92 678.66C509.392 678.276 508.728 678.084 507.928 678.084C506.728 678.084 505.8 678.508 505.144 679.356C504.488 680.188 504.16 681.244 504.16 682.524C504.16 683.372 504.32 684.132 504.64 684.804C504.976 685.46 505.424 685.98 505.984 686.364C506.56 686.732 507.208 686.916 507.928 686.916ZM511.528 676.5H513.448V688.5H511.696C511.696 688.5 511.68 688.356 511.648 688.068C511.632 687.78 511.608 687.444 511.576 687.06C511.544 686.676 511.528 686.356 511.528 686.1V676.5ZM515.736 676.5H522.792V678.3H515.736V676.5ZM518.304 673.38H520.224V688.5H518.304V673.38ZM533.322 684.636H535.122C534.994 685.42 534.706 686.124 534.258 686.748C533.826 687.356 533.25 687.844 532.53 688.212C531.826 688.564 531.01 688.74 530.082 688.74C528.962 688.74 527.954 688.476 527.058 687.948C526.162 687.404 525.45 686.668 524.922 685.74C524.41 684.796 524.154 683.724 524.154 682.524C524.154 681.324 524.402 680.252 524.898 679.308C525.41 678.364 526.106 677.62 526.986 677.076C527.866 676.532 528.858 676.26 529.962 676.26C531.13 676.26 532.114 676.524 532.914 677.052C533.73 677.564 534.33 678.324 534.714 679.332C535.114 680.324 535.274 681.548 535.194 683.004H526.074C526.154 683.788 526.37 684.476 526.722 685.068C527.074 685.66 527.538 686.124 528.114 686.46C528.69 686.78 529.346 686.94 530.082 686.94C530.898 686.94 531.586 686.732 532.146 686.316C532.722 685.884 533.114 685.324 533.322 684.636ZM530.034 678.06C529.042 678.06 528.21 678.348 527.538 678.924C526.866 679.5 526.418 680.284 526.194 681.276H533.226C533.162 680.22 532.818 679.42 532.194 678.876C531.586 678.332 530.866 678.06 530.034 678.06Z" fill="#A1A1AA"/>
<g clip-path="url(#clip7_157_2277)">
<path d="M647.25 669C647.449 669 647.64 669.079 647.78 669.22C647.921 669.36 648 669.551 648 669.75V670.5H660V669.75C660 669.551 660.079 669.36 660.22 669.22C660.36 669.079 660.551 669 660.75 669C660.949 669 661.14 669.079 661.28 669.22C661.421 669.36 661.5 669.551 661.5 669.75V670.5H663C663.796 670.5 664.559 670.816 665.121 671.379C665.684 671.941 666 672.704 666 673.5V690C666 690.796 665.684 691.559 665.121 692.121C664.559 692.684 663.796 693 663 693H645C644.204 693 643.441 692.684 642.879 692.121C642.316 691.559 642 690.796 642 690V673.5C642 672.704 642.316 671.941 642.879 671.379C643.441 670.816 644.204 670.5 645 670.5H646.5V669.75C646.5 669.551 646.579 669.36 646.72 669.22C646.86 669.079 647.051 669 647.25 669ZM643.5 675V690C643.5 690.398 643.658 690.779 643.939 691.061C644.221 691.342 644.602 691.5 645 691.5H663C663.398 691.5 663.779 691.342 664.061 691.061C664.342 690.779 664.5 690.398 664.5 690V675H643.5Z" fill="#EF5A5A"/>
</g>
</g>
<rect x="390.5" y="645.5" width="299" height="71" rx="35.5" stroke="#EF5A5A"/>
</g>
<defs>
<linearGradient id="paint0_linear_157_2277" x1="275.794" y1="-32.0109" x2="640.333" y2="840.711" gradientUnits="userSpaceOnUse">
<stop stop-color="#F4F4F5"/>
<stop offset="0.48794" stop-color="#E4E4E7"/>
<stop offset="1" stop-color="#F0ECFB"/>
</linearGradient>
<linearGradient id="paint1_linear_157_2277" x1="66" y1="292" x2="366" y2="292" gradientUnits="userSpaceOnUse">
<stop stop-color="#B399EC"/>
<stop offset="1" stop-color="#71717A"/>
</linearGradient>
<clipPath id="clip0_157_2277">
<rect width="756" height="829" fill="white"/>
</clipPath>
<clipPath id="clip1_157_2277">
<rect x="390" y="64" width="300" height="72" rx="36" fill="white"/>
</clipPath>
<clipPath id="clip2_157_2277">
<rect x="66" y="498" width="624" height="72" rx="36" fill="white"/>
</clipPath>
<clipPath id="clip3_157_2277">
<rect width="24" height="24" fill="white" transform="translate(642 522)"/>
</clipPath>
<clipPath id="clip4_157_2277">
<rect x="69" y="645" width="297" height="72" rx="36" fill="white"/>
</clipPath>
<clipPath id="clip5_157_2277">
<rect width="24" height="24" fill="white" transform="translate(318 669)"/>
</clipPath>
<clipPath id="clip6_157_2277">
<rect x="390" y="645" width="300" height="72" rx="36" fill="white"/>
</clipPath>
<clipPath id="clip7_157_2277">
<rect width="24" height="24" fill="white" transform="translate(642 669)"/>
</clipPath>
</defs>
</svg>
