<?xml version="1.0" encoding="UTF-8" standalone="no"?>
<!DOCTYPE svg PUBLIC "-//W3C//DTD SVG 1.1//EN" "http://www.w3.org/Graphics/SVG/1.1/DTD/svg11.dtd">
<svg width="100%" height="100%" viewBox="0 0 15 13" version="1.1" xmlns="http://www.w3.org/2000/svg" xmlns:xlink="http://www.w3.org/1999/xlink" xml:space="preserve" xmlns:serif="http://www.serif.com/" style="fill-rule:evenodd;clip-rule:evenodd;stroke-linejoin:round;stroke-miterlimit:2;">
    <g transform="matrix(1,0,0,1,-22.6568,-5)">
        <g transform="matrix(1.0692,0,0,1.52546,43.6568,21)">
            <g transform="matrix(1.04489,0,0,0.832565,-19.6165,-10.8069)">
                <rect x="0.872" y="1.17" width="0.895" height="0.787" style="fill:rgb(27,27,33);"/>
            </g>
        </g>
        <g transform="matrix(1.0692,0,0,1.52546,43.6568,21)">
            <g transform="matrix(1.04489,0,0,0.832565,-18.6813,-10.8069)">
                <rect x="0.872" y="1.17" width="0.895" height="0.787" style="fill:rgb(27,27,33);"/>
            </g>
        </g>
        <g transform="matrix(1.0692,0,0,1.52546,43.6568,21)">
            <g transform="matrix(1.04489,0,0,0.832565,-17.746,-10.8069)">
                <rect x="0.872" y="1.17" width="0.895" height="0.787" style="fill:rgb(234,67,85);"/>
            </g>
        </g>
        <g transform="matrix(1.0692,0,0,1.52546,43.6568,21)">
            <g transform="matrix(1.04489,0,0,0.832565,-16.8107,-10.8069)">
                <rect x="0.872" y="1.17" width="0.895" height="0.787" style="fill:rgb(234,67,85);"/>
            </g>
        </g>
        <g transform="matrix(1.0692,0,0,1.52546,43.6568,21)">
            <g transform="matrix(1.04489,0,0,0.832565,-15.8754,-10.8069)">
                <rect x="0.872" y="1.17" width="0.895" height="0.787" style="fill:rgb(27,27,33);"/>
            </g>
        </g>
        <g transform="matrix(1.0692,0,0,1.52546,43.6568,21)">
            <g transform="matrix(1.04489,0,0,0.832565,-14.9402,-10.8069)">
                <rect x="0.872" y="1.17" width="0.895" height="0.787" style="fill:rgb(27,27,33);"/>
            </g>
        </g>
        <g transform="matrix(1.0692,0,0,1.52546,43.6568,21)">
            <g transform="matrix(1.04489,0,0,0.832565,-13.0696,-10.8069)">
                <rect x="0.872" y="1.17" width="0.895" height="0.787" style="fill:rgb(27,27,33);"/>
            </g>
        </g>
        <g transform="matrix(1.0692,0,0,1.52546,43.6568,21)">
            <g transform="matrix(1.04489,0,0,0.832565,-12.1343,-10.8069)">
                <rect x="0.872" y="1.17" width="0.895" height="0.787" style="fill:rgb(27,27,33);"/>
            </g>
        </g>
        <g transform="matrix(1.0692,0,0,1.52546,43.6568,21)">
            <g transform="matrix(1.04489,0,0,0.832565,-11.199,-10.8069)">
                <rect x="0.872" y="1.17" width="0.895" height="0.787" style="fill:rgb(234,67,85);"/>
            </g>
        </g>
        <g transform="matrix(1.0692,0,0,1.52546,43.6568,21)">
            <g transform="matrix(1.04489,0,0,0.832565,-10.2638,-10.8069)">
                <rect x="0.872" y="1.17" width="0.895" height="0.787" style="fill:rgb(234,67,85);"/>
            </g>
        </g>
        <g transform="matrix(1.0692,0,0,1.52546,43.6568,21)">
            <g transform="matrix(1.04489,0,0,0.832565,-9.32849,-10.8069)">
                <rect x="0.872" y="1.17" width="0.895" height="0.787" style="fill:rgb(27,27,33);"/>
            </g>
        </g>
        <g transform="matrix(1.0692,0,0,1.52546,43.6568,21)">
            <g transform="matrix(1.04489,0,0,0.832565,-18.6813,-11.4625)">
                <rect x="0.872" y="1.17" width="0.895" height="0.787" style="fill:rgb(27,27,33);"/>
            </g>
        </g>
        <g transform="matrix(1.0692,0,0,1.52546,43.6568,21)">
            <g transform="matrix(1.04489,0,0,0.832565,-17.746,-11.4625)">
                <rect x="0.872" y="1.17" width="0.895" height="0.787" style="fill:rgb(27,27,33);"/>
            </g>
        </g>
        <g transform="matrix(1.0692,0,0,1.52546,43.6568,21)">
            <g transform="matrix(1.04489,0,0,0.832565,-16.8107,-11.4625)">
                <rect x="0.872" y="1.17" width="0.895" height="0.787" style="fill:rgb(27,27,33);"/>
            </g>
        </g>
        <g transform="matrix(1.0692,0,0,1.52546,43.6568,21)">
            <g transform="matrix(1.04489,0,0,0.832565,-15.8754,-11.4625)">
                <rect x="0.872" y="1.17" width="0.895" height="0.787" style="fill:rgb(27,27,33);"/>
            </g>
        </g>
        <g transform="matrix(1.0692,0,0,1.52546,43.6568,21)">
            <g transform="matrix(1.04489,0,0,0.832565,-12.1343,-11.4625)">
                <rect x="0.872" y="1.17" width="0.895" height="0.787" style="fill:rgb(27,27,33);"/>
            </g>
        </g>
        <g transform="matrix(1.0692,0,0,1.52546,43.6568,21)">
            <g transform="matrix(1.04489,0,0,0.832565,-11.199,-11.4625)">
                <rect x="0.872" y="1.17" width="0.895" height="0.787" style="fill:rgb(27,27,33);"/>
            </g>
        </g>
        <g transform="matrix(1.0692,0,0,1.52546,43.6568,21)">
            <g transform="matrix(1.04489,0,0,0.832565,-10.2638,-11.4625)">
                <rect x="0.872" y="1.17" width="0.895" height="0.787" style="fill:rgb(27,27,33);"/>
            </g>
        </g>
        <g transform="matrix(1.0692,0,0,1.52546,43.6568,21)">
            <g transform="matrix(1.04489,0,0,0.832565,-9.32849,-11.4625)">
                <rect x="0.872" y="1.17" width="0.895" height="0.787" style="fill:rgb(27,27,33);"/>
            </g>
        </g>
        <g transform="matrix(1.0692,0,0,1.52546,43.6568,21)">
            <g transform="matrix(1.04489,0,0,0.832565,-8.39321,-10.8069)">
                <rect x="0.872" y="1.17" width="0.895" height="0.787" style="fill:rgb(27,27,33);"/>
            </g>
        </g>
        <g transform="matrix(1.0692,0,0,1.52546,43.6568,21)">
            <g transform="matrix(1.04489,0,0,0.832565,-19.6165,-10.1514)">
                <rect x="0.872" y="1.17" width="0.895" height="0.787" style="fill:rgb(27,27,33);"/>
            </g>
        </g>
        <g transform="matrix(1.0692,0,0,1.52546,43.6568,21)">
            <g transform="matrix(1.04489,0,0,0.832565,-20.5518,-10.1514)">
                <rect x="0.872" y="1.17" width="0.895" height="0.787" style="fill:rgb(27,27,33);"/>
            </g>
        </g>
        <g transform="matrix(1.0692,0,0,1.52546,43.6568,21)">
            <g transform="matrix(1.04489,0,0,0.832565,-18.6813,-10.1514)">
                <rect x="0.872" y="1.17" width="0.895" height="0.787" style="fill:rgb(234,67,85);"/>
            </g>
        </g>
        <g transform="matrix(1.0692,0,0,1.52546,43.6568,21)">
            <g transform="matrix(1.04489,0,0,0.832565,-17.746,-10.1514)">
                <rect x="0.872" y="1.17" width="0.895" height="0.787" style="fill:rgb(255,192,199);"/>
            </g>
        </g>
        <g transform="matrix(1.0692,0,0,1.52546,43.6568,21)">
            <g transform="matrix(1.04489,0,0,0.832565,-16.8107,-10.1514)">
                <rect x="0.872" y="1.17" width="0.895" height="0.787" style="fill:rgb(255,192,199);"/>
            </g>
        </g>
        <g transform="matrix(1.0692,0,0,1.52546,43.6568,21)">
            <g transform="matrix(1.04489,0,0,0.832565,-15.8754,-10.1514)">
                <rect x="0.872" y="1.17" width="0.895" height="0.787" style="fill:rgb(234,67,85);"/>
            </g>
        </g>
        <g transform="matrix(1.0692,0,0,1.52546,43.6568,21)">
            <g transform="matrix(1.04489,0,0,0.832565,-14.9402,-10.1514)">
                <rect x="0.872" y="1.17" width="0.895" height="0.787" style="fill:rgb(27,27,33);"/>
            </g>
        </g>
        <g transform="matrix(1.0692,0,0,1.52546,43.6568,21)">
            <g transform="matrix(1.04489,0,0,0.832565,-14.0049,-10.1514)">
                <rect x="0.872" y="1.17" width="0.895" height="0.787" style="fill:rgb(27,27,33);"/>
            </g>
        </g>
        <g transform="matrix(1.0692,0,0,1.52546,43.6568,21)">
            <g transform="matrix(1.04489,0,0,0.832565,-13.0696,-10.1514)">
                <rect x="0.872" y="1.17" width="0.895" height="0.787" style="fill:rgb(27,27,33);"/>
            </g>
        </g>
        <g transform="matrix(1.0692,0,0,1.52546,43.6568,21)">
            <g transform="matrix(1.04489,0,0,0.832565,-12.1343,-10.1514)">
                <rect x="0.872" y="1.17" width="0.895" height="0.787" style="fill:rgb(234,67,85);"/>
            </g>
        </g>
        <g transform="matrix(1.0692,0,0,1.52546,43.6568,21)">
            <g transform="matrix(1.04489,0,0,0.832565,-11.199,-10.1514)">
                <rect x="0.872" y="1.17" width="0.895" height="0.787" style="fill:rgb(255,192,199);"/>
            </g>
        </g>
        <g transform="matrix(1.0692,0,0,1.52546,43.6568,21)">
            <g transform="matrix(1.04489,0,0,0.832565,-10.2638,-10.1514)">
                <rect x="0.872" y="1.17" width="0.895" height="0.787" style="fill:rgb(255,192,199);"/>
            </g>
        </g>
        <g transform="matrix(1.0692,0,0,1.52546,43.6568,21)">
            <g transform="matrix(1.04489,0,0,0.832565,-9.32849,-10.1514)">
                <rect x="0.872" y="1.17" width="0.895" height="0.787" style="fill:rgb(234,67,85);"/>
            </g>
        </g>
        <g transform="matrix(1.0692,0,0,1.52546,43.6568,21)">
            <g transform="matrix(1.04489,0,0,0.832565,-8.39321,-10.1514)">
                <rect x="0.872" y="1.17" width="0.895" height="0.787" style="fill:rgb(27,27,33);"/>
            </g>
        </g>
        <g transform="matrix(1.0692,0,0,1.52546,43.6568,21)">
            <g transform="matrix(1.04489,0,0,0.832565,-7.45793,-10.1514)">
                <rect x="0.872" y="1.17" width="0.895" height="0.787" style="fill:rgb(27,27,33);"/>
            </g>
        </g>
        <g transform="matrix(1.0692,0,0,1.52546,43.6568,21)">
            <g transform="matrix(1.04489,0,0,0.832565,-20.5518,-9.49584)">
                <rect x="0.872" y="1.17" width="0.895" height="0.787" style="fill:rgb(27,27,33);"/>
            </g>
        </g>
        <g transform="matrix(1.0692,0,0,1.52546,43.6568,21)">
            <g transform="matrix(1.04489,0,0,0.832565,-19.6165,-9.49584)">
                <rect x="0.872" y="1.17" width="0.895" height="0.787" style="fill:rgb(234,67,85);"/>
            </g>
        </g>
        <g transform="matrix(1.0692,0,0,1.52546,43.6568,21)">
            <g transform="matrix(1.04489,0,0,0.832565,-18.6813,-9.49584)">
                <rect x="0.872" y="1.17" width="0.895" height="0.787" style="fill:rgb(234,67,85);"/>
            </g>
        </g>
        <g transform="matrix(1.0692,0,0,1.52546,43.6568,21)">
            <g transform="matrix(1.04489,0,0,0.832565,-17.746,-9.49584)">
                <rect x="0.872" y="1.17" width="0.895" height="0.787" style="fill:rgb(234,67,85);"/>
            </g>
        </g>
        <g transform="matrix(1.0692,0,0,1.52546,43.6568,21)">
            <g transform="matrix(1.04489,0,0,0.832565,-16.8107,-9.49584)">
                <rect x="0.872" y="1.17" width="0.895" height="0.787" style="fill:rgb(255,192,199);"/>
            </g>
        </g>
        <g transform="matrix(1.0692,0,0,1.52546,43.6568,21)">
            <g transform="matrix(1.04489,0,0,0.832565,-15.8754,-9.49584)">
                <rect x="0.872" y="1.17" width="0.895" height="0.787" style="fill:rgb(255,192,199);"/>
            </g>
        </g>
        <g transform="matrix(1.0692,0,0,1.52546,43.6568,21)">
            <g transform="matrix(1.04489,0,0,0.832565,-14.9402,-9.49584)">
                <rect x="0.872" y="1.17" width="0.895" height="0.787" style="fill:rgb(234,67,85);"/>
            </g>
        </g>
        <g transform="matrix(1.0692,0,0,1.52546,43.6568,21)">
            <g transform="matrix(1.04489,0,0,0.832565,-14.0049,-9.49584)">
                <rect x="0.872" y="1.17" width="0.895" height="0.787" style="fill:rgb(27,27,33);"/>
            </g>
        </g>
        <g transform="matrix(1.0692,0,0,1.52546,43.6568,21)">
            <g transform="matrix(1.04489,0,0,0.832565,-13.0696,-9.49584)">
                <rect x="0.872" y="1.17" width="0.895" height="0.787" style="fill:rgb(234,67,85);"/>
            </g>
        </g>
        <g transform="matrix(1.0692,0,0,1.52546,43.6568,21)">
            <g transform="matrix(1.04489,0,0,0.832565,-12.1343,-9.49584)">
                <rect x="0.872" y="1.17" width="0.895" height="0.787" style="fill:rgb(234,67,85);"/>
            </g>
        </g>
        <g transform="matrix(1.0692,0,0,1.52546,43.6568,21)">
            <g transform="matrix(1.04489,0,0,0.832565,-11.199,-9.49584)">
                <rect x="0.872" y="1.17" width="0.895" height="0.787" style="fill:rgb(234,67,85);"/>
            </g>
        </g>
        <g transform="matrix(1.0692,0,0,1.52546,43.6568,21)">
            <g transform="matrix(1.04489,0,0,0.832565,-10.2638,-9.49584)">
                <rect x="0.872" y="1.17" width="0.895" height="0.787" style="fill:rgb(255,192,199);"/>
            </g>
        </g>
        <g transform="matrix(1.0692,0,0,1.52546,43.6568,21)">
            <g transform="matrix(1.04489,0,0,0.832565,-9.32849,-9.49584)">
                <rect x="0.872" y="1.17" width="0.895" height="0.787" style="fill:rgb(255,192,199);"/>
            </g>
        </g>
        <g transform="matrix(1.0692,0,0,1.52546,43.6568,21)">
            <g transform="matrix(1.04489,0,0,0.832565,-8.39321,-9.49584)">
                <rect x="0.872" y="1.17" width="0.895" height="0.787" style="fill:rgb(234,67,85);"/>
            </g>
        </g>
        <g transform="matrix(1.0692,0,0,1.52546,43.6568,21)">
            <g transform="matrix(1.04489,0,0,0.832565,-7.45793,-9.49584)">
                <rect x="0.872" y="1.17" width="0.895" height="0.787" style="fill:rgb(27,27,33);"/>
            </g>
        </g>
        <g transform="matrix(1.0692,0,0,1.52546,43.6568,21)">
            <g transform="matrix(1.04489,0,0,0.832565,-20.5518,-8.8403)">
                <rect x="0.872" y="1.17" width="0.895" height="0.787" style="fill:rgb(27,27,33);"/>
            </g>
        </g>
        <g transform="matrix(1.0692,0,0,1.52546,43.6568,21)">
            <g transform="matrix(1.04489,0,0,0.832565,-19.6165,-8.8403)">
                <rect x="0.872" y="1.17" width="0.895" height="0.787" style="fill:rgb(234,67,85);"/>
            </g>
        </g>
        <g transform="matrix(1.0692,0,0,1.52546,43.6568,21)">
            <g transform="matrix(1.04489,0,0,0.832565,-18.6813,-8.8403)">
                <rect x="0.872" y="1.17" width="0.895" height="0.787" style="fill:rgb(234,67,85);"/>
            </g>
        </g>
        <g transform="matrix(1.0692,0,0,1.52546,43.6568,21)">
            <g transform="matrix(1.04489,0,0,0.832565,-17.746,-8.8403)">
                <rect x="0.872" y="1.17" width="0.895" height="0.787" style="fill:rgb(234,67,85);"/>
            </g>
        </g>
        <g transform="matrix(1.0692,0,0,1.52546,43.6568,21)">
            <g transform="matrix(1.04489,0,0,0.832565,-16.8107,-8.8403)">
                <rect x="0.872" y="1.17" width="0.895" height="0.787" style="fill:rgb(234,67,85);"/>
            </g>
        </g>
        <g transform="matrix(1.0692,0,0,1.52546,43.6568,21)">
            <g transform="matrix(1.04489,0,0,0.832565,-15.8754,-8.8403)">
                <rect x="0.872" y="1.17" width="0.895" height="0.787" style="fill:rgb(255,192,199);"/>
            </g>
        </g>
        <g transform="matrix(1.0692,0,0,1.52546,43.6568,21)">
            <g transform="matrix(1.04489,0,0,0.832565,-14.9402,-8.8403)">
                <rect x="0.872" y="1.17" width="0.895" height="0.787" style="fill:rgb(234,67,85);"/>
            </g>
        </g>
        <g transform="matrix(1.0692,0,0,1.52546,43.6568,21)">
            <g transform="matrix(1.04489,0,0,0.832565,-14.0049,-8.8403)">
                <rect x="0.872" y="1.17" width="0.895" height="0.787" style="fill:rgb(234,67,85);"/>
            </g>
        </g>
        <g transform="matrix(1.0692,0,0,1.52546,43.6568,21)">
            <g transform="matrix(1.04489,0,0,0.832565,-13.0696,-8.8403)">
                <rect x="0.872" y="1.17" width="0.895" height="0.787" style="fill:rgb(234,67,85);"/>
            </g>
        </g>
        <g transform="matrix(1.0692,0,0,1.52546,43.6568,21)">
            <g transform="matrix(1.04489,0,0,0.832565,-12.1343,-8.8403)">
                <rect x="0.872" y="1.17" width="0.895" height="0.787" style="fill:rgb(234,67,85);"/>
            </g>
        </g>
        <g transform="matrix(1.0692,0,0,1.52546,43.6568,21)">
            <g transform="matrix(1.04489,0,0,0.832565,-11.199,-8.8403)">
                <rect x="0.872" y="1.17" width="0.895" height="0.787" style="fill:rgb(234,67,85);"/>
            </g>
        </g>
        <g transform="matrix(1.0692,0,0,1.52546,43.6568,21)">
            <g transform="matrix(1.04489,0,0,0.832565,-10.2638,-8.8403)">
                <rect x="0.872" y="1.17" width="0.895" height="0.787" style="fill:rgb(234,67,85);"/>
            </g>
        </g>
        <g transform="matrix(1.0692,0,0,1.52546,43.6568,21)">
            <g transform="matrix(1.04489,0,0,0.832565,-9.32849,-8.8403)">
                <rect x="0.872" y="1.17" width="0.895" height="0.787" style="fill:rgb(255,192,199);"/>
            </g>
        </g>
        <g transform="matrix(1.0692,0,0,1.52546,43.6568,21)">
            <g transform="matrix(1.04489,0,0,0.832565,-8.39321,-8.8403)">
                <rect x="0.872" y="1.17" width="0.895" height="0.787" style="fill:rgb(234,67,85);"/>
            </g>
        </g>
        <g transform="matrix(1.0692,0,0,1.52546,43.6568,21)">
            <g transform="matrix(1.04489,0,0,0.832565,-7.45793,-8.8403)">
                <rect x="0.872" y="1.17" width="0.895" height="0.787" style="fill:rgb(27,27,33);"/>
            </g>
        </g>
        <g transform="matrix(1.0692,0,0,1.52546,43.6568,21)">
            <g transform="matrix(1.04489,0,0,0.832565,-20.5518,-8.18477)">
                <rect x="0.872" y="1.17" width="0.895" height="0.787" style="fill:rgb(27,27,33);"/>
            </g>
        </g>
        <g transform="matrix(1.0692,0,0,1.52546,43.6568,21)">
            <g transform="matrix(1.04489,0,0,0.832565,-19.6165,-8.18477)">
                <rect x="0.872" y="1.17" width="0.895" height="0.787" style="fill:rgb(27,27,33);"/>
            </g>
        </g>
        <g transform="matrix(1.0692,0,0,1.52546,43.6568,21)">
            <g transform="matrix(1.04489,0,0,0.832565,-18.6813,-8.18477)">
                <rect x="0.872" y="1.17" width="0.895" height="0.787" style="fill:rgb(234,67,85);"/>
            </g>
        </g>
        <g transform="matrix(1.0692,0,0,1.52546,43.6568,21)">
            <g transform="matrix(1.04489,0,0,0.832565,-17.746,-8.18477)">
                <rect x="0.872" y="1.17" width="0.895" height="0.787" style="fill:rgb(234,67,85);"/>
            </g>
        </g>
        <g transform="matrix(1.0692,0,0,1.52546,43.6568,21)">
            <g transform="matrix(1.04489,0,0,0.832565,-16.8107,-8.18477)">
                <rect x="0.872" y="1.17" width="0.895" height="0.787" style="fill:rgb(234,67,85);"/>
            </g>
        </g>
        <g transform="matrix(1.0692,0,0,1.52546,43.6568,21)">
            <g transform="matrix(1.04489,0,0,0.832565,-15.8754,-8.18477)">
                <rect x="0.872" y="1.17" width="0.895" height="0.787" style="fill:rgb(234,67,85);"/>
            </g>
        </g>
        <g transform="matrix(1.0692,0,0,1.52546,43.6568,21)">
            <g transform="matrix(1.04489,0,0,0.832565,-14.9402,-8.18477)">
                <rect x="0.872" y="1.17" width="0.895" height="0.787" style="fill:rgb(234,67,85);"/>
            </g>
        </g>
        <g transform="matrix(1.0692,0,0,1.52546,43.6568,21)">
            <g transform="matrix(1.04489,0,0,0.832565,-14.0049,-8.18477)">
                <rect x="0.872" y="1.17" width="0.895" height="0.787" style="fill:rgb(234,67,85);"/>
            </g>
        </g>
        <g transform="matrix(1.0692,0,0,1.52546,43.6568,21)">
            <g transform="matrix(1.04489,0,0,0.832565,-13.0696,-8.18477)">
                <rect x="0.872" y="1.17" width="0.895" height="0.787" style="fill:rgb(234,67,85);"/>
            </g>
        </g>
        <g transform="matrix(1.0692,0,0,1.52546,43.6568,21)">
            <g transform="matrix(1.04489,0,0,0.832565,-12.1343,-8.18477)">
                <rect x="0.872" y="1.17" width="0.895" height="0.787" style="fill:rgb(234,67,85);"/>
            </g>
        </g>
        <g transform="matrix(1.0692,0,0,1.52546,43.6568,21)">
            <g transform="matrix(1.04489,0,0,0.832565,-11.199,-8.18477)">
                <rect x="0.872" y="1.17" width="0.895" height="0.787" style="fill:rgb(234,67,85);"/>
            </g>
        </g>
        <g transform="matrix(1.0692,0,0,1.52546,43.6568,21)">
            <g transform="matrix(1.04489,0,0,0.832565,-10.2638,-8.18477)">
                <rect x="0.872" y="1.17" width="0.895" height="0.787" style="fill:rgb(234,67,85);"/>
            </g>
        </g>
        <g transform="matrix(1.0692,0,0,1.52546,43.6568,21)">
            <g transform="matrix(1.04489,0,0,0.832565,-9.32849,-8.18477)">
                <rect x="0.872" y="1.17" width="0.895" height="0.787" style="fill:rgb(234,67,85);"/>
            </g>
        </g>
        <g transform="matrix(1.0692,0,0,1.52546,43.6568,21)">
            <g transform="matrix(1.04489,0,0,0.832565,-8.39321,-8.18477)">
                <rect x="0.872" y="1.17" width="0.895" height="0.787" style="fill:rgb(27,27,33);"/>
            </g>
        </g>
        <g transform="matrix(1.0692,0,0,1.52546,43.6568,21)">
            <g transform="matrix(1.04489,0,0,0.832565,-7.45793,-8.18477)">
                <rect x="0.872" y="1.17" width="0.895" height="0.787" style="fill:rgb(27,27,33);"/>
            </g>
        </g>
        <g transform="matrix(1.0692,0,0,1.52546,43.6568,21)">
            <g transform="matrix(1.04489,0,0,0.832565,-19.6165,-7.52923)">
                <rect x="0.872" y="1.17" width="0.895" height="0.787" style="fill:rgb(27,27,33);"/>
            </g>
        </g>
        <g transform="matrix(1.0692,0,0,1.52546,43.6568,21)">
            <g transform="matrix(1.04489,0,0,0.832565,-18.6813,-7.52923)">
                <rect x="0.872" y="1.17" width="0.895" height="0.787" style="fill:rgb(27,27,33);"/>
            </g>
        </g>
        <g transform="matrix(1.0692,0,0,1.52546,43.6568,21)">
            <g transform="matrix(1.04489,0,0,0.832565,-17.746,-7.52923)">
                <rect x="0.872" y="1.17" width="0.895" height="0.787" style="fill:rgb(234,67,85);"/>
            </g>
        </g>
        <g transform="matrix(1.0692,0,0,1.52546,43.6568,21)">
            <g transform="matrix(1.04489,0,0,0.832565,-16.8107,-7.52923)">
                <rect x="0.872" y="1.17" width="0.895" height="0.787" style="fill:rgb(234,67,85);"/>
            </g>
        </g>
        <g transform="matrix(1.0692,0,0,1.52546,43.6568,21)">
            <g transform="matrix(1.04489,0,0,0.832565,-15.8754,-7.52923)">
                <rect x="0.872" y="1.17" width="0.895" height="0.787" style="fill:rgb(234,67,85);"/>
            </g>
        </g>
        <g transform="matrix(1.0692,0,0,1.52546,43.6568,21)">
            <g transform="matrix(1.04489,0,0,0.832565,-14.9402,-7.52923)">
                <rect x="0.872" y="1.17" width="0.895" height="0.787" style="fill:rgb(234,67,85);"/>
            </g>
        </g>
        <g transform="matrix(1.0692,0,0,1.52546,43.6568,21)">
            <g transform="matrix(1.04489,0,0,0.832565,-14.0049,-7.52923)">
                <rect x="0.872" y="1.17" width="0.895" height="0.787" style="fill:rgb(234,67,85);"/>
            </g>
        </g>
        <g transform="matrix(1.0692,0,0,1.52546,43.6568,21)">
            <g transform="matrix(1.04489,0,0,0.832565,-13.0696,-7.52923)">
                <rect x="0.872" y="1.17" width="0.895" height="0.787" style="fill:rgb(234,67,85);"/>
            </g>
        </g>
        <g transform="matrix(1.0692,0,0,1.52546,43.6568,21)">
            <g transform="matrix(1.04489,0,0,0.832565,-12.1343,-7.52923)">
                <rect x="0.872" y="1.17" width="0.895" height="0.787" style="fill:rgb(234,67,85);"/>
            </g>
        </g>
        <g transform="matrix(1.0692,0,0,1.52546,43.6568,21)">
            <g transform="matrix(1.04489,0,0,0.832565,-11.199,-7.52923)">
                <rect x="0.872" y="1.17" width="0.895" height="0.787" style="fill:rgb(234,67,85);"/>
            </g>
        </g>
        <g transform="matrix(1.0692,0,0,1.52546,43.6568,21)">
            <g transform="matrix(1.04489,0,0,0.832565,-10.2638,-7.52923)">
                <rect x="0.872" y="1.17" width="0.895" height="0.787" style="fill:rgb(234,67,85);"/>
            </g>
        </g>
        <g transform="matrix(1.0692,0,0,1.52546,43.6568,21)">
            <g transform="matrix(1.04489,0,0,0.832565,-9.32849,-7.52923)">
                <rect x="0.872" y="1.17" width="0.895" height="0.787" style="fill:rgb(27,27,33);"/>
            </g>
        </g>
        <g transform="matrix(1.0692,0,0,1.52546,43.6568,21)">
            <g transform="matrix(1.04489,0,0,0.832565,-8.39321,-7.52923)">
                <rect x="0.872" y="1.17" width="0.895" height="0.787" style="fill:rgb(27,27,33);"/>
            </g>
        </g>
        <g transform="matrix(1.0692,0,0,1.52546,43.6568,21)">
            <g transform="matrix(1.04489,0,0,0.832565,-18.6813,-6.87369)">
                <rect x="0.872" y="1.17" width="0.895" height="0.787" style="fill:rgb(27,27,33);"/>
            </g>
        </g>
        <g transform="matrix(1.0692,0,0,1.52546,43.6568,21)">
            <g transform="matrix(1.04489,0,0,0.832565,-17.746,-6.87369)">
                <rect x="0.872" y="1.17" width="0.895" height="0.787" style="fill:rgb(27,27,33);"/>
            </g>
        </g>
        <g transform="matrix(1.0692,0,0,1.52546,43.6568,21)">
            <g transform="matrix(1.04489,0,0,0.832565,-16.8107,-6.87369)">
                <rect x="0.872" y="1.17" width="0.895" height="0.787" style="fill:rgb(234,67,85);"/>
            </g>
        </g>
        <g transform="matrix(1.0692,0,0,1.52546,43.6568,21)">
            <g transform="matrix(1.04489,0,0,0.832565,-15.8754,-6.87369)">
                <rect x="0.872" y="1.17" width="0.895" height="0.787" style="fill:rgb(234,67,85);"/>
            </g>
        </g>
        <g transform="matrix(1.0692,0,0,1.52546,43.6568,21)">
            <g transform="matrix(1.04489,0,0,0.832565,-14.9402,-6.87369)">
                <rect x="0.872" y="1.17" width="0.895" height="0.787" style="fill:rgb(234,67,85);"/>
            </g>
        </g>
        <g transform="matrix(1.0692,0,0,1.52546,43.6568,21)">
            <g transform="matrix(1.04489,0,0,0.832565,-14.0049,-6.87369)">
                <rect x="0.872" y="1.17" width="0.895" height="0.787" style="fill:rgb(234,67,85);"/>
            </g>
        </g>
        <g transform="matrix(1.0692,0,0,1.52546,43.6568,21)">
            <g transform="matrix(1.04489,0,0,0.832565,-13.0696,-6.87369)">
                <rect x="0.872" y="1.17" width="0.895" height="0.787" style="fill:rgb(234,67,85);"/>
            </g>
        </g>
        <g transform="matrix(1.0692,0,0,1.52546,43.6568,21)">
            <g transform="matrix(1.04489,0,0,0.832565,-12.1343,-6.87369)">
                <rect x="0.872" y="1.17" width="0.895" height="0.787" style="fill:rgb(234,67,85);"/>
            </g>
        </g>
        <g transform="matrix(1.0692,0,0,1.52546,43.6568,21)">
            <g transform="matrix(1.04489,0,0,0.832565,-11.199,-6.87369)">
                <rect x="0.872" y="1.17" width="0.895" height="0.787" style="fill:rgb(234,67,85);"/>
            </g>
        </g>
        <g transform="matrix(1.0692,0,0,1.52546,43.6568,21)">
            <g transform="matrix(1.04489,0,0,0.832565,-10.2638,-6.87369)">
                <rect x="0.872" y="1.17" width="0.895" height="0.787" style="fill:rgb(27,27,33);"/>
            </g>
        </g>
        <g transform="matrix(1.0692,0,0,1.52546,43.6568,21)">
            <g transform="matrix(1.04489,0,0,0.832565,-9.32849,-6.87369)">
                <rect x="0.872" y="1.17" width="0.895" height="0.787" style="fill:rgb(27,27,33);"/>
            </g>
        </g>
        <g transform="matrix(1.0692,0,0,1.52546,43.6568,21)">
            <g transform="matrix(1.04489,0,0,0.832565,-17.746,-6.21815)">
                <rect x="0.872" y="1.17" width="0.895" height="0.787" style="fill:rgb(27,27,33);"/>
            </g>
        </g>
        <g transform="matrix(1.0692,0,0,1.52546,43.6568,21)">
            <g transform="matrix(1.04489,0,0,0.832565,-16.8107,-6.21815)">
                <rect x="0.872" y="1.17" width="0.895" height="0.787" style="fill:rgb(27,27,33);"/>
            </g>
        </g>
        <g transform="matrix(1.0692,0,0,1.52546,43.6568,21)">
            <g transform="matrix(1.04489,0,0,0.832565,-15.8754,-6.21815)">
                <rect x="0.872" y="1.17" width="0.895" height="0.787" style="fill:rgb(234,67,85);"/>
            </g>
        </g>
        <g transform="matrix(1.0692,0,0,1.52546,43.6568,21)">
            <g transform="matrix(1.04489,0,0,0.832565,-14.9402,-6.21815)">
                <rect x="0.872" y="1.17" width="0.895" height="0.787" style="fill:rgb(234,67,85);"/>
            </g>
        </g>
        <g transform="matrix(1.0692,0,0,1.52546,43.6568,21)">
            <g transform="matrix(1.04489,0,0,0.832565,-14.0049,-6.21815)">
                <rect x="0.872" y="1.17" width="0.895" height="0.787" style="fill:rgb(234,67,85);"/>
            </g>
        </g>
        <g transform="matrix(1.0692,0,0,1.52546,43.6568,21)">
            <g transform="matrix(1.04489,0,0,0.832565,-13.0696,-6.21815)">
                <rect x="0.872" y="1.17" width="0.895" height="0.787" style="fill:rgb(234,67,85);"/>
            </g>
        </g>
        <g transform="matrix(1.0692,0,0,1.52546,43.6568,21)">
            <g transform="matrix(1.04489,0,0,0.832565,-12.1343,-6.21815)">
                <rect x="0.872" y="1.17" width="0.895" height="0.787" style="fill:rgb(234,67,85);"/>
            </g>
        </g>
        <g transform="matrix(1.0692,0,0,1.52546,43.6568,21)">
            <g transform="matrix(1.04489,0,0,0.832565,-11.199,-6.21815)">
                <rect x="0.872" y="1.17" width="0.895" height="0.787" style="fill:rgb(27,27,33);"/>
            </g>
        </g>
        <g transform="matrix(1.0692,0,0,1.52546,43.6568,21)">
            <g transform="matrix(1.04489,0,0,0.832565,-10.2638,-6.21815)">
                <rect x="0.872" y="1.17" width="0.895" height="0.787" style="fill:rgb(27,27,33);"/>
            </g>
        </g>
        <g transform="matrix(1.0692,0,0,1.52546,43.6568,21)">
            <g transform="matrix(1.04489,0,0,0.832565,-16.8107,-5.56261)">
                <rect x="0.872" y="1.17" width="0.895" height="0.787" style="fill:rgb(27,27,33);"/>
            </g>
        </g>
        <g transform="matrix(1.0692,0,0,1.52546,43.6568,21)">
            <g transform="matrix(1.04489,0,0,0.832565,-15.8754,-5.56261)">
                <rect x="0.872" y="1.17" width="0.895" height="0.787" style="fill:rgb(27,27,33);"/>
            </g>
        </g>
        <g transform="matrix(1.0692,0,0,1.52546,43.6568,21)">
            <g transform="matrix(1.04489,0,0,0.832565,-14.9402,-5.56261)">
                <rect x="0.872" y="1.17" width="0.895" height="0.787" style="fill:rgb(234,67,85);"/>
            </g>
        </g>
        <g transform="matrix(1.0692,0,0,1.52546,43.6568,21)">
            <g transform="matrix(1.04489,0,0,0.832565,-14.0049,-5.56261)">
                <rect x="0.872" y="1.17" width="0.895" height="0.787" style="fill:rgb(234,67,85);"/>
            </g>
        </g>
        <g transform="matrix(1.0692,0,0,1.52546,43.6568,21)">
            <g transform="matrix(1.04489,0,0,0.832565,-13.0696,-5.56261)">
                <rect x="0.872" y="1.17" width="0.895" height="0.787" style="fill:rgb(234,67,85);"/>
            </g>
        </g>
        <g transform="matrix(1.0692,0,0,1.52546,43.6568,21)">
            <g transform="matrix(1.04489,0,0,0.832565,-12.1343,-5.56261)">
                <rect x="0.872" y="1.17" width="0.895" height="0.787" style="fill:rgb(27,27,33);"/>
            </g>
        </g>
        <g transform="matrix(1.0692,0,0,1.52546,43.6568,21)">
            <g transform="matrix(1.04489,0,0,0.832565,-11.199,-5.56261)">
                <rect x="0.872" y="1.17" width="0.895" height="0.787" style="fill:rgb(27,27,33);"/>
            </g>
        </g>
        <g transform="matrix(1.0692,0,0,1.52546,43.6568,21)">
            <g transform="matrix(1.04489,0,0,0.832565,-15.8754,-4.90707)">
                <rect x="0.872" y="1.17" width="0.895" height="0.787" style="fill:rgb(27,27,33);"/>
            </g>
        </g>
        <g transform="matrix(1.0692,0,0,1.52546,43.6568,21)">
            <g transform="matrix(1.04489,0,0,0.832565,-14.9402,-4.90707)">
                <rect x="0.872" y="1.17" width="0.895" height="0.787" style="fill:rgb(27,27,33);"/>
            </g>
        </g>
        <g transform="matrix(1.0692,0,0,1.52546,43.6568,21)">
            <g transform="matrix(1.04489,0,0,0.832565,-14.0049,-4.90707)">
                <rect x="0.872" y="1.17" width="0.895" height="0.787" style="fill:rgb(234,67,85);"/>
            </g>
        </g>
        <g transform="matrix(1.0692,0,0,1.52546,43.6568,21)">
            <g transform="matrix(1.04489,0,0,0.832565,-13.0696,-4.90707)">
                <rect x="0.872" y="1.17" width="0.895" height="0.787" style="fill:rgb(27,27,33);"/>
            </g>
        </g>
        <g transform="matrix(1.0692,0,0,1.52546,43.6568,21)">
            <g transform="matrix(1.04489,0,0,0.832565,-12.1343,-4.90707)">
                <rect x="0.872" y="1.17" width="0.895" height="0.787" style="fill:rgb(27,27,33);"/>
            </g>
        </g>
        <g transform="matrix(1.0692,0,0,1.52546,43.6568,21)">
            <g transform="matrix(1.04489,0,0,0.832565,-14.9402,-4.25154)">
                <rect x="0.872" y="1.17" width="0.895" height="0.787" style="fill:rgb(27,27,33);"/>
            </g>
        </g>
        <g transform="matrix(1.0692,0,0,1.52546,43.6568,21)">
            <g transform="matrix(1.04489,0,0,0.832565,-14.0049,-4.25154)">
                <rect x="0.872" y="1.17" width="0.895" height="0.787" style="fill:rgb(27,27,33);"/>
            </g>
        </g>
        <g transform="matrix(1.0692,0,0,1.52546,43.6568,21)">
            <g transform="matrix(1.04489,0,0,0.832565,-13.0696,-4.25154)">
                <rect x="0.872" y="1.17" width="0.895" height="0.787" style="fill:rgb(27,27,33);"/>
            </g>
        </g>
        <g transform="matrix(1.0692,0,0,1.52546,43.6568,21)">
            <g transform="matrix(1.04489,0,0,0.832565,-14.0049,-3.596)">
                <rect x="0.872" y="1.17" width="0.895" height="0.787" style="fill:rgb(27,27,33);"/>
            </g>
        </g>
    </g>
</svg>
