<?xml version="1.0" encoding="UTF-8" standalone="no"?>
<!DOCTYPE svg PUBLIC "-//W3C//DTD SVG 1.1//EN" "http://www.w3.org/Graphics/SVG/1.1/DTD/svg11.dtd">
<svg width="100%" height="100%" viewBox="0 0 629 256" version="1.1" xmlns="http://www.w3.org/2000/svg" xmlns:xlink="http://www.w3.org/1999/xlink" xml:space="preserve" xmlns:serif="http://www.serif.com/" style="fill-rule:evenodd;clip-rule:evenodd;stroke-linejoin:round;stroke-miterlimit:2;">
    <g transform="matrix(1,0,0,1,-1060.13,-476.488)">
        <g>
            <rect id="Artboard2" x="847.499" y="0" width="1142.55" height="790.038" style="fill:none;"/>
            <g id="Artboard21" serif:id="Artboard2">
                <g id="g3013" transform="matrix(0.476083,0,0,0.476083,1522.39,506.823)">
                    <path id="polygon2989" d="M349.894,80.496L323.457,376.655L204.622,409.6L86.115,376.702L59.706,80.496L349.894,80.496Z" style="fill:rgb(123,123,128);fill-rule:nonzero;"/>
                    <path id="polygon2991" d="M300.824,357.797L323.416,104.715L204.8,104.715L204.8,384.418L300.824,357.797Z" style="fill:rgb(136,136,141);fill-rule:nonzero;"/>
                    <path id="polygon2993" d="M120.248,214.574L123.504,250.902L204.8,250.902L204.8,214.574L120.248,214.574Z" style="fill:rgb(230,230,235);fill-rule:nonzero;"/>
                    <path id="polygon2995" d="M204.8,141.044L113.706,141.044L117.008,177.373L204.8,177.373L204.8,141.044Z" style="fill:rgb(230,230,235);fill-rule:nonzero;"/>
                    <path id="polygon2997" d="M204.8,346.719L204.8,308.922L204.641,308.965L164.182,298.04L161.595,269.066L125.127,269.066L130.217,326.107L204.633,346.766L204.8,346.719Z" style="fill:rgb(230,230,235);fill-rule:nonzero;"/>
                    <path id="path2999" d="M128,-0L172,-0L172,18.4L146.4,18.4L146.4,36.8L172,36.8L172,55.2L128,55.2L128,-0Z" style="fill:rgb(65,65,67);fill-rule:nonzero;"/>
                    <path id="path3001" d="M180.8,-0L224.8,-0L224.8,16L199.2,16L199.2,19.2L224.8,19.2L224.8,56L180.8,56L180.8,39.2L206.4,39.2L206.4,36L180.8,36L180.8,-0Z" style="fill:rgb(65,65,67);fill-rule:nonzero;"/>
                    <path id="path3003" d="M233.6,-0L277.6,-0L277.6,16L252,16L252,19.2L277.6,19.2L277.6,56L233.6,56L233.6,39.2L259.2,39.2L259.2,36L233.6,36L233.6,-0Z" style="fill:rgb(65,65,67);fill-rule:nonzero;"/>
                    <path id="polygon3005" d="M249.409,250.902L245.192,298.017L204.674,308.953L204.674,346.748L279.15,326.107L279.696,319.97L288.233,224.329L289.119,214.574L295.678,141.044L204.674,141.044L204.674,177.373L255.865,177.373L252.559,214.574L204.674,214.574L204.674,250.902L249.409,250.902Z" style="fill:rgb(244,244,246);fill-rule:nonzero;"/>
                </g>
                <g transform="matrix(0.255675,0,0,0.255675,1060.13,476.488)">
                    <rect id="Page-3" serif:id="Page 3" x="0" y="0" width="1000" height="1000" style="fill:none;"/>
                    <g>
                        <g>
                            <g id="W-Mark" serif:id="W Mark">
                                <g opacity="0">
                                    <g transform="matrix(1,0,0,-1,0,1000)">
                                        <rect x="0" y="0" width="1000" height="1000" style="fill:white;"/>
                                    </g>
                                </g>
                                <g transform="matrix(1,0,0,1,500,833.334)">
                                    <path d="M0,-666.667C-184.095,-666.667 -333.333,-517.429 -333.333,-333.334C-333.333,-149.239 -184.095,0 0,0C184.095,0 333.333,-149.239 333.333,-333.334C333.333,-517.429 184.095,-666.667 0,-666.667M0,-646.667C42.309,-646.667 83.341,-638.385 121.957,-622.052C140.519,-614.201 158.424,-604.482 175.174,-593.167C191.77,-581.955 207.376,-569.078 221.56,-554.894C235.744,-540.71 248.621,-525.103 259.833,-508.508C271.149,-491.758 280.867,-473.853 288.718,-455.291C305.052,-416.675 313.333,-375.642 313.333,-333.334C313.333,-291.025 305.052,-249.993 288.718,-211.377C280.867,-192.815 271.149,-174.91 259.833,-158.16C248.621,-141.564 235.744,-125.958 221.56,-111.774C207.376,-97.59 191.77,-84.713 175.174,-73.501C158.424,-62.185 140.519,-52.467 121.957,-44.616C83.341,-28.282 42.309,-20 0,-20C-42.308,-20 -83.341,-28.282 -121.957,-44.616C-140.519,-52.467 -158.424,-62.185 -175.174,-73.501C-191.769,-84.713 -207.376,-97.59 -221.56,-111.774C-235.744,-125.958 -248.621,-141.564 -259.833,-158.16C-271.148,-174.91 -280.867,-192.815 -288.718,-211.377C-305.051,-249.993 -313.333,-291.025 -313.333,-333.334C-313.333,-375.642 -305.051,-416.675 -288.718,-455.291C-280.867,-473.853 -271.148,-491.758 -259.833,-508.508C-248.621,-525.103 -235.744,-540.71 -221.56,-554.894C-207.376,-569.078 -191.769,-581.955 -175.174,-593.167C-158.424,-604.482 -140.519,-614.201 -121.957,-622.052C-83.341,-638.385 -42.308,-646.667 0,-646.667" style="fill:rgb(103,103,108);fill-rule:nonzero;"/>
                                </g>
                                <g transform="matrix(1,0,0,1,743.759,633.267)">
                                    <path d="M0,-266.535C1.193,-257.689 1.867,-248.198 1.867,-237.974C1.867,-209.797 -3.412,-178.11 -19.262,-138.484L-104.101,106.813C-21.518,58.667 34.019,-30.802 34.019,-133.278C34.019,-181.572 21.677,-226.974 0,-266.535M-238.879,-108.981L-322.235,133.192C-297.341,140.516 -271.023,144.51 -243.759,144.51C-211.412,144.51 -180.38,138.927 -151.51,128.761C-152.253,127.573 -152.938,126.311 -153.503,124.933L-238.879,-108.981ZM-56.236,-147.287C-56.236,-181.627 -68.571,-205.395 -79.135,-223.892C-93.217,-246.784 -106.422,-266.151 -106.422,-289.042C-106.422,-314.572 -87.061,-338.34 -59.775,-338.34C-58.542,-338.34 -57.375,-338.192 -56.178,-338.116C-105.599,-383.398 -171.443,-411.045 -243.759,-411.045C-340.808,-411.045 -426.18,-361.25 -475.85,-285.848C-469.328,-285.641 -463.183,-285.511 -457.973,-285.511C-428.925,-285.511 -383.938,-289.042 -383.938,-289.042C-368.972,-289.919 -367.203,-267.92 -382.162,-266.151C-382.162,-266.151 -397.215,-264.388 -413.951,-263.512L-312.801,37.372L-252.004,-144.938L-295.279,-263.512C-310.245,-264.388 -324.413,-266.151 -324.413,-266.151C-339.387,-267.035 -337.633,-289.919 -322.651,-289.042C-322.651,-289.042 -276.788,-285.511 -249.495,-285.511C-220.447,-285.511 -175.453,-289.042 -175.453,-289.042C-160.479,-289.919 -158.717,-267.92 -173.683,-266.151C-173.683,-266.151 -188.751,-264.388 -205.473,-263.512L-105.087,35.08L-76.431,-55.721C-63.7,-95.404 -56.236,-123.519 -56.236,-147.287M-521.537,-133.278C-521.537,-23.333 -457.647,71.69 -364.977,116.711L-497.484,-246.323C-512.897,-211.78 -521.537,-173.55 -521.537,-133.278" style="fill:rgb(103,103,108);fill-rule:nonzero;"/>
                                </g>
                            </g>
                        </g>
                    </g>
                </g>
                <g transform="matrix(0.255675,0,0,0.255675,150.534,62.1297)">
                    <g transform="matrix(0.991068,0,0,0.991068,4593.47,1808.46)">
                        <rect x="0" y="0" width="630" height="630" style="fill:rgb(215,215,220);"/>
                    </g>
                    <g transform="matrix(0.991068,0,0,0.991068,4593.47,1808.46)">
                        <path d="M423.2,492.19C435.89,512.91 452.4,528.14 481.6,528.14C506.13,528.14 521.8,515.88 521.8,498.94C521.8,478.64 505.7,471.45 478.7,459.64L463.9,453.29C421.18,435.09 392.8,412.29 392.8,364.09C392.8,319.69 426.63,285.89 479.5,285.89C517.14,285.89 544.2,298.99 563.7,333.29L517.6,362.89C507.45,344.69 496.5,337.52 479.5,337.52C462.16,337.52 451.17,348.52 451.17,362.89C451.17,380.65 462.17,387.84 487.57,398.84L502.37,405.18C552.67,426.75 581.07,448.74 581.07,498.18C581.07,551.48 539.2,580.68 482.97,580.68C427.99,580.68 392.47,554.48 375.09,520.14L423.2,492.19ZM214.07,497.32C223.37,513.82 231.83,527.77 252.17,527.77C271.62,527.77 283.89,520.16 283.89,490.57L283.89,289.27L343.09,289.27L343.09,491.37C343.09,552.67 307.15,580.57 254.69,580.57C207.29,580.57 179.84,556.04 165.88,526.495L214.07,497.32Z" style="fill:rgb(65,65,67);fill-rule:nonzero;"/>
                    </g>
                </g>
            </g>
        </g>
    </g>
</svg>
