<?xml version="1.0" encoding="UTF-8" standalone="no"?>
<!DOCTYPE svg PUBLIC "-//W3C//DTD SVG 1.1//EN" "http://www.w3.org/Graphics/SVG/1.1/DTD/svg11.dtd">
<svg width="100%" height="100%" viewBox="0 0 40 40" version="1.1" xmlns="http://www.w3.org/2000/svg" xmlns:xlink="http://www.w3.org/1999/xlink" xml:space="preserve" xmlns:serif="http://www.serif.com/" style="fill-rule:evenodd;clip-rule:evenodd;stroke-linejoin:round;stroke-miterlimit:2;">
    <path d="M2,4L2,3L3,3L3,2L4,2L4,1L8,1L8,4L7,4L7,5L6,5L6,6L7,6L7,7L8,7L8,10L4,10L4,9L3,9L3,8L2,8L2,7L1,7L1,4L2,4ZM2,6L3,6L3,7L4,7L4,8L5,8L5,9L7,9L7,8L6,8L6,7L5,7L5,6L4,6L4,5L5,5L5,4L6,4L6,3L7,3L7,2L5,2L5,3L4,3L4,4L3,4L3,5L2,5L2,6Z" style="fill:rgb(158,109,221);"/>
    <rect x="8" y="1" width="1" height="3" style="fill:rgb(96,217,168);"/>
    <path d="M14,9L14,10L10,10L10,7L11,7L11,6L12,6L12,5L11,5L11,4L10,4L10,1L14,1L14,2L15,2L15,3L16,3L16,4L17,4L17,7L16,7L16,8L15,8L15,9L14,9ZM14,8L14,7L15,7L15,6L16,6L16,5L15,5L15,4L14,4L14,3L13,3L13,2L11,2L11,3L12,3L12,4L13,4L13,5L14,5L14,6L13,6L13,7L12,7L12,8L11,8L11,9L13,9L13,8L14,8Z" style="fill:rgb(158,109,221);"/>
    <g transform="matrix(0.616771,0,0,0.616771,14,1)">
        <rect x="0" y="0" width="1.621" height="1.621" style="fill:rgb(96,217,168);"/>
    </g>
    <path d="M3,5L3,4L4,4L4,3L5,3L5,2L7,2L7,3L6,3L6,4L5,4L5,5L4,5L4,6L5,6L5,7L6,7L6,8L7,8L7,9L5,9L5,8L4,8L4,7L3,7L3,6L2,6L2,5L3,5Z" style="fill:white;"/>
    <path d="M13,2L13,3L14,3L14,4L15,4L15,5L16,5L16,6L15,6L15,7L14,7L14,8L13,8L13,9L11,9L11,8L12,8L12,7L13,7L13,6L14,6L14,5L13,5L13,4L12,4L12,3L11,3L11,2L13,2Z" style="fill:white;"/>
    <g transform="matrix(0.616771,0,0,0.616771,15,2)">
        <rect x="0" y="0" width="1.621" height="1.621" style="fill:rgb(96,217,168);"/>
    </g>
    <g transform="matrix(0.616771,0,0,0.616771,16,3)">
        <rect x="0" y="0" width="1.621" height="1.621" style="fill:rgb(96,217,168);"/>
    </g>
    <g transform="matrix(0.616771,0,0,0.616771,7,4)">
        <rect x="0" y="0" width="1.621" height="1.621" style="fill:rgb(96,217,168);"/>
    </g>
    <path d="M14,10L14,9L15,9L15,8L16,8L16,7L17,7L17,4L18,4L18,8L17,8L17,9L16,9L16,10L15,10L15,11L11,11L11,10L14,10Z" style="fill:rgb(96,217,168);"/>
    <g transform="matrix(0.616771,0,0,0.616771,6,5)">
        <rect x="0" y="0" width="1.621" height="1.621" style="fill:rgb(96,217,168);"/>
    </g>
    <path d="M8,10L8,7L9,7L9,11L5,11L5,10L8,10Z" style="fill:rgb(96,217,168);"/>
    <path d="M4,12L36,12L36,38L4,38L4,12ZM5,16L35,16L35,13L5,13L5,16ZM35,17L13,17L13,37L35,37L35,17ZM12,17L5,17L5,37L12,37L12,17Z" style="fill:rgb(34,34,36);"/>
    <path d="M35,16L5,16L5,13L35,13L35,16ZM14,14L12,14L12,15L14,15L14,14ZM11,15L11,14L9,14L9,15L11,15ZM6,15L8,15L8,14L6,14L6,15Z" style="fill:white;"/>
    <rect x="6" y="14" width="2" height="1" style="fill:rgb(34,34,36);"/>
    <rect x="9" y="14" width="2" height="1" style="fill:rgb(34,34,36);"/>
    <rect x="12" y="14" width="2" height="1" style="fill:rgb(34,34,36);"/>
    <path d="M38,40L5,40L5,38L36,38L36,14L38,14L38,40Z" style="fill:rgb(96,217,168);"/>
    <path d="M5,37L5,17L12,17L12,37L5,37ZM10,30L10,29L6,29L6,30L10,30ZM11,31L6,31L6,32L11,32L11,31ZM11,23L6,23L6,24L11,24L11,23ZM6,26L9,26L9,25L6,25L6,26ZM6,20L11,20L11,18L6,18L6,20ZM6,22L11,22L11,21L6,21L6,22ZM10,28L10,27L6,27L6,28L10,28Z" style="fill:white;"/>
    <path d="M35,17L35,37L13,37L13,17L35,17ZM14,20L24,20L24,18L14,18L14,20ZM27,20L31,20L31,18L27,18L27,20ZM32,20L34,20L34,18L32,18L32,20ZM14,29L14,35L20,35L20,29L14,29ZM28,29L28,35L34,35L34,29L28,29ZM21,21L21,27L27,27L27,21L21,21ZM21,29L21,35L27,35L27,29L21,29ZM34,21L28,21L28,27L34,27L34,21ZM14,27L20,27L20,21L14,21L14,27Z" style="fill:white;"/>
    <rect x="6" y="18" width="5" height="2" style="fill:rgb(158,109,221);"/>
    <rect x="14" y="18" width="10" height="2" style="fill:rgb(158,109,221);"/>
    <rect x="27" y="18" width="4" height="2" style="fill:rgb(158,109,221);"/>
    <rect x="32" y="18" width="2" height="2" style="fill:rgb(206,206,216);"/>
    <g transform="matrix(0.616771,0,0,0.616771,6,21)">
        <rect x="0" y="0" width="1.621" height="1.621" style="fill:rgb(207,182,238);"/>
    </g>
    <rect x="7" y="21" width="3" height="1" style="fill:rgb(158,109,221);"/>
    <g transform="matrix(0.616771,0,0,0.616771,10,21)">
        <rect x="0" y="0" width="1.621" height="1.621" style="fill:rgb(207,182,238);"/>
    </g>
    <path d="M20,21L20,27L14,27L14,21L20,21ZM15,24L19,24L19,22L15,22L15,24ZM15,26L19,26L19,25L15,25L15,26Z" style="fill:rgb(101,101,114);"/>
    <path d="M21,27L21,21L27,21L27,27L21,27ZM26,25L22,25L22,26L26,26L26,25ZM22,24L26,24L26,22L22,22L22,24Z" style="fill:rgb(158,109,221);"/>
    <path d="M34,21L34,27L28,27L28,21L34,21ZM29,24L33,24L33,22L29,22L29,24ZM29,26L33,26L33,25L29,25L29,26Z" style="fill:rgb(101,101,114);"/>
    <rect x="15" y="22" width="4" height="2" style="fill:white;"/>
    <rect x="22" y="22" width="4" height="2" style="fill:white;"/>
    <rect x="29" y="22" width="4" height="2" style="fill:white;"/>
    <rect x="6" y="23" width="5" height="1" style="fill:rgb(206,206,216);"/>
    <rect x="6" y="25" width="3" height="1" style="fill:rgb(206,206,216);"/>
    <rect x="15" y="25" width="4" height="1" style="fill:white;"/>
    <rect x="22" y="25" width="4" height="1" style="fill:rgb(207,182,238);"/>
    <rect x="29" y="25" width="4" height="1" style="fill:white;"/>
    <rect x="6" y="27" width="4" height="1" style="fill:rgb(206,206,216);"/>
    <rect x="6" y="29" width="4" height="1" style="fill:rgb(101,101,114);"/>
    <path d="M20,29L20,35L14,35L14,29L20,29ZM15,32L19,32L19,30L15,30L15,32ZM15,34L19,34L19,33L15,33L15,34Z" style="fill:rgb(158,109,221);"/>
    <path d="M27,29L27,35L21,35L21,29L27,29ZM22,32L26,32L26,30L22,30L22,32ZM22,34L26,34L26,33L22,33L22,34Z" style="fill:rgb(101,101,114);"/>
    <path d="M34,29L34,35L28,35L28,29L34,29ZM29,32L33,32L33,30L29,30L29,32ZM29,34L33,34L33,33L29,33L29,34Z" style="fill:rgb(101,101,114);"/>
    <rect x="15" y="30" width="4" height="2" style="fill:white;"/>
    <rect x="22" y="30" width="4" height="2" style="fill:white;"/>
    <rect x="29" y="30" width="4" height="2" style="fill:white;"/>
    <rect x="6" y="31" width="5" height="1" style="fill:rgb(206,206,216);"/>
    <rect x="15" y="33" width="4" height="1" style="fill:rgb(207,182,238);"/>
    <rect x="22" y="33" width="4" height="1" style="fill:white;"/>
    <rect x="29" y="33" width="4" height="1" style="fill:white;"/>
    <g transform="matrix(0.616771,0,0,0.616771,13,36)">
        <rect x="0" y="0" width="1.621" height="1.621" style="fill:white;"/>
    </g>
</svg>
