<svg viewBox="0 0 480 620" fill="none" xmlns="http://www.w3.org/2000/svg">
<rect width="480" height="620" fill="url(#paint0_linear_107_4033)"/>
<g clip-path="url(#clip0_107_4033)">
<rect width="480" height="556" transform="translate(0 64)" fill="#DBDBDB" fill-opacity="0.4"/>
<rect width="144" height="556" transform="translate(0 64)" fill="#EAEAEA" fill-opacity="0.6"/>
<rect x="16" y="88" width="16" height="16" rx="4" fill="#9F7BDC"/>
<rect x="42" y="90" width="70" height="12" rx="6" fill="#71717A"/>
<rect x="16" y="116" width="16" height="16" rx="4" fill="#9F7BDC"/>
<rect x="42" y="118" width="86" height="12" rx="6" fill="#71717A"/>
<rect x="40" y="144" width="16" height="16" rx="4" fill="#9F7BDC"/>
<rect x="66" y="146" width="64" height="12" rx="6" fill="#71717A"/>
<rect x="40" y="172" width="16" height="16" rx="4" fill="#583285"/>
<rect x="66" y="174" width="51" height="12" rx="6" fill="#71717A"/>
<rect x="40" y="200" width="16" height="16" rx="4" fill="#583285"/>
<rect x="66" y="202" width="64" height="12" rx="6" fill="#71717A"/>
<rect x="16" y="228" width="16" height="16" rx="4" fill="#B399EC"/>
<rect x="42" y="230" width="86" height="12" rx="6" fill="#71717A"/>
<rect x="40" y="256" width="16" height="16" rx="4" fill="#9F7BDC"/>
<rect x="66" y="258" width="51" height="12" rx="6" fill="#71717A"/>
<rect x="40" y="284" width="16" height="16" rx="4" fill="#885EC0"/>
<rect x="66" y="286" width="64" height="12" rx="6" fill="#71717A"/>
<rect x="16" y="312" width="16" height="16" rx="4" fill="#9F7BDC"/>
<rect x="42" y="314" width="86" height="12" rx="6" fill="#71717A"/>
<g clip-path="url(#clip1_107_4033)">
<path d="M168 100C168 93.3726 173.373 88 180 88H306C312.627 88 318 93.3726 318 100C318 106.627 312.627 112 306 112H180C173.373 112 168 106.627 168 100Z" fill="#71717A"/>
<rect x="168" y="136" width="54" height="20" rx="10" fill="#F4F4F5"/>
<rect x="232" y="136" width="38" height="20" rx="10" fill="#F4F4F5"/>
<rect x="280" y="136" width="20" height="20" rx="10" fill="#885EC0"/>
<rect x="168" y="180" width="84" height="12" rx="6" fill="#71717A"/>
<g clip-path="url(#clip2_107_4033)">
<rect x="168" y="204" width="114" height="40" rx="8" fill="#F4F4F5"/>
<rect x="180" y="216" width="16" height="16" rx="4" fill="#9F7BDC"/>
<rect x="206" y="218" width="64" height="12" rx="6" fill="#71717A"/>
<rect x="292" y="204" width="114" height="40" rx="8" fill="#F4F4F5"/>
<rect x="304" y="216" width="16" height="16" rx="4" fill="#9F7BDC"/>
<rect x="330" y="218" width="64" height="12" rx="6" fill="#71717A"/>
<rect x="416" y="204" width="114" height="40" rx="8" fill="#F4F4F5"/>
<rect x="428" y="216" width="16" height="16" rx="4" fill="#9F7BDC"/>
<rect x="454" y="218" width="64" height="12" rx="6" fill="#71717A"/>
</g>
<rect x="168" y="254" width="114" height="40" rx="8" fill="#F4F4F5"/>
<rect x="180" y="266" width="16" height="16" rx="4" fill="#9F7BDC"/>
<rect x="206" y="268" width="64" height="12" rx="6" fill="#71717A"/>
<rect x="292" y="254" width="114" height="40" rx="8" fill="#F4F4F5"/>
<rect x="304" y="266" width="16" height="16" rx="4" fill="#9F7BDC"/>
<rect x="330" y="268" width="64" height="12" rx="6" fill="#71717A"/>
<rect x="168" y="318" width="59" height="12" rx="6" fill="#71717A"/>
<g clip-path="url(#clip3_107_4033)">
<rect x="168" y="342" width="114" height="111" rx="8" fill="#F4F4F5"/>
<rect width="114" height="79" transform="translate(168 342)" fill="#E4E4E7"/>
<path d="M238.376 362H222.855L209.205 375.65V398.581C209.205 399.917 210.288 401 211.624 401H238.376C239.712 401 240.795 399.917 240.795 398.581V364.419C240.795 363.083 239.712 362 238.376 362Z" fill="#71717A"/>
<rect x="214.665" y="380.72" width="20.67" height="4.68" rx="2.34" fill="#D4D4D8"/>
<rect x="214.665" y="388.91" width="20.67" height="4.68" rx="2.34" fill="#D4D4D8"/>
<path d="M222.855 373.231V362L209.205 375.65H220.436C221.772 375.65 222.855 374.567 222.855 373.231Z" fill="#27272A"/>
<rect x="180" y="429" width="16" height="16" rx="4" fill="#71717A"/>
<rect x="206" y="431" width="64" height="12" rx="6" fill="#71717A"/>
</g>
<g clip-path="url(#clip4_107_4033)">
<rect x="292" y="342" width="114" height="111" rx="8" fill="#F4F4F5"/>
<rect width="114" height="79" transform="translate(292 342)" fill="#E4E4E7"/>
<path d="M362.376 362H346.855L333.205 375.65V398.581C333.205 399.917 334.288 401 335.624 401H362.376C363.712 401 364.795 399.917 364.795 398.581V364.419C364.795 363.083 363.712 362 362.376 362Z" fill="#71717A"/>
<rect x="338.665" y="380.72" width="20.67" height="4.68" rx="2.34" fill="#D4D4D8"/>
<rect x="338.665" y="388.91" width="20.67" height="4.68" rx="2.34" fill="#D4D4D8"/>
<path d="M346.855 373.231V362L333.205 375.65H344.436C345.772 375.65 346.855 374.567 346.855 373.231Z" fill="#27272A"/>
<rect x="304" y="429" width="16" height="16" rx="4" fill="#71717A"/>
<rect x="330" y="431" width="64" height="12" rx="6" fill="#71717A"/>
</g>
</g>
</g>
<path d="M429.49 30H378.15L333 75.15V151C333 155.418 336.582 159 341 159H429.49C433.908 159 437.49 155.418 437.49 151V38C437.49 33.5817 433.908 30 429.49 30Z" fill="#B399EC"/>
<rect x="351.06" y="91.92" width="68.37" height="15.48" rx="6" fill="#583285"/>
<rect x="351.06" y="119.01" width="68.37" height="15.48" rx="6" fill="#583285"/>
<path d="M378.15 67.15V30L333 75.15H370.15C374.568 75.15 378.15 71.5683 378.15 67.15Z" fill="#9F7BDC"/>
<defs>
<linearGradient id="paint0_linear_107_4033" x1="581.974" y1="265.802" x2="-77.682" y2="502.6" gradientUnits="userSpaceOnUse">
<stop stop-color="#F4F4F5"/>
<stop offset="0.326923" stop-color="#F0ECFB"/>
<stop offset="1" stop-color="#B399EC"/>
</linearGradient>
<clipPath id="clip0_107_4033">
<rect width="480" height="556" fill="white" transform="translate(0 64)"/>
</clipPath>
<clipPath id="clip1_107_4033">
<rect width="336" height="556" fill="white" transform="translate(144 64)"/>
</clipPath>
<clipPath id="clip2_107_4033">
<rect width="320" height="40" fill="white" transform="translate(168 204)"/>
</clipPath>
<clipPath id="clip3_107_4033">
<rect x="168" y="342" width="114" height="111" rx="8" fill="white"/>
</clipPath>
<clipPath id="clip4_107_4033">
<rect x="292" y="342" width="114" height="111" rx="8" fill="white"/>
</clipPath>
</defs>
</svg>
