<svg viewBox="0 0 480 620" fill="none" xmlns="http://www.w3.org/2000/svg">
<g clip-path="url(#clip0_106_2266)">
<rect width="480" height="620" fill="url(#paint0_linear_106_2266)"/>
<path d="M174.11 541.259C107.69 552.967 90.3618 596.729 90 617.146H529V420.38C523.212 408.636 500.457 385.146 455.743 385.146C399.85 385.146 366.206 462.66 334.733 444.231C303.26 425.801 285.895 450.735 278.298 462.66C270.701 474.586 257.135 526.623 174.11 541.259Z" fill="black" fill-opacity="0.5"/>
<path d="M385.009 235.009C378.962 213.971 401.567 201.199 413.626 197.442C435.299 184.562 464.38 197.442 462.221 211.932C460.061 226.422 475.179 232.325 477.879 262.916C480.578 293.506 437.383 278.479 428.204 268.819C419.025 259.159 392.568 261.306 385.009 235.009Z" fill="black" fill-opacity="0.5"/>
<path d="M137.839 533.594C98.3828 540.964 66.8396 592.667 56 617.597V624.643L528.606 631.146C530.413 557.079 532.942 398.429 528.606 356.373C523.186 303.803 440.805 295.131 426.172 298.925C411.538 302.719 377.936 317.352 367.096 374.799C356.257 432.247 318.86 420.866 293.929 434.957C268.998 449.048 263.578 479.94 235.937 505.954C208.296 531.968 187.159 524.38 137.839 533.594Z" fill="black" fill-opacity="0.4"/>
<path d="M131.945 474.156C48.6497 475.889 7.94196 570.229 -2 617.182L543 649.146L535.408 232.527C520.043 216.816 485.951 182.576 472.502 171.308C455.692 157.222 400.378 148.553 379.229 176.725C358.08 204.897 348.861 231.444 355.91 313.251C362.96 395.058 343.98 387.473 327.711 406.435C311.443 425.397 272.94 410.227 252.876 424.313C232.811 438.399 236.065 471.988 131.945 474.156Z" fill="black" fill-opacity="0.3"/>
<path d="M60.4652 422.5C13.4709 433.67 -42.0926 468.654 -64 484.75L-60.5103 547C-45.7761 523.341 -12.1201 473.347 4.63035 462.643C25.5684 449.262 89.5459 437.045 136.657 428.9C183.767 420.755 185.512 382.358 198.308 363.159C211.103 343.961 244.837 335.234 271.009 329.998C297.182 324.762 318.12 285.201 307.069 249.713C296.019 214.225 299.769 190.04 306.488 166.519C313.467 142.085 358.251 115.323 394.311 104.851C430.371 94.3793 438.514 103.688 472.829 93.7976C500.281 85.8854 511.021 85.4588 512.96 86.2345C518.001 66.2602 522.382 31.5477 499.583 52.4916C471.084 78.6714 333.823 90.8887 288.458 126.959C243.092 163.029 263.448 222.37 265.193 265.421C266.938 308.472 206.45 329.416 187.838 335.816C169.227 342.215 158.176 366.65 148.289 387.012C138.401 407.374 119.208 408.538 60.4652 422.5Z" fill="#6941AD" fill-opacity="0.3"/>
<path d="M111.752 336.253C84.1807 375.245 15.4293 390.998 -15.5 394L-9.1374 -15L449.5 -10.2319C449.147 5.66192 432.215 38.5091 367.316 42.7474C286.193 48.0453 298.918 82.4819 250.669 114.799C202.419 147.117 224.688 196.387 231.051 209.102C237.413 221.817 259.682 254.135 210.902 259.433C162.34 264.707 146.358 287.309 112.211 335.603L111.752 336.253Z" fill="black" fill-opacity="0.3"/>
<path d="M107.848 314.634C95.5537 359.575 27.8267 378.937 -4.5 383L-3.44011 -6H287.5C283.437 -2.99682 274.781 7.14332 272.662 23.6785C270.012 44.3474 238.745 65.5463 223.907 72.436C209.068 79.3256 174.622 99.4646 194.23 148.222C213.838 196.98 197.939 208.109 199.529 221.358C201.119 234.608 170.912 236.728 161.903 240.437C152.894 244.147 123.217 258.456 107.848 314.634Z" fill="black" fill-opacity="0.3"/>
<path d="M56.2074 320.697C39.6699 351.034 11.2372 356.09 -0.912012 354.826L-2 91C8.69855 91.9029 29.7693 102.268 28.4637 136.506C26.8317 179.303 77.4231 161.426 88.847 174.969C100.271 188.513 115.503 180.387 123.119 202.056C130.735 223.726 114.415 229.685 88.847 243.228C63.2793 256.772 76.8791 282.775 56.2074 320.697Z" fill="black" fill-opacity="0.5"/>
<path d="M33.0064 301.717C29.9978 311.918 8.83025 314.823 -1.37745 315C-2.22455 255.314 -3.4105 136.154 -1.37745 137.005C1.16386 138.067 5.06952 139.13 5.60677 156.132C6.14401 173.135 10.442 180.574 13.6655 191.2C16.889 201.827 39.9906 201.295 36.7671 218.829C33.5436 236.363 26.0222 244.864 35.1554 263.992C44.2886 283.12 36.7671 288.965 33.0064 301.717Z" fill="black" fill-opacity="0.75"/>
<path d="M46.6939 56.6294C33.5432 35.9242 9.75186 30.3958 -0.5 30.2198L0.0302685 -2H219.561C220.799 -0.0632933 221.789 8.98641 215.85 29.6916C208.426 55.573 154.869 47.1219 162.292 78.2853C169.716 109.449 150.627 113.146 135.779 99.413C120.931 85.68 103.433 89.9055 93.8878 90.4337C84.343 90.9619 63.1322 82.5108 46.6939 56.6294Z" fill="black" fill-opacity="0.5"/>
<path d="M50.6238 5.36578C61.2023 13.323 60.1444 32.4203 70.194 45.1519C74.5531 50.6742 85.8469 57.3818 98.7307 63.7187C109.609 69.0695 115.274 79.4608 125.202 83.3465C130.556 85.3308 143.186 91.8342 149.533 87.5904C155.351 82.2856 130.397 56.5995 143.186 52.0481C159.583 46.2128 137.897 26.0545 159.583 24.4631C176.931 23.1899 184.09 7.31087 185.5 -0.469519L163.814 -1L46.3923 -0.469519C44.2766 -1.17683 42.1609 -1 50.6238 5.36578Z" fill="black" fill-opacity="0.75"/>
<path d="M109 192C109 192 136 166.413 136 147C136 139.839 133.155 132.972 128.092 127.908C123.028 122.845 116.161 120 109 120C101.839 120 94.9716 122.845 89.9081 127.908C84.8446 132.972 82 139.839 82 147C82 166.413 109 192 109 192ZM109 160.5C105.42 160.5 101.986 159.078 99.4541 156.546C96.9223 154.014 95.5 150.58 95.5 147C95.5 143.42 96.9223 139.986 99.4541 137.454C101.986 134.922 105.42 133.5 109 133.5C112.58 133.5 116.014 134.922 118.546 137.454C121.078 139.986 122.5 143.42 122.5 147C122.5 150.58 121.078 154.014 118.546 156.546C116.014 159.078 112.58 160.5 109 160.5Z" fill="#71717A"/>
<path d="M260 526C260 526 287 500.413 287 481C287 473.839 284.155 466.972 279.092 461.908C274.028 456.845 267.161 454 260 454C252.839 454 245.972 456.845 240.908 461.908C235.845 466.972 233 473.839 233 481C233 500.413 260 526 260 526ZM260 494.5C256.42 494.5 252.986 493.078 250.454 490.546C247.922 488.014 246.5 484.58 246.5 481C246.5 477.42 247.922 473.986 250.454 471.454C252.986 468.922 256.42 467.5 260 467.5C263.58 467.5 267.014 468.922 269.546 471.454C272.078 473.986 273.5 477.42 273.5 481C273.5 484.58 272.078 488.014 269.546 490.546C267.014 493.078 263.58 494.5 260 494.5Z" fill="#71717A"/>
<path d="M403 386C403 386 430 360.413 430 341C430 333.839 427.155 326.972 422.092 321.908C417.028 316.845 410.161 314 403 314C395.839 314 388.972 316.845 383.908 321.908C378.845 326.972 376 333.839 376 341C376 360.413 403 386 403 386ZM403 354.5C399.42 354.5 395.986 353.078 393.454 350.546C390.922 348.014 389.5 344.58 389.5 341C389.5 337.42 390.922 333.986 393.454 331.454C395.986 328.922 399.42 327.5 403 327.5C406.58 327.5 410.014 328.922 412.546 331.454C415.078 333.986 416.5 337.42 416.5 341C416.5 344.58 415.078 348.014 412.546 350.546C410.014 353.078 406.58 354.5 403 354.5Z" fill="#71717A"/>
<path d="M271 302C271 302 298 276.413 298 257C298 249.839 295.155 242.972 290.092 237.908C285.028 232.845 278.161 230 271 230C263.839 230 256.972 232.845 251.908 237.908C246.845 242.972 244 249.839 244 257C244 276.413 271 302 271 302ZM271 270.5C267.42 270.5 263.986 269.078 261.454 266.546C258.922 264.014 257.5 260.58 257.5 257C257.5 253.42 258.922 249.986 261.454 247.454C263.986 244.922 267.42 243.5 271 243.5C274.58 243.5 278.014 244.922 280.546 247.454C283.078 249.986 284.5 253.42 284.5 257C284.5 260.58 283.078 264.014 280.546 266.546C278.014 269.078 274.58 270.5 271 270.5Z" fill="#9F7BDC"/>
<rect width="120" height="620" fill="#18181B" fill-opacity="0.7"/>
<rect x="12" y="64" width="44" height="6" rx="3" fill="#52525B"/>
<rect x="12" y="79" width="90" height="6" rx="3" fill="#A1A1AA"/>
<rect x="12" y="99" width="55" height="6" rx="3" fill="#A1A1AA"/>
<rect x="12" y="130" width="70" height="6" rx="3" fill="#52525B"/>
<rect x="12" y="145" width="63" height="6" rx="3" fill="#A1A1AA"/>
<rect x="12" y="160" width="96" height="16" rx="8" fill="#7347A8"/>
<rect x="12" y="185" width="47" height="6" rx="3" fill="#A1A1AA"/>
<rect x="12" y="216" width="44" height="6" rx="3" fill="#52525B"/>
<rect x="12" y="231" width="47" height="6" rx="3" fill="#A1A1AA"/>
<rect x="12" y="251" width="77" height="6" rx="3" fill="#A1A1AA"/>
<rect x="12" y="271" width="66" height="6" rx="3" fill="#A1A1AA"/>
<rect x="12" y="291" width="94" height="6" rx="3" fill="#A1A1AA"/>
<g clip-path="url(#clip1_106_2266)">
<path fill-rule="evenodd" clip-rule="evenodd" d="M448.562 39.5C449.736 39.5 450.898 39.2688 451.983 38.8197C453.067 38.3705 454.052 37.7122 454.882 36.8823C455.712 36.0523 456.371 35.0671 456.82 33.9827C457.269 32.8984 457.5 31.7362 457.5 30.5625C457.5 29.3888 457.269 28.2266 456.82 27.1423C456.371 26.0579 455.712 25.0727 454.882 24.2427C454.052 23.4128 453.067 22.7545 451.983 22.3053C450.898 21.8562 449.736 21.625 448.562 21.625C446.192 21.625 443.919 22.5666 442.243 24.2427C440.567 25.9188 439.625 28.1921 439.625 30.5625C439.625 32.9329 440.567 35.2062 442.243 36.8823C443.919 38.5584 446.192 39.5 448.562 39.5ZM459.125 30.5625C459.125 33.3638 458.012 36.0505 456.031 38.0313C454.05 40.0122 451.364 41.125 448.562 41.125C445.761 41.125 443.075 40.0122 441.094 38.0313C439.113 36.0505 438 33.3638 438 30.5625C438 27.7612 439.113 25.0745 441.094 23.0937C443.075 21.1128 445.761 20 448.562 20C451.364 20 454.05 21.1128 456.031 23.0937C458.012 25.0745 459.125 27.7612 459.125 30.5625Z" fill="#A1A1AA"/>
<path d="M454.809 39.0807C454.857 39.1457 454.91 39.208 454.968 39.2676L461.225 45.5239C461.529 45.8288 461.943 46.0002 462.374 46.0003C462.805 46.0005 463.218 45.8294 463.523 45.5247C463.828 45.22 463.999 44.8066 464 44.3756C464 43.9445 463.829 43.531 463.524 43.2261L457.268 36.9699C457.21 36.911 457.147 36.8567 457.081 36.8074C456.444 37.6772 455.678 38.4444 454.809 39.0824V39.0807Z" fill="#A1A1AA"/>
<path fill-rule="evenodd" clip-rule="evenodd" d="M448.562 24.875C448.778 24.875 448.985 24.9606 449.137 25.113C449.289 25.2653 449.375 25.472 449.375 25.6875V29.75H453.438C453.653 29.75 453.86 29.8356 454.012 29.988C454.164 30.1403 454.25 30.347 454.25 30.5625C454.25 30.778 454.164 30.9847 454.012 31.137C453.86 31.2894 453.653 31.375 453.438 31.375H449.375V35.4375C449.375 35.653 449.289 35.8597 449.137 36.012C448.985 36.1644 448.778 36.25 448.562 36.25C448.347 36.25 448.14 36.1644 447.988 36.012C447.836 35.8597 447.75 35.653 447.75 35.4375V31.375H443.688C443.472 31.375 443.265 31.2894 443.113 31.137C442.961 30.9847 442.875 30.778 442.875 30.5625C442.875 30.347 442.961 30.1403 443.113 29.988C443.265 29.8356 443.472 29.75 443.688 29.75H447.75V25.6875C447.75 25.472 447.836 25.2653 447.988 25.113C448.14 24.9606 448.347 24.875 448.562 24.875Z" fill="#A1A1AA"/>
</g>
<g clip-path="url(#clip2_106_2266)">
<path fill-rule="evenodd" clip-rule="evenodd" d="M150.562 39.5C151.736 39.5 152.898 39.2688 153.983 38.8197C155.067 38.3705 156.052 37.7122 156.882 36.8823C157.712 36.0523 158.371 35.0671 158.82 33.9827C159.269 32.8984 159.5 31.7362 159.5 30.5625C159.5 29.3888 159.269 28.2266 158.82 27.1423C158.371 26.0579 157.712 25.0727 156.882 24.2427C156.052 23.4128 155.067 22.7545 153.983 22.3053C152.898 21.8562 151.736 21.625 150.562 21.625C148.192 21.625 145.919 22.5666 144.243 24.2427C142.567 25.9188 141.625 28.1921 141.625 30.5625C141.625 32.9329 142.567 35.2062 144.243 36.8823C145.919 38.5584 148.192 39.5 150.562 39.5ZM161.125 30.5625C161.125 33.3638 160.012 36.0505 158.031 38.0313C156.05 40.0122 153.364 41.125 150.562 41.125C147.761 41.125 145.075 40.0122 143.094 38.0313C141.113 36.0505 140 33.3638 140 30.5625C140 27.7612 141.113 25.0745 143.094 23.0937C145.075 21.1128 147.761 20 150.562 20C153.364 20 156.05 21.1128 158.031 23.0937C160.012 25.0745 161.125 27.7612 161.125 30.5625Z" fill="#A1A1AA"/>
<path d="M156.809 39.0807C156.857 39.1457 156.91 39.208 156.968 39.2676L163.224 45.5239C163.529 45.8288 163.943 46.0002 164.374 46.0003C164.805 46.0005 165.218 45.8294 165.523 45.5247C165.828 45.22 165.999 44.8066 165.999 44.3756C166 43.9445 165.829 43.531 165.524 43.2261L159.268 36.9699C159.21 36.911 159.147 36.8567 159.081 36.8074C158.444 37.6772 157.678 38.4444 156.809 39.0824V39.0807Z" fill="#A1A1AA"/>
<path fill-rule="evenodd" clip-rule="evenodd" d="M144.875 30.5625C144.875 30.347 144.961 30.1403 145.113 29.988C145.265 29.8356 145.472 29.75 145.688 29.75H155.438C155.653 29.75 155.86 29.8356 156.012 29.988C156.164 30.1403 156.25 30.347 156.25 30.5625C156.25 30.778 156.164 30.9847 156.012 31.137C155.86 31.2894 155.653 31.375 155.438 31.375H145.688C145.472 31.375 145.265 31.2894 145.113 31.137C144.961 30.9847 144.875 30.778 144.875 30.5625Z" fill="#A1A1AA"/>
</g>
<rect x="175" y="30" width="248" height="4" rx="2" fill="#9A70E2" fill-opacity="0.25"/>
<circle cx="316" cy="32" r="5" fill="#885EC0"/>
</g>
<defs>
<linearGradient id="paint0_linear_106_2266" x1="480" y1="2.69134e-05" x2="-54.7661" y2="568.482" gradientUnits="userSpaceOnUse">
<stop stop-color="#27272A"/>
<stop offset="0.5" stop-color="#27272A"/>
<stop offset="1" stop-color="#09090B"/>
</linearGradient>
<clipPath id="clip0_106_2266">
<rect width="480" height="620" fill="white"/>
</clipPath>
<clipPath id="clip1_106_2266">
<rect width="26" height="26" fill="white" transform="translate(438 20)"/>
</clipPath>
<clipPath id="clip2_106_2266">
<rect width="26" height="26" fill="white" transform="translate(140 20)"/>
</clipPath>
</defs>
</svg>
