<svg viewBox="0 0 466 505" fill="none" xmlns="http://www.w3.org/2000/svg">
<g clip-path="url(#clip0_1_532)">
<rect width="466" height="505" fill="url(#paint0_linear_1_532)"/>
<path d="M162.5 441.5C101.3 452.3 85.3333 492.667 85 511.5H489.5V330C484.167 319.167 463.2 297.5 422 297.5C370.5 297.5 339.5 369 310.5 352C281.5 335 265.5 358 258.5 369C251.5 380 239 428 162.5 441.5Z" fill="white" fill-opacity="0.5"/>
<path d="M356.5 159C350.9 139.4 371.833 127.5 383 124C403.07 112 430 124 428 137.5C426 151 440 156.5 442.5 185C445 213.5 405 199.5 396.5 190.5C388 181.5 363.5 183.5 356.5 159Z" fill="white" fill-opacity="0.5"/>
<path d="M129 434C92.6 440.8 63.5 488.5 53.5 511.5V518L489.5 524C491.167 455.667 493.5 309.3 489.5 270.5C484.5 222 408.5 214 395 217.5C381.5 221 350.5 234.5 340.5 287.5C330.5 340.5 296 330 273 343C250 356 245 384.5 219.5 408.5C194 432.5 174.5 425.5 129 434Z" fill="white" fill-opacity="0.4"/>
<path d="M123.5 379.5C46.7 381.1 9.16667 468.167 0 511.5L502.5 541L495.5 156.5C481.333 142 449.9 110.4 437.5 99.9999C422 86.9999 371 78.9999 351.5 105C332 131 323.5 155.5 330 231C336.5 306.5 319 299.5 304 317C289 334.5 253.5 320.5 235 333.5C216.5 346.5 219.5 377.5 123.5 379.5Z" fill="white" fill-opacity="0.3"/>
<path d="M97 347C56.6 356.6 8.83333 386.667 -10 400.5L-7 454C5.66667 433.667 34.6 390.7 49 381.5C67 370 122 359.5 162.5 352.5C203 345.5 204.5 312.5 215.5 296C226.5 279.5 255.5 272 278 267.5C300.5 263 318.5 229 309 198.5C299.5 168 302.724 147.215 308.5 127C314.5 106 353 83 384 74C415 65 422 73 451.5 64.5C475.1 57.7 484.333 57.3333 486 58C490.333 40.8333 494.1 11 474.5 29C450 51.5 332 62 293 93C254 124 271.5 175 273 212C274.5 249 222.5 267 206.5 272.5C190.5 278 181 299 172.5 316.5C164 334 147.5 335 97 347Z" fill="#9A70E2" fill-opacity="0.3"/>
<path d="M104.5 316.5C78.5 353.3 13.6667 368.167 -15.5 371L-9.5 -15L423 -10.5C422.667 4.5 406.7 35.5 345.5 39.5C269 44.5 281 77 235.5 107.5C190 138 211 184.5 217 196.5C223 208.5 244 239 198 244C152.205 248.978 137.134 270.309 104.933 315.887L104.5 316.5Z" fill="white" fill-opacity="0.3"/>
<path d="M100.5 296C88.9 338.4 25 356.667 -5.5 360.5L-4.5 -6.5H270C266.167 -3.66667 258 5.9 256 21.5C253.5 41 224 61 210 67.5C196 74 163.5 93 182 139C200.5 185 185.5 195.5 187 208C188.5 220.5 160 222.5 151.5 226C143 229.5 115 243 100.5 296Z" fill="white" fill-opacity="0.3"/>
<path d="M52.5 297.5C37.3 325.5 11.1667 330.167 0 329L-1 85.5C8.83333 86.3333 28.2 95.9 27 127.5C25.5 167 72 150.5 82.5 163C93 175.5 107 168 114 188C121 208 106 213.5 82.5 226C59 238.5 71.5 262.5 52.5 297.5Z" fill="white" fill-opacity="0.5"/>
<path d="M29.4998 283.5C26.6998 293.1 6.9998 295.833 -2.5002 296C-3.28857 239.833 -4.39229 127.7 -2.5002 128.5C-0.135074 129.5 3.4998 130.5 3.9998 146.5C4.4998 162.5 8.4998 169.5 11.4998 179.5C14.4998 189.5 35.9998 189 32.9998 205.5C29.9998 222 22.9998 230 31.4998 248C39.9998 266 32.9998 271.5 29.4998 283.5Z" fill="white" fill-opacity="0.75"/>
<path d="M42.5 52.5C30.1 32.9 7.66667 27.6667 -2 27.5L-1.5 -3H205.5C206.667 -1.16667 207.6 7.4 202 27C195 51.5 144.5 43.5 151.5 73C158.5 102.5 140.5 106 126.5 93C112.5 80 96 84 87 84.5C78 85 58 77 42.5 52.5Z" fill="white" fill-opacity="0.5"/>
<path d="M46.4998 4.5C56.4998 12 55.4998 30 64.9998 42C69.1204 47.205 79.7967 53.5272 91.9758 59.5C102.259 64.5433 107.615 74.3375 117 78C122.06 79.8702 134 86 140 82C145.5 77 121.91 52.7898 134 48.5C149.5 43 129 24 149.5 22.5C165.9 21.3 172.666 6.33333 174 -1L153.5 -1.5L42.4998 -1C40.4998 -1.66667 38.4998 -1.5 46.4998 4.5Z" fill="white" fill-opacity="0.75"/>
<path d="M260 466C260 466 287 440.413 287 421C287 413.839 284.155 406.972 279.092 401.908C274.028 396.845 267.161 394 260 394C252.839 394 245.972 396.845 240.908 401.908C235.845 406.972 233 413.839 233 421C233 440.413 260 466 260 466ZM260 434.5C256.42 434.5 252.986 433.078 250.454 430.546C247.922 428.014 246.5 424.58 246.5 421C246.5 417.42 247.922 413.986 250.454 411.454C252.986 408.922 256.42 407.5 260 407.5C263.58 407.5 267.014 408.922 269.546 411.454C272.078 413.986 273.5 417.42 273.5 421C273.5 424.58 272.078 428.014 269.546 430.546C267.014 433.078 263.58 434.5 260 434.5Z" fill="#B399EC"/>
<path d="M383 386C383 386 410 360.413 410 341C410 333.839 407.155 326.972 402.092 321.908C397.028 316.845 390.161 314 383 314C375.839 314 368.972 316.845 363.908 321.908C358.845 326.972 356 333.839 356 341C356 360.413 383 386 383 386ZM383 354.5C379.42 354.5 375.986 353.078 373.454 350.546C370.922 348.014 369.5 344.58 369.5 341C369.5 337.42 370.922 333.986 373.454 331.454C375.986 328.922 379.42 327.5 383 327.5C386.58 327.5 390.014 328.922 392.546 331.454C395.078 333.986 396.5 337.42 396.5 341C396.5 344.58 395.078 348.014 392.546 350.546C390.014 353.078 386.58 354.5 383 354.5Z" fill="#B399EC"/>
<path d="M68 124C68 124 95 98.413 95 79C95 71.8392 92.1554 64.9716 87.0919 59.9081C82.0284 54.8446 75.1608 52 68 52C60.8392 52 53.9716 54.8446 48.9081 59.9081C43.8446 64.9716 41 71.8392 41 79C41 98.413 68 124 68 124ZM68 92.5C64.4196 92.5 60.9858 91.0777 58.4541 88.5459C55.9223 86.0142 54.5 82.5804 54.5 79C54.5 75.4196 55.9223 71.9858 58.4541 69.4541C60.9858 66.9223 64.4196 65.5 68 65.5C71.5804 65.5 75.0142 66.9223 77.5459 69.4541C80.0777 71.9858 81.5 75.4196 81.5 79C81.5 82.5804 80.0777 86.0142 77.5459 88.5459C75.0142 91.0777 71.5804 92.5 68 92.5Z" fill="#B399EC"/>
<path d="M251 222C251 222 278 196.413 278 177C278 169.839 275.155 162.972 270.092 157.908C265.028 152.845 258.161 150 251 150C243.839 150 236.972 152.845 231.908 157.908C226.845 162.972 224 169.839 224 177C224 196.413 251 222 251 222ZM251 190.5C247.42 190.5 243.986 189.078 241.454 186.546C238.922 184.014 237.5 180.58 237.5 177C237.5 173.42 238.922 169.986 241.454 167.454C243.986 164.922 247.42 163.5 251 163.5C254.58 163.5 258.014 164.922 260.546 167.454C263.078 169.986 264.5 173.42 264.5 177C264.5 180.58 263.078 184.014 260.546 186.546C258.014 189.078 254.58 190.5 251 190.5Z" fill="#EF5A5A"/>
<g filter="url(#filter0_b_1_532)">
<rect width="120" height="505" fill="#F4F4F5" fill-opacity="0.6"/>
<rect x="12" y="64" width="44" height="6" rx="3" fill="#D4D4D8"/>
<rect x="12" y="79" width="90" height="6" rx="3" fill="#A1A1AA"/>
<rect x="12" y="99" width="55" height="6" rx="3" fill="#A1A1AA"/>
<rect x="12" y="130" width="70" height="6" rx="3" fill="#D4D4D8"/>
<rect x="12" y="145" width="63" height="6" rx="3" fill="#A1A1AA"/>
<rect x="12" y="160" width="96" height="16" rx="8" fill="#EF5A5A"/>
<rect x="12" y="185" width="47" height="6" rx="3" fill="#A1A1AA"/>
<rect x="12" y="216" width="44" height="6" rx="3" fill="#D4D4D8"/>
<rect x="12" y="231" width="47" height="6" rx="3" fill="#A1A1AA"/>
<rect x="12" y="251" width="77" height="6" rx="3" fill="#A1A1AA"/>
<rect x="12" y="271" width="66" height="6" rx="3" fill="#A1A1AA"/>
<rect x="12" y="291" width="94" height="6" rx="3" fill="#A1A1AA"/>
</g>
<g clip-path="url(#clip1_1_532)">
<path fill-rule="evenodd" clip-rule="evenodd" d="M428.562 39.5C429.736 39.5 430.898 39.2688 431.983 38.8197C433.067 38.3705 434.052 37.7122 434.882 36.8823C435.712 36.0523 436.371 35.0671 436.82 33.9827C437.269 32.8984 437.5 31.7362 437.5 30.5625C437.5 29.3888 437.269 28.2266 436.82 27.1423C436.371 26.0579 435.712 25.0727 434.882 24.2427C434.052 23.4128 433.067 22.7545 431.983 22.3053C430.898 21.8562 429.736 21.625 428.562 21.625C426.192 21.625 423.919 22.5666 422.243 24.2427C420.567 25.9188 419.625 28.1921 419.625 30.5625C419.625 32.9329 420.567 35.2062 422.243 36.8823C423.919 38.5584 426.192 39.5 428.562 39.5ZM439.125 30.5625C439.125 33.3638 438.012 36.0505 436.031 38.0313C434.05 40.0122 431.364 41.125 428.562 41.125C425.761 41.125 423.075 40.0122 421.094 38.0313C419.113 36.0505 418 33.3638 418 30.5625C418 27.7612 419.113 25.0745 421.094 23.0937C423.075 21.1128 425.761 20 428.562 20C431.364 20 434.05 21.1128 436.031 23.0937C438.012 25.0745 439.125 27.7612 439.125 30.5625Z" fill="#52525B"/>
<path d="M434.809 39.0807C434.857 39.1457 434.91 39.208 434.968 39.2676L441.225 45.5239C441.529 45.8288 441.943 46.0002 442.374 46.0003C442.805 46.0005 443.218 45.8294 443.523 45.5247C443.828 45.22 443.999 44.8066 444 44.3756C444 43.9445 443.829 43.531 443.524 43.2261L437.268 36.9699C437.21 36.911 437.147 36.8567 437.081 36.8074C436.444 37.6772 435.678 38.4444 434.809 39.0824V39.0807Z" fill="#52525B"/>
<path fill-rule="evenodd" clip-rule="evenodd" d="M428.562 24.875C428.778 24.875 428.985 24.9606 429.137 25.113C429.289 25.2653 429.375 25.472 429.375 25.6875V29.75H433.438C433.653 29.75 433.86 29.8356 434.012 29.988C434.164 30.1403 434.25 30.347 434.25 30.5625C434.25 30.778 434.164 30.9847 434.012 31.137C433.86 31.2894 433.653 31.375 433.438 31.375H429.375V35.4375C429.375 35.653 429.289 35.8597 429.137 36.012C428.985 36.1644 428.778 36.25 428.562 36.25C428.347 36.25 428.14 36.1644 427.988 36.012C427.836 35.8597 427.75 35.653 427.75 35.4375V31.375H423.688C423.472 31.375 423.265 31.2894 423.113 31.137C422.961 30.9847 422.875 30.778 422.875 30.5625C422.875 30.347 422.961 30.1403 423.113 29.988C423.265 29.8356 423.472 29.75 423.688 29.75H427.75V25.6875C427.75 25.472 427.836 25.2653 427.988 25.113C428.14 24.9606 428.347 24.875 428.562 24.875Z" fill="#52525B"/>
</g>
<g clip-path="url(#clip2_1_532)">
<path fill-rule="evenodd" clip-rule="evenodd" d="M150.562 39.5C151.736 39.5 152.898 39.2688 153.983 38.8197C155.067 38.3705 156.052 37.7122 156.882 36.8823C157.712 36.0523 158.371 35.0671 158.82 33.9827C159.269 32.8984 159.5 31.7362 159.5 30.5625C159.5 29.3888 159.269 28.2266 158.82 27.1423C158.371 26.0579 157.712 25.0727 156.882 24.2427C156.052 23.4128 155.067 22.7545 153.983 22.3053C152.898 21.8562 151.736 21.625 150.562 21.625C148.192 21.625 145.919 22.5666 144.243 24.2427C142.567 25.9188 141.625 28.1921 141.625 30.5625C141.625 32.9329 142.567 35.2062 144.243 36.8823C145.919 38.5584 148.192 39.5 150.562 39.5ZM161.125 30.5625C161.125 33.3638 160.012 36.0505 158.031 38.0313C156.05 40.0122 153.364 41.125 150.562 41.125C147.761 41.125 145.075 40.0122 143.094 38.0313C141.113 36.0505 140 33.3638 140 30.5625C140 27.7612 141.113 25.0745 143.094 23.0937C145.075 21.1128 147.761 20 150.562 20C153.364 20 156.05 21.1128 158.031 23.0937C160.012 25.0745 161.125 27.7612 161.125 30.5625Z" fill="#52525B"/>
<path d="M156.809 39.0807C156.857 39.1457 156.91 39.208 156.968 39.2676L163.225 45.5239C163.529 45.8288 163.943 46.0002 164.374 46.0003C164.805 46.0005 165.218 45.8294 165.523 45.5247C165.828 45.22 165.999 44.8066 166 44.3756C166 43.9445 165.829 43.531 165.524 43.2261L159.268 36.9699C159.21 36.911 159.147 36.8567 159.081 36.8074C158.444 37.6772 157.678 38.4444 156.809 39.0824V39.0807Z" fill="#52525B"/>
<path fill-rule="evenodd" clip-rule="evenodd" d="M144.875 30.5625C144.875 30.347 144.961 30.1403 145.113 29.988C145.265 29.8356 145.472 29.75 145.688 29.75H155.438C155.653 29.75 155.86 29.8356 156.012 29.988C156.164 30.1403 156.25 30.347 156.25 30.5625C156.25 30.778 156.164 30.9847 156.012 31.137C155.86 31.2894 155.653 31.375 155.438 31.375H145.688C145.472 31.375 145.265 31.2894 145.113 31.137C144.961 30.9847 144.875 30.778 144.875 30.5625Z" fill="#52525B"/>
</g>
<rect x="175" y="30" width="234" height="4" rx="2" fill="#9A70E2" fill-opacity="0.25"/>
<circle cx="316" cy="32" r="5" fill="#B399EC"/>
</g>
<defs>
<filter id="filter0_b_1_532" x="-8" y="-8" width="136" height="521" filterUnits="userSpaceOnUse" color-interpolation-filters="sRGB">
<feFlood flood-opacity="0" result="BackgroundImageFix"/>
<feGaussianBlur in="BackgroundImageFix" stdDeviation="4"/>
<feComposite in2="SourceAlpha" operator="in" result="effect1_backgroundBlur_1_532"/>
<feBlend mode="normal" in="SourceGraphic" in2="effect1_backgroundBlur_1_532" result="shape"/>
</filter>
<linearGradient id="paint0_linear_1_532" x1="466" y1="2.19214e-05" x2="41.5558" y2="537.797" gradientUnits="userSpaceOnUse">
<stop stop-color="#D6C9E1"/>
<stop offset="0.5" stop-color="#F5DCDD"/>
<stop offset="1" stop-color="#FFD9EC"/>
</linearGradient>
<clipPath id="clip0_1_532">
<rect width="466" height="505" fill="white"/>
</clipPath>
<clipPath id="clip1_1_532">
<rect width="26" height="26" fill="white" transform="translate(418 20)"/>
</clipPath>
<clipPath id="clip2_1_532">
<rect width="26" height="26" fill="white" transform="translate(140 20)"/>
</clipPath>
</defs>
</svg>
