<svg viewBox="0 0 480 620" fill="none" xmlns="http://www.w3.org/2000/svg">
<g clip-path="url(#clip0_145_1955)">
<rect width="480" height="620" fill="url(#paint0_linear_145_1955)"/>
<path d="M51.784 254.952V240.744H106.568V254.952H51.784ZM31.176 273L70.088 190.184H88.52L127.816 273H109.256L75.208 198.376H83.4L49.608 273H31.176ZM167.906 274.408C161.591 274.408 155.831 273.043 150.626 270.312C145.506 267.496 141.41 263.613 138.338 258.664C135.351 253.629 133.858 247.827 133.858 241.256C133.858 234.515 135.394 228.669 138.466 223.72C141.538 218.771 145.677 214.931 150.882 212.2C156.173 209.384 162.146 207.976 168.802 207.976C176.141 207.976 182.029 209.469 186.466 212.456C190.989 215.357 194.274 219.325 196.322 224.36C198.37 229.395 199.394 235.027 199.394 241.256C199.394 245.011 198.797 248.851 197.602 252.776C196.407 256.616 194.573 260.2 192.098 263.528C189.623 266.771 186.381 269.416 182.37 271.464C178.359 273.427 173.538 274.408 167.906 274.408ZM173.282 261.608C178.317 261.608 182.669 260.755 186.338 259.048C190.007 257.341 192.823 254.952 194.786 251.88C196.749 248.808 197.73 245.267 197.73 241.256C197.73 236.904 196.706 233.235 194.658 230.248C192.695 227.176 189.879 224.872 186.21 223.336C182.626 221.715 178.317 220.904 173.282 220.904C166.199 220.904 160.695 222.781 156.77 226.536C152.845 230.205 150.882 235.112 150.882 241.256C150.882 245.352 151.821 248.936 153.698 252.008C155.575 254.995 158.178 257.341 161.506 259.048C164.919 260.755 168.845 261.608 173.282 261.608ZM197.73 209.384H214.37V273H198.882C198.882 273 198.754 272.189 198.498 270.568C198.327 268.861 198.157 266.728 197.986 264.168C197.815 261.608 197.73 259.091 197.73 256.616V209.384ZM231.606 273V190.184H279.35C290.443 190.184 298.849 192.061 304.566 195.816C310.369 199.485 313.27 204.989 313.27 212.328C313.27 217.021 312.118 220.733 309.814 223.464C307.51 226.109 304.225 228.072 299.958 229.352C295.777 230.632 290.827 231.443 285.11 231.784L285.622 230.888C289.803 230.973 293.729 231.272 297.398 231.784C301.153 232.296 304.438 233.235 307.254 234.6C310.07 235.965 312.289 237.885 313.91 240.36C315.531 242.749 316.342 245.907 316.342 249.832C316.342 254.952 314.977 259.219 312.246 262.632C309.515 265.96 305.718 268.477 300.854 270.184C295.99 271.891 290.358 272.829 283.958 273H231.606ZM248.63 258.92H282.166C287.542 258.92 291.681 258.067 294.582 256.36C297.483 254.568 298.934 251.752 298.934 247.912C298.934 245.096 298.081 243.048 296.374 241.768C294.667 240.488 292.406 239.72 289.59 239.464C286.774 239.123 283.745 238.952 280.502 238.952H248.63V258.92ZM248.63 225.256H278.71C284.086 225.256 288.225 224.488 291.126 222.952C294.027 221.331 295.478 218.6 295.478 214.76C295.478 210.92 294.027 208.232 291.126 206.696C288.225 205.075 284.385 204.264 279.606 204.264H248.63V225.256ZM378.329 274.408C372.697 274.408 367.876 273.427 363.865 271.464C359.854 269.416 356.612 266.771 354.137 263.528C351.662 260.2 349.828 256.616 348.633 252.776C347.438 248.851 346.841 245.011 346.841 241.256C346.841 236.563 347.396 232.211 348.505 228.2C349.7 224.189 351.534 220.691 354.009 217.704C356.484 214.632 359.726 212.243 363.737 210.536C367.748 208.829 372.612 207.976 378.329 207.976C384.9 207.976 390.702 209.384 395.737 212.2C400.857 214.931 404.868 218.771 407.769 223.72C410.756 228.669 412.249 234.515 412.249 241.256C412.249 247.827 410.756 253.629 407.769 258.664C404.782 263.613 400.729 267.496 395.609 270.312C390.489 273.043 384.729 274.408 378.329 274.408ZM372.953 261.608C377.476 261.608 381.401 260.755 384.729 259.048C388.057 257.341 390.617 254.995 392.409 252.008C394.286 248.936 395.225 245.352 395.225 241.256C395.225 235.112 393.262 230.163 389.337 226.408C385.497 222.653 380.036 220.776 372.953 220.776C368.004 220.776 363.694 221.587 360.025 223.208C356.356 224.829 353.497 227.176 351.449 230.248C349.486 233.235 348.505 236.904 348.505 241.256C348.505 245.267 349.486 248.808 351.449 251.88C353.412 254.952 356.228 257.341 359.897 259.048C363.566 260.755 367.918 261.608 372.953 261.608ZM348.505 183.784V256.616C348.505 259.347 348.377 262.291 348.121 265.448C347.865 268.52 347.609 271.037 347.353 273H331.865V183.784H348.505Z" fill="#D4D4D8"/>
<path d="M49.16 65.888V117.344H90.44V128H36.392V65.888H49.16ZM126.919 129.152C120.903 129.152 115.591 128.192 110.983 126.272C106.439 124.352 102.887 121.568 100.327 117.92C97.7673 114.208 96.4873 109.664 96.4873 104.288C96.4873 98.912 97.7673 94.368 100.327 90.656C102.887 86.88 106.439 84.032 110.983 82.112C115.591 80.192 120.903 79.232 126.919 79.232C132.935 79.232 138.183 80.192 142.663 82.112C147.207 84.032 150.759 86.88 153.319 90.656C155.879 94.368 157.159 98.912 157.159 104.288C157.159 109.664 155.879 114.208 153.319 117.92C150.759 121.568 147.207 124.352 142.663 126.272C138.183 128.192 132.935 129.152 126.919 129.152ZM126.919 119.552C130.247 119.552 133.223 118.976 135.847 117.824C138.535 116.608 140.647 114.88 142.183 112.64C143.719 110.336 144.487 107.552 144.487 104.288C144.487 101.024 143.719 98.24 142.183 95.936C140.647 93.568 138.567 91.776 135.943 90.56C133.319 89.344 130.311 88.736 126.919 88.736C123.591 88.736 120.583 89.344 117.895 90.56C115.207 91.776 113.063 93.536 111.463 95.84C109.927 98.144 109.159 100.96 109.159 104.288C109.159 107.552 109.927 110.336 111.463 112.64C112.999 114.88 115.111 116.608 117.799 117.824C120.487 118.976 123.527 119.552 126.919 119.552ZM166.385 80.288H178.865V128H166.385V80.288ZM197.201 90.56C193.617 90.56 190.513 91.264 187.889 92.672C185.265 94.016 183.153 95.68 181.553 97.664C179.953 99.648 178.833 101.568 178.193 103.424L178.097 98.144C178.161 97.376 178.417 96.256 178.865 94.784C179.313 93.248 179.985 91.616 180.881 89.888C181.777 88.096 182.961 86.4 184.433 84.8C185.905 83.136 187.697 81.792 189.809 80.768C191.921 79.744 194.385 79.232 197.201 79.232V90.56ZM248.404 112.16H260.5C259.988 115.424 258.612 118.336 256.372 120.896C254.196 123.456 251.22 125.472 247.444 126.944C243.668 128.416 239.06 129.152 233.62 129.152C227.54 129.152 222.164 128.192 217.492 126.272C212.82 124.288 209.172 121.44 206.548 117.728C203.924 114.016 202.612 109.536 202.612 104.288C202.612 99.04 203.892 94.56 206.452 90.848C209.012 87.072 212.564 84.192 217.108 82.208C221.716 80.224 227.092 79.232 233.236 79.232C239.508 79.232 244.724 80.224 248.884 82.208C253.044 84.192 256.116 87.2 258.1 91.232C260.148 95.2 261.012 100.288 260.692 106.496H215.188C215.508 108.928 216.404 111.136 217.876 113.12C219.412 115.104 221.46 116.672 224.02 117.824C226.644 118.976 229.748 119.552 233.332 119.552C237.3 119.552 240.596 118.88 243.22 117.536C245.908 116.128 247.636 114.336 248.404 112.16ZM232.66 88.736C228.052 88.736 224.308 89.76 221.428 91.808C218.548 93.792 216.692 96.256 215.86 99.2H248.308C247.988 96 246.452 93.472 243.7 91.616C241.012 89.696 237.332 88.736 232.66 88.736ZM269.979 80.288H282.459V128H269.979V80.288ZM304.635 79.232C307.579 79.232 310.299 79.616 312.795 80.384C315.291 81.152 317.467 82.336 319.323 83.936C321.179 85.536 322.619 87.584 323.643 90.08C324.667 92.512 325.179 95.424 325.179 98.816V128H312.699V101.024C312.699 96.992 311.707 94.048 309.723 92.192C307.803 90.272 304.635 89.312 300.219 89.312C296.891 89.312 293.883 89.952 291.195 91.232C288.507 92.512 286.331 94.144 284.667 96.128C283.003 98.048 282.043 100.064 281.787 102.176L281.691 97.28C282.011 95.04 282.747 92.864 283.899 90.752C285.051 88.64 286.587 86.72 288.507 84.992C290.491 83.2 292.827 81.792 295.515 80.768C298.203 79.744 301.243 79.232 304.635 79.232ZM346.203 79.232C349.147 79.232 351.867 79.616 354.363 80.384C356.859 81.152 359.035 82.336 360.891 83.936C362.747 85.536 364.187 87.584 365.211 90.08C366.299 92.512 366.843 95.424 366.843 98.816V128H354.363V101.024C354.363 96.992 353.371 94.048 351.387 92.192C349.403 90.272 346.203 89.312 341.787 89.312C338.459 89.312 335.451 89.952 332.763 91.232C330.075 92.512 327.899 94.144 326.235 96.128C324.571 98.048 323.643 100.064 323.451 102.176L323.259 96.992C323.579 94.88 324.347 92.768 325.563 90.656C326.779 88.544 328.379 86.624 330.363 84.896C332.347 83.168 334.651 81.792 337.275 80.768C339.963 79.744 342.939 79.232 346.203 79.232ZM404.779 65.888H417.547V128H404.779V65.888ZM467.2 129.152C462.976 129.152 459.36 128.416 456.352 126.944C453.408 125.408 451.008 123.424 449.152 120.992C447.296 118.496 445.92 115.776 445.024 112.832C444.128 109.888 443.68 107.008 443.68 104.192C443.68 100.672 444.096 97.408 444.928 94.4C445.824 91.392 447.2 88.768 449.056 86.528C450.912 84.224 453.312 82.432 456.256 81.152C459.264 79.872 462.912 79.232 467.2 79.232C472 79.232 476.32 80.288 480.16 82.4C484 84.512 487.04 87.456 489.28 91.232C491.584 94.944 492.736 99.264 492.736 104.192C492.736 109.248 491.584 113.664 489.28 117.44C486.976 121.152 483.904 124.032 480.064 126.08C476.224 128.128 471.936 129.152 467.2 129.152ZM463.168 119.456C466.56 119.456 469.504 118.816 472 117.536C474.56 116.256 476.512 114.496 477.856 112.256C479.264 109.952 479.968 107.264 479.968 104.192C479.968 99.584 478.496 95.872 475.552 93.056C472.672 90.24 468.544 88.832 463.168 88.832C459.776 88.832 456.672 89.44 453.856 90.656C451.104 91.872 448.928 93.632 447.328 95.936C445.728 98.176 444.928 100.928 444.928 104.192C444.928 107.264 445.664 109.952 447.136 112.256C448.608 114.496 450.72 116.256 453.472 117.536C456.224 118.816 459.456 119.456 463.168 119.456ZM432.448 80.288H444.352L444.928 92.96V147.2H432.448V80.288ZM499.996 112.16H511.516C512.22 114.336 513.66 116.128 515.836 117.536C518.076 118.88 520.988 119.552 524.572 119.552C527.004 119.552 528.892 119.328 530.236 118.88C531.58 118.432 532.508 117.792 533.02 116.96C533.532 116.064 533.788 115.072 533.788 113.984C533.788 112.64 533.372 111.616 532.54 110.912C531.708 110.144 530.428 109.536 528.7 109.088C526.972 108.64 524.764 108.224 522.076 107.84C519.388 107.392 516.796 106.848 514.3 106.208C511.804 105.568 509.596 104.736 507.676 103.712C505.756 102.624 504.22 101.28 503.068 99.68C501.98 98.016 501.436 96 501.436 93.632C501.436 91.328 501.98 89.28 503.068 87.488C504.22 85.696 505.788 84.192 507.772 82.976C509.82 81.76 512.188 80.832 514.876 80.192C517.628 79.552 520.572 79.232 523.708 79.232C528.444 79.232 532.38 79.936 535.516 81.344C538.652 82.688 540.988 84.608 542.524 87.104C544.124 89.536 544.924 92.352 544.924 95.552H533.884C533.372 93.184 532.348 91.488 530.812 90.464C529.276 89.376 526.908 88.832 523.708 88.832C520.572 88.832 518.204 89.312 516.604 90.272C515.004 91.232 514.204 92.544 514.204 94.208C514.204 95.552 514.684 96.608 515.644 97.376C516.668 98.08 518.14 98.656 520.06 99.104C522.044 99.552 524.508 100.032 527.452 100.544C529.948 101.056 532.316 101.632 534.556 102.272C536.86 102.912 538.908 103.744 540.7 104.768C542.492 105.728 543.9 107.04 544.924 108.704C546.012 110.304 546.556 112.352 546.556 114.848C546.556 117.92 545.66 120.512 543.868 122.624C542.14 124.736 539.644 126.368 536.38 127.52C533.116 128.608 529.212 129.152 524.668 129.152C520.636 129.152 517.148 128.736 514.204 127.904C511.324 127.008 508.924 125.888 507.004 124.544C505.084 123.136 503.58 121.664 502.492 120.128C501.468 118.528 500.764 117.024 500.38 115.616C499.996 114.208 499.868 113.056 499.996 112.16ZM611.304 128H598.824V80.288H611.304V128ZM599.496 105.056L599.592 108.32C599.464 109.216 599.144 110.528 598.632 112.256C598.12 113.92 597.32 115.712 596.232 117.632C595.208 119.552 593.864 121.408 592.2 123.2C590.536 124.928 588.488 126.368 586.056 127.52C583.624 128.608 580.744 129.152 577.416 129.152C574.792 129.152 572.2 128.832 569.64 128.192C567.144 127.552 564.872 126.496 562.824 125.024C560.776 123.488 559.144 121.44 557.928 118.88C556.712 116.32 556.104 113.088 556.104 109.184V80.288H568.584V107.072C568.584 110.144 569.064 112.576 570.024 114.368C571.048 116.096 572.52 117.312 574.44 118.016C576.36 118.72 578.632 119.072 581.256 119.072C584.712 119.072 587.688 118.336 590.184 116.864C592.68 115.328 594.696 113.472 596.232 111.296C597.832 109.12 598.92 107.04 599.496 105.056ZM622.666 80.288H635.146V128H622.666V80.288ZM657.322 79.232C660.266 79.232 662.986 79.616 665.482 80.384C667.978 81.152 670.154 82.336 672.01 83.936C673.866 85.536 675.306 87.584 676.33 90.08C677.354 92.512 677.866 95.424 677.866 98.816V128H665.386V101.024C665.386 96.992 664.394 94.048 662.41 92.192C660.49 90.272 657.322 89.312 652.906 89.312C649.578 89.312 646.57 89.952 643.882 91.232C641.194 92.512 639.018 94.144 637.354 96.128C635.69 98.048 634.73 100.064 634.474 102.176L634.378 97.28C634.698 95.04 635.434 92.864 636.586 90.752C637.738 88.64 639.274 86.72 641.194 84.992C643.178 83.2 645.514 81.792 648.202 80.768C650.89 79.744 653.93 79.232 657.322 79.232ZM698.89 79.232C701.834 79.232 704.554 79.616 707.05 80.384C709.546 81.152 711.722 82.336 713.578 83.936C715.434 85.536 716.874 87.584 717.898 90.08C718.986 92.512 719.53 95.424 719.53 98.816V128H707.05V101.024C707.05 96.992 706.058 94.048 704.074 92.192C702.09 90.272 698.89 89.312 694.474 89.312C691.146 89.312 688.138 89.952 685.45 91.232C682.762 92.512 680.586 94.144 678.922 96.128C677.258 98.048 676.33 100.064 676.138 102.176L675.946 96.992C676.266 94.88 677.034 92.768 678.25 90.656C679.466 88.544 681.066 86.624 683.05 84.896C685.034 83.168 687.338 81.792 689.962 80.768C692.65 79.744 695.626 79.232 698.89 79.232Z" fill="#583285" fill-opacity="0.5"/>
<path d="M265.28 345.592H308.928V352.696H265.28V345.592ZM282.88 351.8H291.392V387H282.88V351.8ZM337.832 376.44H345.896C345.555 378.616 344.637 380.557 343.144 382.264C341.693 383.971 339.709 385.315 337.192 386.296C334.675 387.277 331.603 387.768 327.976 387.768C323.923 387.768 320.339 387.128 317.224 385.848C314.109 384.525 311.677 382.627 309.928 380.152C308.179 377.677 307.304 374.691 307.304 371.192C307.304 367.693 308.157 364.707 309.864 362.232C311.571 359.715 313.939 357.795 316.968 356.472C320.04 355.149 323.624 354.488 327.72 354.488C331.901 354.488 335.379 355.149 338.152 356.472C340.925 357.795 342.973 359.8 344.296 362.488C345.661 365.133 346.237 368.525 346.024 372.664H315.688C315.901 374.285 316.499 375.757 317.48 377.08C318.504 378.403 319.869 379.448 321.576 380.216C323.325 380.984 325.395 381.368 327.784 381.368C330.429 381.368 332.627 380.92 334.376 380.024C336.168 379.085 337.32 377.891 337.832 376.44ZM327.336 360.824C324.264 360.824 321.768 361.507 319.848 362.872C317.928 364.195 316.691 365.837 316.136 367.8H337.768C337.555 365.667 336.531 363.981 334.696 362.744C332.904 361.464 330.451 360.824 327.336 360.824ZM386.81 355.192L370.298 372.92L358.394 387H348.218L365.434 368.376L376.698 355.192H386.81ZM348.218 355.192H358.394L370.426 368.248L387.706 387H377.53L365.178 373.112L348.218 355.192ZM390.6 355.192H415.304V361.656H390.6V355.192ZM398.792 346.488H407.112V387H398.792V346.488Z" fill="#A1A1AA"/>
<path d="M109 318L109 415" stroke="#9F7BDC" stroke-width="2"/>
<path d="M439 318V415" stroke="#9F7BDC" stroke-width="2"/>
<path d="M109 318L439 318" stroke="#9F7BDC" stroke-width="2"/>
<path d="M109 415L439 415" stroke="#9F7BDC" stroke-width="2"/>
<rect x="102" y="311" width="14" height="14" fill="#FAFAFA" stroke="#9F7BDC" stroke-width="2"/>
<rect x="432" y="311" width="14" height="14" fill="#FAFAFA" stroke="#9F7BDC" stroke-width="2"/>
<rect x="102" y="408" width="14" height="14" fill="#FAFAFA" stroke="#9F7BDC" stroke-width="2"/>
<rect x="432" y="408" width="14" height="14" fill="#FAFAFA" stroke="#9F7BDC" stroke-width="2"/>
<rect x="431" y="154" width="16" height="119" fill="#885EC0"/>
<path fill-rule="evenodd" clip-rule="evenodd" d="M163.894 373.459C164.039 373.313 164.211 373.198 164.401 373.119C164.591 373.041 164.794 373 165 373C165.205 373 165.409 373.041 165.599 373.119C165.789 373.198 165.961 373.313 166.106 373.459L172.355 379.708C172.501 379.854 172.616 380.026 172.695 380.216C172.773 380.406 172.814 380.609 172.814 380.814C172.814 381.02 172.773 381.223 172.695 381.413C172.616 381.603 172.501 381.775 172.355 381.921C172.21 382.066 172.038 382.181 171.848 382.26C171.658 382.338 171.455 382.379 171.249 382.379C171.044 382.379 170.84 382.338 170.651 382.26C170.461 382.181 170.288 382.066 170.143 381.921L166.562 378.337V390.188C166.562 390.603 166.398 391 166.105 391.293C165.812 391.586 165.414 391.751 165 391.751C164.586 391.751 164.188 391.586 163.895 391.293C163.602 391 163.438 390.603 163.438 390.188V378.337L159.857 381.921C159.563 382.214 159.166 382.379 158.751 382.379C158.336 382.379 157.938 382.214 157.645 381.921C157.351 381.627 157.186 381.229 157.186 380.814C157.186 380.4 157.351 380.002 157.645 379.708L163.894 373.459ZM165 404.249C165.414 404.249 165.812 404.414 166.105 404.707C166.398 405 166.562 405.397 166.562 405.812V417.663L170.143 414.079C170.437 413.786 170.834 413.621 171.249 413.621C171.664 413.621 172.062 413.786 172.355 414.079C172.649 414.373 172.814 414.771 172.814 415.186C172.814 415.6 172.649 415.998 172.355 416.292L166.106 422.541C165.961 422.686 165.789 422.802 165.599 422.881C165.409 422.959 165.205 423 165 423C164.794 423 164.591 422.959 164.401 422.881C164.211 422.802 164.039 422.686 163.894 422.541L157.645 416.292C157.499 416.146 157.384 415.974 157.305 415.784C157.227 415.594 157.186 415.391 157.186 415.186C157.186 414.98 157.227 414.777 157.305 414.587C157.384 414.397 157.499 414.225 157.645 414.079C157.938 413.786 158.336 413.621 158.751 413.621C158.956 413.621 159.16 413.662 159.349 413.74C159.539 413.819 159.712 413.934 159.857 414.079L163.438 417.663V405.812C163.438 405.397 163.602 405 163.895 404.707C164.188 404.414 164.586 404.249 165 404.249ZM140.459 399.106C140.313 398.961 140.198 398.789 140.119 398.599C140.041 398.409 140 398.205 140 398C140 397.794 140.041 397.591 140.119 397.401C140.198 397.211 140.313 397.039 140.459 396.894L146.708 390.645C147.002 390.351 147.4 390.186 147.814 390.186C148.229 390.186 148.627 390.351 148.921 390.645C149.214 390.938 149.379 391.336 149.379 391.751C149.379 392.166 149.214 392.563 148.921 392.857L145.337 396.438H157.188C157.603 396.438 158 396.602 158.293 396.895C158.586 397.188 158.751 397.586 158.751 398C158.751 398.414 158.586 398.812 158.293 399.105C158 399.398 157.603 399.562 157.188 399.562H145.337L148.921 403.143C149.214 403.437 149.379 403.834 149.379 404.249C149.379 404.664 149.214 405.062 148.921 405.355C148.627 405.649 148.229 405.814 147.814 405.814C147.4 405.814 147.002 405.649 146.708 405.355L140.459 399.106ZM171.249 398C171.249 397.586 171.414 397.188 171.707 396.895C172 396.602 172.397 396.438 172.812 396.438H184.663L181.079 392.857C180.934 392.712 180.819 392.539 180.74 392.349C180.662 392.16 180.621 391.956 180.621 391.751C180.621 391.545 180.662 391.342 180.74 391.152C180.819 390.962 180.934 390.79 181.079 390.645C181.373 390.351 181.771 390.186 182.186 390.186C182.391 390.186 182.594 390.227 182.784 390.305C182.974 390.384 183.146 390.499 183.292 390.645L189.541 396.894C189.686 397.039 189.802 397.211 189.881 397.401C189.959 397.591 190 397.794 190 398C190 398.205 189.959 398.409 189.881 398.599C189.802 398.789 189.686 398.961 189.541 399.106L183.292 405.355C183.146 405.501 182.974 405.616 182.784 405.695C182.594 405.773 182.391 405.814 182.186 405.814C181.98 405.814 181.777 405.773 181.587 405.695C181.397 405.616 181.225 405.501 181.079 405.355C180.934 405.21 180.819 405.038 180.74 404.848C180.662 404.658 180.621 404.455 180.621 404.249C180.621 404.044 180.662 403.84 180.74 403.651C180.819 403.461 180.934 403.288 181.079 403.143L184.663 399.562H172.812C172.397 399.562 172 399.398 171.707 399.105C171.414 398.812 171.249 398.414 171.249 398Z" fill="#E4E4E7" stroke="#E4E4E7" stroke-width="2"/>
</g>
<defs>
<linearGradient id="paint0_linear_145_1955" x1="555" y1="670" x2="154.103" y2="-192.621" gradientUnits="userSpaceOnUse">
<stop stop-color="#291744"/>
<stop offset="0.544722" stop-color="#18181B"/>
<stop offset="1" stop-color="#09090B"/>
</linearGradient>
<clipPath id="clip0_145_1955">
<rect width="480" height="620" fill="white"/>
</clipPath>
</defs>
</svg>
