<svg viewBox="0 0 480 620" fill="none" xmlns="http://www.w3.org/2000/svg">
<g clip-path="url(#clip0_37_1206)">
<rect width="480" height="620" fill="url(#paint0_linear_37_1206)"/>
<path d="M0 409.951L480 238V620H0V409.951Z" fill="#663FBB" fill-opacity="0.1"/>
<g clip-path="url(#clip1_37_1206)">
<rect x="24" y="24" width="252" height="72" rx="36" fill="#9F7BDC"/>
<path d="M106.848 67.5V51.972H115.8C117.88 51.972 119.456 52.324 120.528 53.028C121.616 53.716 122.16 54.748 122.16 56.124C122.16 57.004 121.944 57.7 121.512 58.212C121.08 58.708 120.464 59.076 119.664 59.316C118.88 59.556 117.952 59.708 116.88 59.772L116.976 59.604C117.76 59.62 118.496 59.676 119.184 59.772C119.888 59.868 120.504 60.044 121.032 60.3C121.56 60.556 121.976 60.916 122.28 61.38C122.584 61.828 122.736 62.42 122.736 63.156C122.736 64.116 122.48 64.916 121.968 65.556C121.456 66.18 120.744 66.652 119.832 66.972C118.92 67.292 117.864 67.468 116.664 67.5H106.848ZM110.04 64.86H116.328C117.336 64.86 118.112 64.7 118.656 64.38C119.2 64.044 119.472 63.516 119.472 62.796C119.472 62.268 119.312 61.884 118.992 61.644C118.672 61.404 118.248 61.26 117.72 61.212C117.192 61.148 116.624 61.116 116.016 61.116H110.04V64.86ZM110.04 58.548H115.68C116.688 58.548 117.464 58.404 118.008 58.116C118.552 57.812 118.824 57.3 118.824 56.58C118.824 55.86 118.552 55.356 118.008 55.068C117.464 54.764 116.744 54.612 115.848 54.612H110.04V58.548ZM138.967 67.5H135.847V55.572H138.967V67.5ZM136.015 61.764L136.039 62.58C136.007 62.804 135.927 63.132 135.799 63.564C135.671 63.98 135.471 64.428 135.199 64.908C134.943 65.388 134.607 65.852 134.191 66.3C133.775 66.732 133.263 67.092 132.655 67.38C132.047 67.652 131.327 67.788 130.495 67.788C129.839 67.788 129.191 67.708 128.551 67.548C127.927 67.388 127.359 67.124 126.847 66.756C126.335 66.372 125.927 65.86 125.623 65.22C125.319 64.58 125.167 63.772 125.167 62.796V55.572H128.287V62.268C128.287 63.036 128.407 63.644 128.647 64.092C128.903 64.524 129.271 64.828 129.751 65.004C130.231 65.18 130.799 65.268 131.455 65.268C132.319 65.268 133.063 65.084 133.687 64.716C134.311 64.332 134.815 63.868 135.199 63.324C135.599 62.78 135.871 62.26 136.015 61.764ZM140.967 55.572H150.231V57.996H140.967V55.572ZM144.039 52.308H147.159V67.5H144.039V52.308ZM151.373 55.572H160.637V57.996H151.373V55.572ZM154.445 52.308H157.565V67.5H154.445V52.308ZM169.488 67.788C167.984 67.788 166.656 67.548 165.504 67.068C164.368 66.588 163.48 65.892 162.84 64.98C162.2 64.052 161.88 62.916 161.88 61.572C161.88 60.228 162.2 59.092 162.84 58.164C163.48 57.22 164.368 56.508 165.504 56.028C166.656 55.548 167.984 55.308 169.488 55.308C170.992 55.308 172.304 55.548 173.424 56.028C174.56 56.508 175.448 57.22 176.088 58.164C176.728 59.092 177.048 60.228 177.048 61.572C177.048 62.916 176.728 64.052 176.088 64.98C175.448 65.892 174.56 66.588 173.424 67.068C172.304 67.548 170.992 67.788 169.488 67.788ZM169.488 65.388C170.32 65.388 171.064 65.244 171.72 64.956C172.392 64.652 172.92 64.22 173.304 63.66C173.688 63.084 173.88 62.388 173.88 61.572C173.88 60.756 173.688 60.06 173.304 59.484C172.92 58.892 172.4 58.444 171.744 58.14C171.088 57.836 170.336 57.684 169.488 57.684C168.656 57.684 167.904 57.836 167.232 58.14C166.56 58.444 166.024 58.884 165.624 59.46C165.24 60.036 165.048 60.74 165.048 61.572C165.048 62.388 165.24 63.084 165.624 63.66C166.008 64.22 166.536 64.652 167.208 64.956C167.88 65.244 168.64 65.388 169.488 65.388ZM179.354 55.572H182.474V67.5H179.354V55.572ZM188.018 55.308C188.754 55.308 189.434 55.404 190.058 55.596C190.682 55.788 191.226 56.084 191.69 56.484C192.154 56.884 192.514 57.396 192.77 58.02C193.026 58.628 193.154 59.356 193.154 60.204V67.5H190.034V60.756C190.034 59.748 189.786 59.012 189.29 58.548C188.81 58.068 188.018 57.828 186.914 57.828C186.082 57.828 185.33 57.988 184.658 58.308C183.986 58.628 183.442 59.036 183.026 59.532C182.61 60.012 182.37 60.516 182.306 61.044L182.282 59.82C182.362 59.26 182.546 58.716 182.834 58.188C183.122 57.66 183.506 57.18 183.986 56.748C184.482 56.3 185.066 55.948 185.738 55.692C186.41 55.436 187.17 55.308 188.018 55.308Z" fill="#FAFAFA"/>
<rect x="25" y="121" width="250" height="70" rx="35" stroke="#9F7BDC" stroke-width="2"/>
<path d="M106.848 163.5V147.972H115.8C117.88 147.972 119.456 148.324 120.528 149.028C121.616 149.716 122.16 150.748 122.16 152.124C122.16 153.004 121.944 153.7 121.512 154.212C121.08 154.708 120.464 155.076 119.664 155.316C118.88 155.556 117.952 155.708 116.88 155.772L116.976 155.604C117.76 155.62 118.496 155.676 119.184 155.772C119.888 155.868 120.504 156.044 121.032 156.3C121.56 156.556 121.976 156.916 122.28 157.38C122.584 157.828 122.736 158.42 122.736 159.156C122.736 160.116 122.48 160.916 121.968 161.556C121.456 162.18 120.744 162.652 119.832 162.972C118.92 163.292 117.864 163.468 116.664 163.5H106.848ZM110.04 160.86H116.328C117.336 160.86 118.112 160.7 118.656 160.38C119.2 160.044 119.472 159.516 119.472 158.796C119.472 158.268 119.312 157.884 118.992 157.644C118.672 157.404 118.248 157.26 117.72 157.212C117.192 157.148 116.624 157.116 116.016 157.116H110.04V160.86ZM110.04 154.548H115.68C116.688 154.548 117.464 154.404 118.008 154.116C118.552 153.812 118.824 153.3 118.824 152.58C118.824 151.86 118.552 151.356 118.008 151.068C117.464 150.764 116.744 150.612 115.848 150.612H110.04V154.548ZM138.967 163.5H135.847V151.572H138.967V163.5ZM136.015 157.764L136.039 158.58C136.007 158.804 135.927 159.132 135.799 159.564C135.671 159.98 135.471 160.428 135.199 160.908C134.943 161.388 134.607 161.852 134.191 162.3C133.775 162.732 133.263 163.092 132.655 163.38C132.047 163.652 131.327 163.788 130.495 163.788C129.839 163.788 129.191 163.708 128.551 163.548C127.927 163.388 127.359 163.124 126.847 162.756C126.335 162.372 125.927 161.86 125.623 161.22C125.319 160.58 125.167 159.772 125.167 158.796V151.572H128.287V158.268C128.287 159.036 128.407 159.644 128.647 160.092C128.903 160.524 129.271 160.828 129.751 161.004C130.231 161.18 130.799 161.268 131.455 161.268C132.319 161.268 133.063 161.084 133.687 160.716C134.311 160.332 134.815 159.868 135.199 159.324C135.599 158.78 135.871 158.26 136.015 157.764ZM140.967 151.572H150.231V153.996H140.967V151.572ZM144.039 148.308H147.159V163.5H144.039V148.308ZM151.373 151.572H160.637V153.996H151.373V151.572ZM154.445 148.308H157.565V163.5H154.445V148.308ZM169.488 163.788C167.984 163.788 166.656 163.548 165.504 163.068C164.368 162.588 163.48 161.892 162.84 160.98C162.2 160.052 161.88 158.916 161.88 157.572C161.88 156.228 162.2 155.092 162.84 154.164C163.48 153.22 164.368 152.508 165.504 152.028C166.656 151.548 167.984 151.308 169.488 151.308C170.992 151.308 172.304 151.548 173.424 152.028C174.56 152.508 175.448 153.22 176.088 154.164C176.728 155.092 177.048 156.228 177.048 157.572C177.048 158.916 176.728 160.052 176.088 160.98C175.448 161.892 174.56 162.588 173.424 163.068C172.304 163.548 170.992 163.788 169.488 163.788ZM169.488 161.388C170.32 161.388 171.064 161.244 171.72 160.956C172.392 160.652 172.92 160.22 173.304 159.66C173.688 159.084 173.88 158.388 173.88 157.572C173.88 156.756 173.688 156.06 173.304 155.484C172.92 154.892 172.4 154.444 171.744 154.14C171.088 153.836 170.336 153.684 169.488 153.684C168.656 153.684 167.904 153.836 167.232 154.14C166.56 154.444 166.024 154.884 165.624 155.46C165.24 156.036 165.048 156.74 165.048 157.572C165.048 158.388 165.24 159.084 165.624 159.66C166.008 160.22 166.536 160.652 167.208 160.956C167.88 161.244 168.64 161.388 169.488 161.388ZM179.354 151.572H182.474V163.5H179.354V151.572ZM188.018 151.308C188.754 151.308 189.434 151.404 190.058 151.596C190.682 151.788 191.226 152.084 191.69 152.484C192.154 152.884 192.514 153.396 192.77 154.02C193.026 154.628 193.154 155.356 193.154 156.204V163.5H190.034V156.756C190.034 155.748 189.786 155.012 189.29 154.548C188.81 154.068 188.018 153.828 186.914 153.828C186.082 153.828 185.33 153.988 184.658 154.308C183.986 154.628 183.442 155.036 183.026 155.532C182.61 156.012 182.37 156.516 182.306 157.044L182.282 155.82C182.362 155.26 182.546 154.716 182.834 154.188C183.122 153.66 183.506 153.18 183.986 152.748C184.482 152.3 185.066 151.948 185.738 151.692C186.41 151.436 187.17 151.308 188.018 151.308Z" fill="#9F7BDC"/>
<rect x="24" y="216" width="252" height="72" rx="36" fill="url(#paint1_linear_37_1206)"/>
<path d="M106.848 259.5V243.972H115.8C117.88 243.972 119.456 244.324 120.528 245.028C121.616 245.716 122.16 246.748 122.16 248.124C122.16 249.004 121.944 249.7 121.512 250.212C121.08 250.708 120.464 251.076 119.664 251.316C118.88 251.556 117.952 251.708 116.88 251.772L116.976 251.604C117.76 251.62 118.496 251.676 119.184 251.772C119.888 251.868 120.504 252.044 121.032 252.3C121.56 252.556 121.976 252.916 122.28 253.38C122.584 253.828 122.736 254.42 122.736 255.156C122.736 256.116 122.48 256.916 121.968 257.556C121.456 258.18 120.744 258.652 119.832 258.972C118.92 259.292 117.864 259.468 116.664 259.5H106.848ZM110.04 256.86H116.328C117.336 256.86 118.112 256.7 118.656 256.38C119.2 256.044 119.472 255.516 119.472 254.796C119.472 254.268 119.312 253.884 118.992 253.644C118.672 253.404 118.248 253.26 117.72 253.212C117.192 253.148 116.624 253.116 116.016 253.116H110.04V256.86ZM110.04 250.548H115.68C116.688 250.548 117.464 250.404 118.008 250.116C118.552 249.812 118.824 249.3 118.824 248.58C118.824 247.86 118.552 247.356 118.008 247.068C117.464 246.764 116.744 246.612 115.848 246.612H110.04V250.548ZM138.967 259.5H135.847V247.572H138.967V259.5ZM136.015 253.764L136.039 254.58C136.007 254.804 135.927 255.132 135.799 255.564C135.671 255.98 135.471 256.428 135.199 256.908C134.943 257.388 134.607 257.852 134.191 258.3C133.775 258.732 133.263 259.092 132.655 259.38C132.047 259.652 131.327 259.788 130.495 259.788C129.839 259.788 129.191 259.708 128.551 259.548C127.927 259.388 127.359 259.124 126.847 258.756C126.335 258.372 125.927 257.86 125.623 257.22C125.319 256.58 125.167 255.772 125.167 254.796V247.572H128.287V254.268C128.287 255.036 128.407 255.644 128.647 256.092C128.903 256.524 129.271 256.828 129.751 257.004C130.231 257.18 130.799 257.268 131.455 257.268C132.319 257.268 133.063 257.084 133.687 256.716C134.311 256.332 134.815 255.868 135.199 255.324C135.599 254.78 135.871 254.26 136.015 253.764ZM140.967 247.572H150.231V249.996H140.967V247.572ZM144.039 244.308H147.159V259.5H144.039V244.308ZM151.373 247.572H160.637V249.996H151.373V247.572ZM154.445 244.308H157.565V259.5H154.445V244.308ZM169.488 259.788C167.984 259.788 166.656 259.548 165.504 259.068C164.368 258.588 163.48 257.892 162.84 256.98C162.2 256.052 161.88 254.916 161.88 253.572C161.88 252.228 162.2 251.092 162.84 250.164C163.48 249.22 164.368 248.508 165.504 248.028C166.656 247.548 167.984 247.308 169.488 247.308C170.992 247.308 172.304 247.548 173.424 248.028C174.56 248.508 175.448 249.22 176.088 250.164C176.728 251.092 177.048 252.228 177.048 253.572C177.048 254.916 176.728 256.052 176.088 256.98C175.448 257.892 174.56 258.588 173.424 259.068C172.304 259.548 170.992 259.788 169.488 259.788ZM169.488 257.388C170.32 257.388 171.064 257.244 171.72 256.956C172.392 256.652 172.92 256.22 173.304 255.66C173.688 255.084 173.88 254.388 173.88 253.572C173.88 252.756 173.688 252.06 173.304 251.484C172.92 250.892 172.4 250.444 171.744 250.14C171.088 249.836 170.336 249.684 169.488 249.684C168.656 249.684 167.904 249.836 167.232 250.14C166.56 250.444 166.024 250.884 165.624 251.46C165.24 252.036 165.048 252.74 165.048 253.572C165.048 254.388 165.24 255.084 165.624 255.66C166.008 256.22 166.536 256.652 167.208 256.956C167.88 257.244 168.64 257.388 169.488 257.388ZM179.354 247.572H182.474V259.5H179.354V247.572ZM188.018 247.308C188.754 247.308 189.434 247.404 190.058 247.596C190.682 247.788 191.226 248.084 191.69 248.484C192.154 248.884 192.514 249.396 192.77 250.02C193.026 250.628 193.154 251.356 193.154 252.204V259.5H190.034V252.756C190.034 251.748 189.786 251.012 189.29 250.548C188.81 250.068 188.018 249.828 186.914 249.828C186.082 249.828 185.33 249.988 184.658 250.308C183.986 250.628 183.442 251.036 183.026 251.532C182.61 252.012 182.37 252.516 182.306 253.044L182.282 251.82C182.362 251.26 182.546 250.716 182.834 250.188C183.122 249.66 183.506 249.18 183.986 248.748C184.482 248.3 185.066 247.948 185.738 247.692C186.41 247.436 187.17 247.308 188.018 247.308Z" fill="white"/>
<rect x="24" y="312" width="252" height="72" rx="36" fill="#27272A"/>
<path d="M106.848 355.5V339.972H115.8C117.88 339.972 119.456 340.324 120.528 341.028C121.616 341.716 122.16 342.748 122.16 344.124C122.16 345.004 121.944 345.7 121.512 346.212C121.08 346.708 120.464 347.076 119.664 347.316C118.88 347.556 117.952 347.708 116.88 347.772L116.976 347.604C117.76 347.62 118.496 347.676 119.184 347.772C119.888 347.868 120.504 348.044 121.032 348.3C121.56 348.556 121.976 348.916 122.28 349.38C122.584 349.828 122.736 350.42 122.736 351.156C122.736 352.116 122.48 352.916 121.968 353.556C121.456 354.18 120.744 354.652 119.832 354.972C118.92 355.292 117.864 355.468 116.664 355.5H106.848ZM110.04 352.86H116.328C117.336 352.86 118.112 352.7 118.656 352.38C119.2 352.044 119.472 351.516 119.472 350.796C119.472 350.268 119.312 349.884 118.992 349.644C118.672 349.404 118.248 349.26 117.72 349.212C117.192 349.148 116.624 349.116 116.016 349.116H110.04V352.86ZM110.04 346.548H115.68C116.688 346.548 117.464 346.404 118.008 346.116C118.552 345.812 118.824 345.3 118.824 344.58C118.824 343.86 118.552 343.356 118.008 343.068C117.464 342.764 116.744 342.612 115.848 342.612H110.04V346.548ZM138.967 355.5H135.847V343.572H138.967V355.5ZM136.015 349.764L136.039 350.58C136.007 350.804 135.927 351.132 135.799 351.564C135.671 351.98 135.471 352.428 135.199 352.908C134.943 353.388 134.607 353.852 134.191 354.3C133.775 354.732 133.263 355.092 132.655 355.38C132.047 355.652 131.327 355.788 130.495 355.788C129.839 355.788 129.191 355.708 128.551 355.548C127.927 355.388 127.359 355.124 126.847 354.756C126.335 354.372 125.927 353.86 125.623 353.22C125.319 352.58 125.167 351.772 125.167 350.796V343.572H128.287V350.268C128.287 351.036 128.407 351.644 128.647 352.092C128.903 352.524 129.271 352.828 129.751 353.004C130.231 353.18 130.799 353.268 131.455 353.268C132.319 353.268 133.063 353.084 133.687 352.716C134.311 352.332 134.815 351.868 135.199 351.324C135.599 350.78 135.871 350.26 136.015 349.764ZM140.967 343.572H150.231V345.996H140.967V343.572ZM144.039 340.308H147.159V355.5H144.039V340.308ZM151.373 343.572H160.637V345.996H151.373V343.572ZM154.445 340.308H157.565V355.5H154.445V340.308ZM169.488 355.788C167.984 355.788 166.656 355.548 165.504 355.068C164.368 354.588 163.48 353.892 162.84 352.98C162.2 352.052 161.88 350.916 161.88 349.572C161.88 348.228 162.2 347.092 162.84 346.164C163.48 345.22 164.368 344.508 165.504 344.028C166.656 343.548 167.984 343.308 169.488 343.308C170.992 343.308 172.304 343.548 173.424 344.028C174.56 344.508 175.448 345.22 176.088 346.164C176.728 347.092 177.048 348.228 177.048 349.572C177.048 350.916 176.728 352.052 176.088 352.98C175.448 353.892 174.56 354.588 173.424 355.068C172.304 355.548 170.992 355.788 169.488 355.788ZM169.488 353.388C170.32 353.388 171.064 353.244 171.72 352.956C172.392 352.652 172.92 352.22 173.304 351.66C173.688 351.084 173.88 350.388 173.88 349.572C173.88 348.756 173.688 348.06 173.304 347.484C172.92 346.892 172.4 346.444 171.744 346.14C171.088 345.836 170.336 345.684 169.488 345.684C168.656 345.684 167.904 345.836 167.232 346.14C166.56 346.444 166.024 346.884 165.624 347.46C165.24 348.036 165.048 348.74 165.048 349.572C165.048 350.388 165.24 351.084 165.624 351.66C166.008 352.22 166.536 352.652 167.208 352.956C167.88 353.244 168.64 353.388 169.488 353.388ZM179.354 343.572H182.474V355.5H179.354V343.572ZM188.018 343.308C188.754 343.308 189.434 343.404 190.058 343.596C190.682 343.788 191.226 344.084 191.69 344.484C192.154 344.884 192.514 345.396 192.77 346.02C193.026 346.628 193.154 347.356 193.154 348.204V355.5H190.034V348.756C190.034 347.748 189.786 347.012 189.29 346.548C188.81 346.068 188.018 345.828 186.914 345.828C186.082 345.828 185.33 345.988 184.658 346.308C183.986 346.628 183.442 347.036 183.026 347.532C182.61 348.012 182.37 348.516 182.306 349.044L182.282 347.82C182.362 347.26 182.546 346.716 182.834 346.188C183.122 345.66 183.506 345.18 183.986 344.748C184.482 344.3 185.066 343.948 185.738 343.692C186.41 343.436 187.17 343.308 188.018 343.308Z" fill="#F4F4F5"/>
<path fill-rule="evenodd" clip-rule="evenodd" d="M120.989 438.492C121.256 437.96 121.723 437.555 122.289 437.367C122.854 437.179 123.471 437.223 124.004 437.488L150 450.48L175.992 437.484C176.257 437.349 176.545 437.267 176.841 437.244C177.137 437.221 177.435 437.257 177.717 437.35C177.999 437.442 178.26 437.59 178.485 437.784C178.71 437.978 178.894 438.214 179.027 438.48C179.16 438.745 179.239 439.034 179.26 439.331C179.281 439.627 179.243 439.924 179.148 440.206C179.053 440.487 178.904 440.747 178.708 440.97C178.512 441.194 178.275 441.376 178.008 441.507L151.008 455.007C150.695 455.164 150.35 455.245 150 455.245C149.65 455.245 149.305 455.164 148.992 455.007L121.992 441.507C121.46 441.24 121.055 440.772 120.867 440.207C120.679 439.642 120.723 439.025 120.989 438.492Z" fill="#B399EC"/>
<path fill-rule="evenodd" clip-rule="evenodd" d="M396.989 65.508C397.256 66.0403 397.723 66.4449 398.289 66.633C398.854 66.8211 399.471 66.7774 400.004 66.5115L426 53.52L451.992 66.516C452.257 66.6511 452.545 66.7325 452.841 66.7555C453.137 66.7786 453.435 66.7428 453.717 66.6502C453.999 66.5577 454.26 66.4102 454.485 66.2163C454.71 66.0223 454.894 65.7858 455.027 65.5204C455.16 65.2549 455.239 64.9657 455.26 64.6695C455.281 64.3733 455.243 64.0759 455.148 63.7945C455.053 63.513 454.904 63.2532 454.708 63.0298C454.512 62.8064 454.275 62.624 454.008 62.493L427.008 48.993C426.695 48.8362 426.35 48.7546 426 48.7546C425.65 48.7546 425.305 48.8362 424.992 48.993L397.992 62.493C397.46 62.7604 397.055 63.2279 396.867 63.7931C396.679 64.3583 396.723 64.975 396.989 65.508Z" fill="#B399EC"/>
<rect x="300" y="120" width="252" height="72" rx="36" fill="#885EC0"/>
<path d="M382.848 163.5V147.972H391.8C393.88 147.972 395.456 148.324 396.528 149.028C397.616 149.716 398.16 150.748 398.16 152.124C398.16 153.004 397.944 153.7 397.512 154.212C397.08 154.708 396.464 155.076 395.664 155.316C394.88 155.556 393.952 155.708 392.88 155.772L392.976 155.604C393.76 155.62 394.496 155.676 395.184 155.772C395.888 155.868 396.504 156.044 397.032 156.3C397.56 156.556 397.976 156.916 398.28 157.38C398.584 157.828 398.736 158.42 398.736 159.156C398.736 160.116 398.48 160.916 397.968 161.556C397.456 162.18 396.744 162.652 395.832 162.972C394.92 163.292 393.864 163.468 392.664 163.5H382.848ZM386.04 160.86H392.328C393.336 160.86 394.112 160.7 394.656 160.38C395.2 160.044 395.472 159.516 395.472 158.796C395.472 158.268 395.312 157.884 394.992 157.644C394.672 157.404 394.248 157.26 393.72 157.212C393.192 157.148 392.624 157.116 392.016 157.116H386.04V160.86ZM386.04 154.548H391.68C392.688 154.548 393.464 154.404 394.008 154.116C394.552 153.812 394.824 153.3 394.824 152.58C394.824 151.86 394.552 151.356 394.008 151.068C393.464 150.764 392.744 150.612 391.848 150.612H386.04V154.548ZM414.967 163.5H411.847V151.572H414.967V163.5ZM412.015 157.764L412.039 158.58C412.007 158.804 411.927 159.132 411.799 159.564C411.671 159.98 411.471 160.428 411.199 160.908C410.943 161.388 410.607 161.852 410.191 162.3C409.775 162.732 409.263 163.092 408.655 163.38C408.047 163.652 407.327 163.788 406.495 163.788C405.839 163.788 405.191 163.708 404.551 163.548C403.927 163.388 403.359 163.124 402.847 162.756C402.335 162.372 401.927 161.86 401.623 161.22C401.319 160.58 401.167 159.772 401.167 158.796V151.572H404.287V158.268C404.287 159.036 404.407 159.644 404.647 160.092C404.903 160.524 405.271 160.828 405.751 161.004C406.231 161.18 406.799 161.268 407.455 161.268C408.319 161.268 409.063 161.084 409.687 160.716C410.311 160.332 410.815 159.868 411.199 159.324C411.599 158.78 411.871 158.26 412.015 157.764ZM416.967 151.572H426.231V153.996H416.967V151.572ZM420.039 148.308H423.159V163.5H420.039V148.308ZM427.373 151.572H436.637V153.996H427.373V151.572ZM430.445 148.308H433.565V163.5H430.445V148.308ZM445.488 163.788C443.984 163.788 442.656 163.548 441.504 163.068C440.368 162.588 439.48 161.892 438.84 160.98C438.2 160.052 437.88 158.916 437.88 157.572C437.88 156.228 438.2 155.092 438.84 154.164C439.48 153.22 440.368 152.508 441.504 152.028C442.656 151.548 443.984 151.308 445.488 151.308C446.992 151.308 448.304 151.548 449.424 152.028C450.56 152.508 451.448 153.22 452.088 154.164C452.728 155.092 453.048 156.228 453.048 157.572C453.048 158.916 452.728 160.052 452.088 160.98C451.448 161.892 450.56 162.588 449.424 163.068C448.304 163.548 446.992 163.788 445.488 163.788ZM445.488 161.388C446.32 161.388 447.064 161.244 447.72 160.956C448.392 160.652 448.92 160.22 449.304 159.66C449.688 159.084 449.88 158.388 449.88 157.572C449.88 156.756 449.688 156.06 449.304 155.484C448.92 154.892 448.4 154.444 447.744 154.14C447.088 153.836 446.336 153.684 445.488 153.684C444.656 153.684 443.904 153.836 443.232 154.14C442.56 154.444 442.024 154.884 441.624 155.46C441.24 156.036 441.048 156.74 441.048 157.572C441.048 158.388 441.24 159.084 441.624 159.66C442.008 160.22 442.536 160.652 443.208 160.956C443.88 161.244 444.64 161.388 445.488 161.388ZM455.354 151.572H458.474V163.5H455.354V151.572ZM464.018 151.308C464.754 151.308 465.434 151.404 466.058 151.596C466.682 151.788 467.226 152.084 467.69 152.484C468.154 152.884 468.514 153.396 468.77 154.02C469.026 154.628 469.154 155.356 469.154 156.204V163.5H466.034V156.756C466.034 155.748 465.786 155.012 465.29 154.548C464.81 154.068 464.018 153.828 462.914 153.828C462.082 153.828 461.33 153.988 460.658 154.308C459.986 154.628 459.442 155.036 459.026 155.532C458.61 156.012 458.37 156.516 458.306 157.044L458.282 155.82C458.362 155.26 458.546 154.716 458.834 154.188C459.122 153.66 459.506 153.18 459.986 152.748C460.482 152.3 461.066 151.948 461.738 151.692C462.41 151.436 463.17 151.308 464.018 151.308Z" fill="#FAFAFA"/>
<rect x="301" y="217" width="250" height="70" rx="35" fill="#9B74DE" fill-opacity="0.3"/>
<rect x="301" y="217" width="250" height="70" rx="35" stroke="#885EC0" stroke-width="2"/>
<path d="M382.848 259.5V243.972H391.8C393.88 243.972 395.456 244.324 396.528 245.028C397.616 245.716 398.16 246.748 398.16 248.124C398.16 249.004 397.944 249.7 397.512 250.212C397.08 250.708 396.464 251.076 395.664 251.316C394.88 251.556 393.952 251.708 392.88 251.772L392.976 251.604C393.76 251.62 394.496 251.676 395.184 251.772C395.888 251.868 396.504 252.044 397.032 252.3C397.56 252.556 397.976 252.916 398.28 253.38C398.584 253.828 398.736 254.42 398.736 255.156C398.736 256.116 398.48 256.916 397.968 257.556C397.456 258.18 396.744 258.652 395.832 258.972C394.92 259.292 393.864 259.468 392.664 259.5H382.848ZM386.04 256.86H392.328C393.336 256.86 394.112 256.7 394.656 256.38C395.2 256.044 395.472 255.516 395.472 254.796C395.472 254.268 395.312 253.884 394.992 253.644C394.672 253.404 394.248 253.26 393.72 253.212C393.192 253.148 392.624 253.116 392.016 253.116H386.04V256.86ZM386.04 250.548H391.68C392.688 250.548 393.464 250.404 394.008 250.116C394.552 249.812 394.824 249.3 394.824 248.58C394.824 247.86 394.552 247.356 394.008 247.068C393.464 246.764 392.744 246.612 391.848 246.612H386.04V250.548ZM414.967 259.5H411.847V247.572H414.967V259.5ZM412.015 253.764L412.039 254.58C412.007 254.804 411.927 255.132 411.799 255.564C411.671 255.98 411.471 256.428 411.199 256.908C410.943 257.388 410.607 257.852 410.191 258.3C409.775 258.732 409.263 259.092 408.655 259.38C408.047 259.652 407.327 259.788 406.495 259.788C405.839 259.788 405.191 259.708 404.551 259.548C403.927 259.388 403.359 259.124 402.847 258.756C402.335 258.372 401.927 257.86 401.623 257.22C401.319 256.58 401.167 255.772 401.167 254.796V247.572H404.287V254.268C404.287 255.036 404.407 255.644 404.647 256.092C404.903 256.524 405.271 256.828 405.751 257.004C406.231 257.18 406.799 257.268 407.455 257.268C408.319 257.268 409.063 257.084 409.687 256.716C410.311 256.332 410.815 255.868 411.199 255.324C411.599 254.78 411.871 254.26 412.015 253.764ZM416.967 247.572H426.231V249.996H416.967V247.572ZM420.039 244.308H423.159V259.5H420.039V244.308ZM427.373 247.572H436.637V249.996H427.373V247.572ZM430.445 244.308H433.565V259.5H430.445V244.308ZM445.488 259.788C443.984 259.788 442.656 259.548 441.504 259.068C440.368 258.588 439.48 257.892 438.84 256.98C438.2 256.052 437.88 254.916 437.88 253.572C437.88 252.228 438.2 251.092 438.84 250.164C439.48 249.22 440.368 248.508 441.504 248.028C442.656 247.548 443.984 247.308 445.488 247.308C446.992 247.308 448.304 247.548 449.424 248.028C450.56 248.508 451.448 249.22 452.088 250.164C452.728 251.092 453.048 252.228 453.048 253.572C453.048 254.916 452.728 256.052 452.088 256.98C451.448 257.892 450.56 258.588 449.424 259.068C448.304 259.548 446.992 259.788 445.488 259.788ZM445.488 257.388C446.32 257.388 447.064 257.244 447.72 256.956C448.392 256.652 448.92 256.22 449.304 255.66C449.688 255.084 449.88 254.388 449.88 253.572C449.88 252.756 449.688 252.06 449.304 251.484C448.92 250.892 448.4 250.444 447.744 250.14C447.088 249.836 446.336 249.684 445.488 249.684C444.656 249.684 443.904 249.836 443.232 250.14C442.56 250.444 442.024 250.884 441.624 251.46C441.24 252.036 441.048 252.74 441.048 253.572C441.048 254.388 441.24 255.084 441.624 255.66C442.008 256.22 442.536 256.652 443.208 256.956C443.88 257.244 444.64 257.388 445.488 257.388ZM455.354 247.572H458.474V259.5H455.354V247.572ZM464.018 247.308C464.754 247.308 465.434 247.404 466.058 247.596C466.682 247.788 467.226 248.084 467.69 248.484C468.154 248.884 468.514 249.396 468.77 250.02C469.026 250.628 469.154 251.356 469.154 252.204V259.5H466.034V252.756C466.034 251.748 465.786 251.012 465.29 250.548C464.81 250.068 464.018 249.828 462.914 249.828C462.082 249.828 461.33 249.988 460.658 250.308C459.986 250.628 459.442 251.036 459.026 251.532C458.61 252.012 458.37 252.516 458.306 253.044L458.282 251.82C458.362 251.26 458.546 250.716 458.834 250.188C459.122 249.66 459.506 249.18 459.986 248.748C460.482 248.3 461.066 247.948 461.738 247.692C462.41 247.436 463.17 247.308 464.018 247.308Z" fill="#885EC0"/>
<rect x="300" y="312" width="252" height="72" rx="36" fill="url(#paint2_linear_37_1206)"/>
<path d="M382.848 355.5V339.972H391.8C393.88 339.972 395.456 340.324 396.528 341.028C397.616 341.716 398.16 342.748 398.16 344.124C398.16 345.004 397.944 345.7 397.512 346.212C397.08 346.708 396.464 347.076 395.664 347.316C394.88 347.556 393.952 347.708 392.88 347.772L392.976 347.604C393.76 347.62 394.496 347.676 395.184 347.772C395.888 347.868 396.504 348.044 397.032 348.3C397.56 348.556 397.976 348.916 398.28 349.38C398.584 349.828 398.736 350.42 398.736 351.156C398.736 352.116 398.48 352.916 397.968 353.556C397.456 354.18 396.744 354.652 395.832 354.972C394.92 355.292 393.864 355.468 392.664 355.5H382.848ZM386.04 352.86H392.328C393.336 352.86 394.112 352.7 394.656 352.38C395.2 352.044 395.472 351.516 395.472 350.796C395.472 350.268 395.312 349.884 394.992 349.644C394.672 349.404 394.248 349.26 393.72 349.212C393.192 349.148 392.624 349.116 392.016 349.116H386.04V352.86ZM386.04 346.548H391.68C392.688 346.548 393.464 346.404 394.008 346.116C394.552 345.812 394.824 345.3 394.824 344.58C394.824 343.86 394.552 343.356 394.008 343.068C393.464 342.764 392.744 342.612 391.848 342.612H386.04V346.548ZM414.967 355.5H411.847V343.572H414.967V355.5ZM412.015 349.764L412.039 350.58C412.007 350.804 411.927 351.132 411.799 351.564C411.671 351.98 411.471 352.428 411.199 352.908C410.943 353.388 410.607 353.852 410.191 354.3C409.775 354.732 409.263 355.092 408.655 355.38C408.047 355.652 407.327 355.788 406.495 355.788C405.839 355.788 405.191 355.708 404.551 355.548C403.927 355.388 403.359 355.124 402.847 354.756C402.335 354.372 401.927 353.86 401.623 353.22C401.319 352.58 401.167 351.772 401.167 350.796V343.572H404.287V350.268C404.287 351.036 404.407 351.644 404.647 352.092C404.903 352.524 405.271 352.828 405.751 353.004C406.231 353.18 406.799 353.268 407.455 353.268C408.319 353.268 409.063 353.084 409.687 352.716C410.311 352.332 410.815 351.868 411.199 351.324C411.599 350.78 411.871 350.26 412.015 349.764ZM416.967 343.572H426.231V345.996H416.967V343.572ZM420.039 340.308H423.159V355.5H420.039V340.308ZM427.373 343.572H436.637V345.996H427.373V343.572ZM430.445 340.308H433.565V355.5H430.445V340.308ZM445.488 355.788C443.984 355.788 442.656 355.548 441.504 355.068C440.368 354.588 439.48 353.892 438.84 352.98C438.2 352.052 437.88 350.916 437.88 349.572C437.88 348.228 438.2 347.092 438.84 346.164C439.48 345.22 440.368 344.508 441.504 344.028C442.656 343.548 443.984 343.308 445.488 343.308C446.992 343.308 448.304 343.548 449.424 344.028C450.56 344.508 451.448 345.22 452.088 346.164C452.728 347.092 453.048 348.228 453.048 349.572C453.048 350.916 452.728 352.052 452.088 352.98C451.448 353.892 450.56 354.588 449.424 355.068C448.304 355.548 446.992 355.788 445.488 355.788ZM445.488 353.388C446.32 353.388 447.064 353.244 447.72 352.956C448.392 352.652 448.92 352.22 449.304 351.66C449.688 351.084 449.88 350.388 449.88 349.572C449.88 348.756 449.688 348.06 449.304 347.484C448.92 346.892 448.4 346.444 447.744 346.14C447.088 345.836 446.336 345.684 445.488 345.684C444.656 345.684 443.904 345.836 443.232 346.14C442.56 346.444 442.024 346.884 441.624 347.46C441.24 348.036 441.048 348.74 441.048 349.572C441.048 350.388 441.24 351.084 441.624 351.66C442.008 352.22 442.536 352.652 443.208 352.956C443.88 353.244 444.64 353.388 445.488 353.388ZM455.354 343.572H458.474V355.5H455.354V343.572ZM464.018 343.308C464.754 343.308 465.434 343.404 466.058 343.596C466.682 343.788 467.226 344.084 467.69 344.484C468.154 344.884 468.514 345.396 468.77 346.02C469.026 346.628 469.154 347.356 469.154 348.204V355.5H466.034V348.756C466.034 347.748 465.786 347.012 465.29 346.548C464.81 346.068 464.018 345.828 462.914 345.828C462.082 345.828 461.33 345.988 460.658 346.308C459.986 346.628 459.442 347.036 459.026 347.532C458.61 348.012 458.37 348.516 458.306 349.044L458.282 347.82C458.362 347.26 458.546 346.716 458.834 346.188C459.122 345.66 459.506 345.18 459.986 344.748C460.482 344.3 461.066 343.948 461.738 343.692C462.41 343.436 463.17 343.308 464.018 343.308Z" fill="white"/>
<rect x="300" y="408" width="252" height="72" rx="36" fill="#FAFAFA"/>
<path d="M382.848 451.5V435.972H391.8C393.88 435.972 395.456 436.324 396.528 437.028C397.616 437.716 398.16 438.748 398.16 440.124C398.16 441.004 397.944 441.7 397.512 442.212C397.08 442.708 396.464 443.076 395.664 443.316C394.88 443.556 393.952 443.708 392.88 443.772L392.976 443.604C393.76 443.62 394.496 443.676 395.184 443.772C395.888 443.868 396.504 444.044 397.032 444.3C397.56 444.556 397.976 444.916 398.28 445.38C398.584 445.828 398.736 446.42 398.736 447.156C398.736 448.116 398.48 448.916 397.968 449.556C397.456 450.18 396.744 450.652 395.832 450.972C394.92 451.292 393.864 451.468 392.664 451.5H382.848ZM386.04 448.86H392.328C393.336 448.86 394.112 448.7 394.656 448.38C395.2 448.044 395.472 447.516 395.472 446.796C395.472 446.268 395.312 445.884 394.992 445.644C394.672 445.404 394.248 445.26 393.72 445.212C393.192 445.148 392.624 445.116 392.016 445.116H386.04V448.86ZM386.04 442.548H391.68C392.688 442.548 393.464 442.404 394.008 442.116C394.552 441.812 394.824 441.3 394.824 440.58C394.824 439.86 394.552 439.356 394.008 439.068C393.464 438.764 392.744 438.612 391.848 438.612H386.04V442.548ZM414.967 451.5H411.847V439.572H414.967V451.5ZM412.015 445.764L412.039 446.58C412.007 446.804 411.927 447.132 411.799 447.564C411.671 447.98 411.471 448.428 411.199 448.908C410.943 449.388 410.607 449.852 410.191 450.3C409.775 450.732 409.263 451.092 408.655 451.38C408.047 451.652 407.327 451.788 406.495 451.788C405.839 451.788 405.191 451.708 404.551 451.548C403.927 451.388 403.359 451.124 402.847 450.756C402.335 450.372 401.927 449.86 401.623 449.22C401.319 448.58 401.167 447.772 401.167 446.796V439.572H404.287V446.268C404.287 447.036 404.407 447.644 404.647 448.092C404.903 448.524 405.271 448.828 405.751 449.004C406.231 449.18 406.799 449.268 407.455 449.268C408.319 449.268 409.063 449.084 409.687 448.716C410.311 448.332 410.815 447.868 411.199 447.324C411.599 446.78 411.871 446.26 412.015 445.764ZM416.967 439.572H426.231V441.996H416.967V439.572ZM420.039 436.308H423.159V451.5H420.039V436.308ZM427.373 439.572H436.637V441.996H427.373V439.572ZM430.445 436.308H433.565V451.5H430.445V436.308ZM445.488 451.788C443.984 451.788 442.656 451.548 441.504 451.068C440.368 450.588 439.48 449.892 438.84 448.98C438.2 448.052 437.88 446.916 437.88 445.572C437.88 444.228 438.2 443.092 438.84 442.164C439.48 441.22 440.368 440.508 441.504 440.028C442.656 439.548 443.984 439.308 445.488 439.308C446.992 439.308 448.304 439.548 449.424 440.028C450.56 440.508 451.448 441.22 452.088 442.164C452.728 443.092 453.048 444.228 453.048 445.572C453.048 446.916 452.728 448.052 452.088 448.98C451.448 449.892 450.56 450.588 449.424 451.068C448.304 451.548 446.992 451.788 445.488 451.788ZM445.488 449.388C446.32 449.388 447.064 449.244 447.72 448.956C448.392 448.652 448.92 448.22 449.304 447.66C449.688 447.084 449.88 446.388 449.88 445.572C449.88 444.756 449.688 444.06 449.304 443.484C448.92 442.892 448.4 442.444 447.744 442.14C447.088 441.836 446.336 441.684 445.488 441.684C444.656 441.684 443.904 441.836 443.232 442.14C442.56 442.444 442.024 442.884 441.624 443.46C441.24 444.036 441.048 444.74 441.048 445.572C441.048 446.388 441.24 447.084 441.624 447.66C442.008 448.22 442.536 448.652 443.208 448.956C443.88 449.244 444.64 449.388 445.488 449.388ZM455.354 439.572H458.474V451.5H455.354V439.572ZM464.018 439.308C464.754 439.308 465.434 439.404 466.058 439.596C466.682 439.788 467.226 440.084 467.69 440.484C468.154 440.884 468.514 441.396 468.77 442.02C469.026 442.628 469.154 443.356 469.154 444.204V451.5H466.034V444.756C466.034 443.748 465.786 443.012 465.29 442.548C464.81 442.068 464.018 441.828 462.914 441.828C462.082 441.828 461.33 441.988 460.658 442.308C459.986 442.628 459.442 443.036 459.026 443.532C458.61 444.012 458.37 444.516 458.306 445.044L458.282 443.82C458.362 443.26 458.546 442.716 458.834 442.188C459.122 441.66 459.506 441.18 459.986 440.748C460.482 440.3 461.066 439.948 461.738 439.692C462.41 439.436 463.17 439.308 464.018 439.308Z" fill="#27272A"/>
<path d="M359.218 165.516V180.284L359.479 180.273C361.171 180.208 363.503 180.186 365.189 180.523C366.599 180.837 367.952 181.365 369.202 182.089C370.591 182.864 371.668 184.098 372.247 185.58L372.964 185.515C374.661 185.384 377.282 185.308 379.261 186.102C381.273 186.907 383.008 188.75 384.046 189.995C384.414 190.433 384.767 190.883 385.106 191.344H388.266C389.785 191.344 391.287 191.662 392.676 192.278C394.065 192.895 395.309 193.795 396.329 194.922C397.348 196.048 398.12 197.376 398.595 198.819C399.07 200.262 399.237 201.789 399.086 203.301L397.613 218.064C397.347 220.723 396.525 223.296 395.198 225.616L387.613 238.889C386.9 240.138 385.87 241.175 384.626 241.897C383.383 242.619 381.971 243 380.533 243H346.266C344.751 243 343.266 242.579 341.977 241.783C340.689 240.987 339.647 239.847 338.969 238.492L332.363 225.279L318.818 202.697C317.79 200.971 317.427 198.93 317.797 196.955C318.168 194.981 319.246 193.209 320.829 191.973C322.413 190.737 324.393 190.122 326.399 190.242C328.404 190.362 330.297 191.21 331.721 192.627L340.187 201.093V165.516C340.187 162.992 341.19 160.572 342.974 158.787C344.759 157.003 347.179 156 349.703 156C352.227 156 354.647 157.003 356.431 158.787C358.216 160.572 359.218 162.992 359.218 165.516Z" fill="#09090B"/>
<path d="M349.703 161.438C350.785 161.438 351.822 161.867 352.587 162.632C353.352 163.397 353.782 164.434 353.782 165.516V199.5C353.782 200.221 354.068 200.913 354.578 201.422C355.088 201.932 355.779 202.219 356.5 202.219C357.221 202.219 357.913 201.932 358.423 201.422C358.933 200.913 359.219 200.221 359.219 199.5V185.727L359.687 185.705C361.41 185.64 363.15 185.662 364.124 185.852C364.852 185.999 365.722 186.374 366.56 186.842C366.978 187.07 367.375 187.641 367.375 188.549V199.5C367.375 200.221 367.662 200.913 368.172 201.422C368.681 201.932 369.373 202.219 370.094 202.219C370.815 202.219 371.507 201.932 372.017 201.422C372.526 200.913 372.813 200.221 372.813 199.5V190.99L373.389 190.936C375.107 190.805 376.565 190.882 377.239 191.153C377.881 191.404 378.87 192.279 379.882 193.492C380.322 194.014 380.697 194.525 380.969 194.9V202.219C380.969 202.94 381.256 203.631 381.765 204.141C382.275 204.651 382.967 204.938 383.688 204.938C384.409 204.938 385.1 204.651 385.61 204.141C386.12 203.631 386.407 202.94 386.407 202.219V196.781H388.266C389.026 196.781 389.778 196.941 390.472 197.249C391.167 197.557 391.789 198.008 392.299 198.571C392.809 199.135 393.195 199.799 393.432 200.521C393.669 201.243 393.753 202.006 393.677 202.763L392.203 217.525C392.013 219.423 391.425 221.258 390.479 222.914L382.894 236.192C382.656 236.608 382.313 236.954 381.898 237.195C381.484 237.436 381.013 237.562 380.534 237.562H346.267C345.762 237.562 345.268 237.422 344.839 237.157C344.409 236.892 344.062 236.513 343.836 236.062L337.137 222.658L323.478 199.902C323.127 199.314 323.003 198.618 323.13 197.944C323.256 197.271 323.624 196.667 324.164 196.246C324.704 195.824 325.379 195.615 326.063 195.656C326.747 195.698 327.392 195.988 327.877 196.471L340.982 209.576C341.362 209.957 341.846 210.216 342.374 210.322C342.901 210.427 343.448 210.374 343.945 210.168C344.442 209.963 344.867 209.614 345.166 209.167C345.466 208.72 345.625 208.194 345.625 207.656V165.516C345.625 164.434 346.055 163.397 346.82 162.632C347.585 161.867 348.622 161.438 349.703 161.438Z" fill="#FAFAFA"/>
</g>
</g>
<defs>
<linearGradient id="paint0_linear_37_1206" x1="175.107" y1="-23.9406" x2="478.77" y2="593.23" gradientUnits="userSpaceOnUse">
<stop stop-color="#F5DCDD"/>
<stop offset="0.48794" stop-color="#FFD9EC"/>
<stop offset="1" stop-color="#D6C9E1"/>
</linearGradient>
<linearGradient id="paint1_linear_37_1206" x1="24" y1="252" x2="276" y2="252" gradientUnits="userSpaceOnUse">
<stop stop-color="#B399EC"/>
<stop offset="1" stop-color="#C1848F"/>
</linearGradient>
<linearGradient id="paint2_linear_37_1206" x1="300" y1="348" x2="552" y2="348" gradientUnits="userSpaceOnUse">
<stop stop-color="#9F7BDC"/>
<stop offset="1" stop-color="#AA707A"/>
</linearGradient>
<clipPath id="clip0_37_1206">
<rect width="480" height="620" fill="white"/>
</clipPath>
<clipPath id="clip1_37_1206">
<rect width="480" height="620" fill="white"/>
</clipPath>
</defs>
</svg>
